/* XPM */
static char * chiffres_gris_xpm[] = {
"220 32 158 2",
"  	c None",
". 	c #FFFFFF",
"+ 	c #F4F1ED",
"@ 	c #A67C4F",
"# 	c #9C6932",
"$ 	c #9A662F",
"% 	c #9F6D37",
"& 	c #B79A7B",
"* 	c #B89C7E",
"= 	c #9F6C37",
"- 	c #A5794A",
"; 	c #A06F3A",
"> 	c #C8B49F",
", 	c #A57C4F",
"' 	c #B1916D",
") 	c #9B6831",
"! 	c #A27442",
"~ 	c #E0D7CC",
"{ 	c #A67B4E",
"] 	c #A57A4B",
"^ 	c #9B6731",
"/ 	c #A5794B",
"( 	c #DBCFC2",
"_ 	c #A57B4C",
": 	c #A78055",
"< 	c #FCFBFA",
"[ 	c #AC8962",
"} 	c #9D6A34",
"| 	c #A27441",
"1 	c #B49573",
"2 	c #AD8A64",
"3 	c #C0A88E",
"4 	c #AB865D",
"5 	c #A27341",
"6 	c #DFD5CA",
"7 	c #9B6730",
"8 	c #B79A7A",
"9 	c #B49675",
"0 	c #FDFDFC",
"a 	c #A67E52",
"b 	c #AE8C66",
"c 	c #BBA184",
"d 	c #A98359",
"e 	c #9A6630",
"f 	c #AB875E",
"g 	c #A37543",
"h 	c #A87F53",
"i 	c #99662F",
"j 	c #9D6A33",
"k 	c #A98055",
"l 	c #9E6C36",
"m 	c #AC8860",
"n 	c #BAA082",
"o 	c #A67B4D",
"p 	c #B08F6B",
"q 	c #A87F52",
"r 	c #C1AA90",
"s 	c #E1D8CD",
"t 	c #9E6B35",
"u 	c #FAF8F6",
"v 	c #9C6832",
"w 	c #EEE9E4",
"x 	c #D9CCBE",
"y 	c #A37746",
"z 	c #FBFAF8",
"A 	c #A47747",
"B 	c #A37544",
"C 	c #F7F5F2",
"D 	c #9C6933",
"E 	c #D1C1B0",
"F 	c #F8F7F4",
"G 	c #D3C4B4",
"H 	c #B1906E",
"I 	c #F6F3F0",
"J 	c #B79C7D",
"K 	c #9F6D38",
"L 	c #E7E0D7",
"M 	c #BCA388",
"N 	c #A0703C",
"O 	c #CDBCA9",
"P 	c #E4DBD2",
"Q 	c #AE8C67",
"R 	c #A27340",
"S 	c #A37646",
"T 	c #E8E1D9",
"U 	c #E5DDD4",
"V 	c #DED3C7",
"W 	c #A77F53",
"X 	c #9F6E39",
"Y 	c #AA845A",
"Z 	c #D5C7B8",
"` 	c #B89B7C",
" .	c #DDD2C5",
"..	c #D5C6B6",
"+.	c #F0EBE6",
"@.	c #A2713F",
"#.	c #C7B39D",
"$.	c #DACEC0",
"%.	c #F5F2EF",
"&.	c #A37545",
"*.	c #C1AA91",
"=.	c #C6B19A",
"-.	c #AC8963",
";.	c #D7C9BA",
">.	c #EEE8E2",
",.	c #A77E52",
"'.	c #E3DAD0",
").	c #A06E39",
"!.	c #CBB8A4",
"~.	c #B59776",
"{.	c #B99F81",
"].	c #DFD4C9",
"^.	c #C5AF98",
"/.	c #F3EFEB",
"(.	c #B29270",
"_.	c #A0713C",
":.	c #C2AC93",
"<.	c #B99E80",
"[.	c #A47849",
"}.	c #A27240",
"|.	c #CFBFAD",
"1.	c #C8B5A0",
"2.	c #BCA286",
"3.	c #D1C1AF",
"4.	c #A88055",
"5.	c #AB865E",
"6.	c #C0A98F",
"7.	c #BDA489",
"8.	c #9D6933",
"9.	c #AE8B65",
"0.	c #A88156",
"a.	c #CAB7A1",
"b.	c #9D6B34",
"c.	c #CFBDAB",
"d.	c #B1916F",
"e.	c #F1ECE8",
"f.	c #C4AE96",
"g.	c #CCB9A5",
"h.	c #B29371",
"i.	c #D2C2B1",
"j.	c #D3C4B3",
"k.	c #E9E2DB",
"l.	c #A0703B",
"m.	c #D6C8B9",
"n.	c #B59877",
"o.	c #F1EDE9",
"p.	c #CCBAA7",
"q.	c #CDBBA8",
"r.	c #B39472",
"s.	c #EBE5DE",
"t.	c #A67D51",
"u.	c #E6DFD6",
"v.	c #B69979",
"w.	c #AF8D69",
"x.	c #A77D51",
"y.	c #DCD0C3",
"z.	c #EAE3DC",
"A.	c #CFBEAB",
". . . . . . . . . . . . . . . . . . . . . . . . . . . . . . . . . . . . . . . . . . . . . . . . . . . . . . . . . . . . . . . . . . . . . . . . . . . . . . . . . . . . . . . . . . . . . . . . . . . . . . . . . . . . . . . . . . . . . . . . . . . . . . . . . . . . . . . . . . . . . . . . . . . . . . . . . . . . . . . . . . . . . . . . . . . . . . . . . . . . . . . . . . . . . . . . . . . . . . . . . . . . . . . . . . . . . . . . . . . . ",
". . . . . . . . . . . . . . . . . . . . . . . . . . . . . . . . . . . . . . . . . . . . . . . . . . . . . . . . . . . . . . . . . . . . . . . . . . . . . . . . . . . . . . . . . . . . . . . . . . . . . . . . . . . . . . . . . . . . . . . . . . . . . . . . . . . . . . . . . . . . . . . . . . . . . . . . . . . . . . . . . . . . . . . . . . . . . . . . . . . . . . . . . . . . . . . . . . . . . . . . . . . . . . . . . . . . . . . . . . . . ",
". . . . . + @ # $ $ $ $ $ $ % & . . . . . . . . . . * = $ $ $ $ - . . . . . . . . . . . + @ # $ $ $ $ $ $ ; > . . . . . . . . . + , # $ $ $ $ $ $ % & . . . . . . . . . . . . . . . . . . . ' % ) ! ~ . . - $ $ $ $ $ $ $ $ $ $ $ $ $ $ $ $ { . . . . . . . . ] ^ / ( . . . . . . . . . . _ $ $ $ $ $ $ $ $ $ $ $ $ $ $ # : < . . . . . . [ } $ $ $ $ $ $ % & . . . . . . . . . + @ # $ $ $ $ $ $ % & . . . . . . . . . . . . . . . . . . . . . . . . . ",
". . . . + | $ $ $ $ $ $ $ $ $ $ 1 . . . . . . . . 2 $ $ $ $ $ $ $ . . . . . . . . . . + | $ $ $ $ $ $ $ $ $ ^ 3 . . . . . . . + | $ $ $ $ $ $ $ $ $ $ 1 . . . . . . . . . . . . . . . . . 4 $ $ $ $ 5 . . $ $ $ $ $ $ $ $ $ $ $ $ $ $ $ $ $ $ . . . . . . . 6 $ $ $ 7 8 . . . . . . . . . $ $ $ $ $ $ $ $ $ $ $ $ $ $ $ $ $ 9 . . . . 0 a $ $ $ $ $ $ $ $ $ $ 1 . . . . . . . + | $ $ $ $ $ $ $ $ $ $ 1 . . . . . . . . . . . . . . . . . . . . . . . . ",
". . . + | $ $ $ $ $ $ $ $ $ $ $ $ 9 . . . . . . b $ $ $ $ $ $ $ $ . . . . . . . . . + | $ $ $ $ $ $ $ $ $ $ $ 7 c . . . . . + | $ $ $ $ $ $ $ $ $ $ $ $ 9 . . . . . . . . . . . . . . . d $ $ $ $ $ e . . $ $ $ $ $ $ $ $ $ $ $ $ $ $ $ $ $ $ . . . . . . . f $ $ $ $ g . . . . . . . . . $ $ $ $ $ $ $ $ $ $ $ $ $ $ $ $ $ h . . . 0 @ $ $ $ $ $ $ $ $ $ $ $ $ 9 . . . . . + | $ $ $ $ $ $ $ $ $ $ i $ 9 . . . . . . . . . . . . . . . . . . . . . . . ",
". . + | $ $ $ $ $ $ $ $ $ $ $ $ $ $ 9 . . . . . j $ $ $ $ $ $ $ $ . . . . . . . . + | $ $ $ $ $ $ $ $ $ $ $ $ $ $ 8 . . . + | $ $ $ $ $ $ $ $ $ $ $ $ $ $ 9 . . . . . . . . . . . . . k $ $ $ $ $ $ $ . . $ $ $ $ $ $ $ $ $ $ $ $ $ $ $ $ $ $ . . . . . . < l $ $ $ $ m . . . . . . . . . $ $ $ $ $ $ $ $ $ $ $ $ $ $ $ $ $ n . . < { $ $ $ $ $ $ $ $ $ $ $ $ $ $ 9 . . . + | $ $ $ $ $ $ $ $ $ $ $ $ $ $ 9 . . . . . . . . . . . . . . . . . . . . . . ",
". . @ $ $ $ $ $ $ $ $ $ $ $ $ $ $ $ # . . . . . o e $ $ $ $ $ $ $ . . . . . . . . @ $ $ $ $ $ $ $ $ $ $ $ $ $ $ $ $ p . . @ $ $ $ $ $ $ $ $ $ $ $ $ $ $ $ $ p . . . . . . . . . . 0 q $ $ $ $ $ $ $ $ . . $ $ $ $ $ $ $ $ $ $ $ $ $ $ $ $ $ @ . . . . . . r $ $ $ $ $ s . . . . . . . . . / $ $ $ $ $ $ $ $ $ $ $ $ $ $ $ t u . . d $ $ $ $ $ $ $ $ $ $ $ $ $ $ $ $ p . . @ $ $ $ $ $ $ $ $ $ $ $ $ $ $ $ $ p . . . . . . . . . . . . . . . . . . . . . ",
". . v $ $ $ $ 7 1 w . < x y $ $ $ $ $ . . . . . . . . . . $ $ $ $ . . . . . . . . v $ $ $ $ 7 1 w . < x y $ $ $ $ $ v . . v $ $ $ $ 7 1 w . < x y $ $ $ $ $ v . . . . . . . . . 0 @ $ $ $ $ $ $ $ $ $ . . $ $ $ $ n z . . . . . . . . . . . . . . . . . . A $ $ $ $ B . . . . . . . . . . . . . . . . . . . . C } $ $ $ $ 4 . . . D $ $ $ $ B E z . F G y $ $ $ $ $ v . . v $ $ $ $ 7 1 w . < x y $ $ $ $ $ v . . . . . . . . . . . . . . . . . . . . . ",
". . $ $ $ $ $ H . . . . . I $ $ $ $ $ . . . . . . . . . . $ $ $ $ . . . . . . . . $ i $ $ $ 9 . . . . . z J K $ $ $ $ . . $ $ $ $ $ 9 . . . . . z J K $ $ $ $ . . . . . . . . < _ $ $ $ $ $ $ $ $ $ $ . . $ $ $ $ . . . . . . . . . . . . . . . . . . . L 7 $ $ $ $ M . . . . . . . . . . . . . . . . . . . . J $ $ $ $ $ 6 . . . $ $ $ $ @ 0 . . . . . z J K $ $ $ $ . . $ $ $ $ N O . . . . . z 8 = $ $ $ $ . . . . . . . . . . . . . . . . . . . . . ",
". . $ $ $ $ $ w . . . . . . $ $ $ $ $ . . . . . . . . . . $ $ $ $ . . . . . . . . $ $ $ $ ) z . . . . . . . P $ $ $ $ . . $ $ $ $ ) z . . . . . . . P $ $ $ $ . . . . . . . z / $ $ $ $ $ $ $ $ $ $ $ . . $ $ $ $ . . . . . . . . . . . . . . . . . . . Q $ $ $ $ t u . . . . . . . . . . . . . . . . . . . . R $ $ $ $ S . . . . $ $ $ $ T . . . . . . . . P $ $ $ $ . . $ $ $ $ U . . . . . . . . V $ $ $ $ . . . . . . . . . . . . . . . . . . . . . ",
". . $ $ $ $ $ . . . . . . . $ $ $ $ $ . . . . . . . . . . $ $ $ $ . . . . . . . . _ 7 $ 7 k . . . . . . . . J $ $ $ $ . . _ 7 $ 7 W . . . . . . . . J $ $ $ $ . . . . . . u A $ $ $ $ $ $ D ^ $ $ $ $ . . $ $ $ $ c < . . . . . . . . . . . . . . . . . X $ $ $ $ Y . . . . . . . . . . . . . . . . . . . . Z $ $ $ $ $ r . . . . $ $ $ $ n . . . . . . . . J $ $ $ $ . . $ $ $ $ ` . . . . . . . .  .$ $ $ $ . . . . . . . . . . . . . . . . . . . . . ",
". . $ $ $ $ $ . . . . . . . $ $ $ $ $ . . . . . . . . . . $ $ $ $ . . . . . . . . . . . . . . . . . . . ..R $ $ $ $ $ . . . . . . . . . . . . . ..R $ $ $ $ $ . . . . . C y $ $ $ $ $ $ q z +.$ $ $ $ . . $ $ $ $ $ $ $ $ $ $ $ 7 @.... . . . . . . . #.$ $ $ $ $ $.. . . . . . . . . . . . . . . . . . . . W $ $ $ $ % 0 . . . . $ $ $ $ $ o F . . . . ..R $ $ $ $ $ . . $ $ $ $ $ _ F . . . . . %.g $ $ $ $ . . . . . . . . . . . . . . . . . . . . . ",
". . $ $ $ $ $ . . . . . . . $ $ $ $ $ . . . . . . . . . . $ $ $ $ . . . . . . . . . . . . . . . . . u r } $ $ $ $ $ X . . . . . . . . . . . u r } $ $ $ $ $ X . . . . I B $ $ $ $ $ $ q . . . $ $ $ $ . . $ $ $ $ $ $ $ $ $ $ i $ $ } x . . . . . . . _ $ $ $ $ 5 . . . . . . . . . . . . . . . . . . . . + D $ $ $ $ b . . . . . l $ $ $ $ $ &.s . u *.} $ $ $ $ $ X . . l $ $ $ $ $ 5 G 0 . %.=.N $ $ $ $ @ . . . . . . . . . . . . . . . . . . . . . ",
". . $ $ $ $ $ . . m # m . . $ $ $ $ $ . . . . . . . . . . $ $ $ $ . . . . . . . . . . . . -.} $ $ $ $ $ $ $ $ $ $ = ;.. . . . . . . . >.X $ $ $ $ $ $ $ i = ;.. . . + ! $ $ $ $ $ $ ,.. . . ~ $ $ $ $ . . $ $ $ $ $ $ $ $ $ $ $ $ $ $ = '.. . . . . w ) $ $ $ $ $ $ $ $ $ ).!.. . . . . . . . . . . . . . ~.$ $ $ $ 7 T . . . . . n $ $ $ $ $ $ $ $ $ $ $ $ $ $ $ = ;.. . {.$ $ $ $ $ $ $ $ $ $ $ $ $ $ $ $  .. . . . . . . . . . . . . . . . . . . . . ",
". . $ $ $ $ $ . . ) $ ) . . $ $ $ $ $ . . . . . . . . . . $ $ $ $ . . . . . . . . . . . : $ $ $ $ $ $ $ $ $ $ $ % ].. . . . . . . . . ^.$ $ $ $ $ $ $ $ % ].. . . /.5 $ $ $ $ $ $ $ $ $ $ $ $ $ $ $ $ . . $ $ $ $ $ $ $ $ $ $ $ $ $ $ $ ; >.. . . . (.$ $ $ $ $ $ $ $ $ $ $ v #.. . . . . . . . . . . . . _.$ $ $ $ ] . . . . . . . 9 $ $ $ $ $ $ $ $ $ $ $ $ $ % ].. . . . H $ $ $ $ $ i $ $ $ $ $ $ $ $ | . . . . . . . . . . . . . . . . . . . . . . ",
". . $ $ $ $ $ . . $ $ $ . . $ $ $ $ $ . . . . . . . . . . $ $ $ $ . . . . . . . . . . W $ $ $ $ $ $ $ $ $ $ $ % ].. . . . . . . . . . :.$ $ $ $ $ $ $ $ <.. . . . _ $ $ $ $ $ $ $ $ $ $ $ $ $ $ $ $ $ . . [.$ $ $ $ $ $ $ $ $ $ $ $ $ $ $ }.w . . . N $ $ $ $ $ $ $ $ $ $ $ $ v #.. . . . . . . . . . . |.$ $ $ $ $ 1.. . . . . . . . ! $ $ $ $ $ $ $ $ $ $ $ $ <.. . . . . . b $ $ $ $ $ $ $ $ $ $ $ $ $ <.. . . . . . . . . . . . . . . . . . . . . . ",
". . $ $ $ $ $ . . ) $ ) . . $ $ $ $ $ . . . . . . . . . . $ $ $ $ . . . . . . . . . h $ $ $ $ $ $ $ $ $ $ $ % ].. . . . . . . . . . . ^.$ $ $ $ $ $ $ $ # > . . . # $ $ $ $ $ $ $ $ $ $ $ $ $ $ $ $ $ . . . . . . . . . . . z 2.^ $ $ $ $ $ 5 . . 3.$ $ $ $ $ $ $ $ $ $ $ $ $ $ v #.. . . . . . . . . . @ $ $ $ $ ; . . . . . . . . 4.$ $ $ $ $ $ $ $ $ $ $ $ $ # > . . . . . . 5.$ $ $ $ $ $ $ $ $ $ $ } C . . . . . . . . . . . . . . . . . . . . . . ",
". . $ $ $ $ $ . . m v m . . $ $ $ $ $ . . . . . . . . . . $ $ $ $ . . . . . . . . [ $ $ $ $ $ $ $ $ $ $ $ @.~ . . . . . . . . . . . . >.K $ $ $ $ $ $ $ $ v 6.. . }.$ $ $ $ $ $ $ $ $ $ $ $ $ $ $ $ $ . . . . . . . . . . . . . 7.8.$ $ $ $ $ . . q $ $ $ $ $ $ $ $ $ $ $ $ $ $ $ v 6.. . . . . . . . +.v $ $ $ $ (.. . . . . . . 2 $ $ $ $ $ $ $ $ $ $ $ $ $ $ $ v 6.. . . . . . 9.8.$ $ $ $ $ $ $ $ $ 0.. . . . . . . . . . . . . . . . . . . . . . . ",
". . $ $ $ $ $ . . . . . . . $ $ $ $ $ . . . . . . . . . . $ $ $ $ . . . . . . . . } $ $ $ $ $ q P . . . . . . . . . . . . . . . . . . . . . z a.X $ $ $ $ $ b.. .  .5 7 $ $ $ $ $ $ $ $ $ $ $ $ $ $ $ . . . . . . . . . . . . . . + 4.$ $ $ $ . . } $ $ $ $ 5 c.u . C =.X $ $ $ $ $ b.. . . . . . . . d.$ $ $ $ # e.. . . . . . . } $ $ $ $ 5 c.u . %.f.X $ $ $ $ $ b.. . . . . . . . . . . g.$ $ $ $ $ Z . . . . . . . . . . . . . . . . . . . . . . . ",
". . $ $ $ $ $ . . . . . . . $ $ $ $ $ . . . . . . . . . . $ $ $ $ . . . . . . . . $ $ $ $ } 1 . . . . . . . . . . . . . . +.3.3.+.. . . . . . . T W ) $ $ $ $ . . . . . . . . . . . . . . z h.$ $ $ $ . . I i.|.j.F . . . . . . . . u $ $ $ $ . . $ $ $ $ ] < . . . . . k.] $ $ $ $ $ . . . . . . . . l.$ $ $ $ a . . . . . . . . $ $ $ $ ] < . . . . . T W ) $ $ $ $ . . . . . . . . . . . @ $ $ $ $ @.. . . . . . . . . . . . . . . . . . . . . . . . ",
". . $ $ $ $ $ . . . . . . . $ $ $ $ $ . . . . . . . . . . $ $ $ $ . . . . . . . . $ $ $ $ m.. . . . . . . . . . . . . . . ).$ $ X . . . . . . . . . O $ $ $ $ . . . . . . . . . . . . . . . < $ $ $ $ . . _.$ $ $ | . . . . . . . . . $ $ $ $ . . $ $ $ $ U . . . . . . . . *.$ $ $ $ . . . . . . . a.$ $ $ $ $ j.. . . . . . . . $ $ $ $ U . . . . . . . . O $ $ $ $ . . . . . . . . . . e.v $ $ $ $ n.. . . . . . . . . . . . . . . . . . . . . . . . ",
". . $ $ $ $ $ P . . . . . 0 $ $ $ $ $ . . . . . . . . . . $ $ $ $ . . . . . . . . $ $ $ $ . . . . . . . . . . . . . . . . $ $ $ $ j.. . . . . . . . |.$ $ $ $ . . . . . . . . . . . . . . . . $ $ $ $ . . $ $ $ $ $ o.. . . . . . . p.$ $ $ $ . . $ $ $ $ m.. . . . . . . . q.$ $ $ $ . . . . . . . _ $ $ $ $ @.. . . . . . . . . $ $ $ $ E . . . . . . . . |.$ $ $ $ . . . . . . . . . . r.$ $ $ $ # /.. . . . . . . . . . . . . . . . . . . . . . . . ",
". . $ $ $ $ $ q . . . . . L $ $ $ $ $ . . . . . . . . . < $ $ $ $ 0 . . . . . . . $ $ $ $ . . . . . . . . . . . . . . . . $ $ $ $ } 1 . . . . . s.0.v $ $ $ $ . . . . . . . . . . . . . . . . $ $ $ $ . . $ $ $ $ $ k . . . . . s.k ) i $ $ $ . . $ $ $ $ } 9 . . . . . s.k ) $ $ $ $ . . . . . . s.^ $ $ $ $ ` . . . . . . . . . $ $ $ $ t ~.. . . . . s.0.v $ $ $ $ . . . . . . . . . . _.$ $ $ $ t.. . . . . . . . . . . . . . . . . . . . . . . . . ",
". . } $ $ $ $ $ h u.. < q.; $ $ $ $ $ . . . . . . . . F d.$ $ $ $ h.F . . . . . . $ $ $ $ v.z . . . . . . . . . . . . . . } $ $ $ $ $ h u.. < q.; $ $ $ $ $ b.. . . . . . . . . . . . . . . . $ $ $ $ . . } $ $ $ $ $ h u.. < q.; $ $ $ $ $ b.. . } $ $ $ $ $ h u.. < q.; $ $ $ $ $ b.. . . . . . w.$ $ $ $ } C . . . . . . . . . } $ $ $ $ $ h u.. < q.; $ $ $ $ $ b.. . . . . . . . . E $ $ $ $ $ O . . . . . . . . . . . . . . . . . . . . . . . . . ",
". . [ $ $ $ $ $ $ $ $ $ $ $ $ $ $ $ b.. . . . . W 7 $ $ $ $ $ $ $ $ $ $ 7 4.. . . $ $ $ $ $ $ $ $ $ $ $ $ $ $ $ $ $ x.. . [ $ $ $ $ $ $ $ $ $ $ $ $ $ $ $ v 3 . . . . . . . . . . . . . . . . $ $ $ $ . . [ $ $ $ $ $ $ $ $ $ $ $ $ $ $ $ v 3 . . [ $ $ $ $ $ $ $ $ $ $ $ $ $ $ $ v 3 . . . . . . K $ $ $ $ d . . . . . . . . . . [ $ $ $ $ $ $ $ $ $ $ $ $ $ $ $ v 3 . . . . . . . . . q $ $ $ $ l.. . . . . . . . . . . . . . . . . . . . . . . . . . ",
". . . h $ $ $ $ $ $ $ $ $ $ $ $ $ v #.. . . . . $ $ $ $ $ $ $ $ $ $ $ $ $ $ . . . $ $ $ $ $ $ $ $ $ $ $ $ $ $ $ $ $ $ . . . h $ $ $ $ $ $ $ $ $ $ $ $ $ v #.. . . . . . . . . . . . . . . . . $ $ $ $ . . . h $ $ $ $ $ $ $ $ $ $ $ $ $ v #.. . . . h $ $ $ $ $ $ $ $ $ $ $ $ $ v #.. . . . . . V $ $ $ $ $ y.. . . . . . . . . . . h $ $ $ $ $ $ $ $ $ $ $ $ $ v #.. . . . . . . . . + D $ $ $ $ d.. . . . . . . . . . . . . . . . . . . . . . . . . . ",
". . . . W $ $ $ $ $ $ $ $ $ $ $ v #.. . . . . . $ $ $ $ $ $ $ $ $ $ $ $ $ $ . . . $ $ $ $ $ i $ $ $ $ $ $ $ $ $ $ $ $ . . . . W $ $ $ $ $ $ $ $ $ $ $ v #.. . . . . . . . . . . . . . . . . . $ $ $ $ . . . . W $ $ $ $ $ $ $ $ $ $ $ v #.. . . . . . W $ $ $ $ $ $ $ $ $ $ $ v #.. . . . . . . z $ $ $ $ [.. . . . . . . . . . . . . W $ $ $ $ $ $ $ $ $ $ $ v #.. . . . . . . . . . u.$ $ $ $ ) >.. . . . . . . . . . . . . . . . . . . . . . . . . . ",
". . . . . : $ $ $ $ $ $ $ $ $ v #.. . . . . . . $ $ $ $ $ $ $ $ $ $ $ $ $ $ . . . $ $ $ $ $ $ $ $ $ $ $ $ $ $ $ $ $ $ . . . . . : $ $ $ $ $ $ $ $ $ v #.. . . . . . . . . . . . . . . . . . . $ $ $ $ . . . . . : $ $ $ $ $ $ $ $ $ v #.. . . . . . . . : $ $ $ $ $ $ $ $ $ v #.. . . . . . . . . $ $ $ $ z.. . . . . . . . . . . . . . : $ $ $ $ $ $ $ $ $ v #.. . . . . . . . . . . . - $ $ $ _ . . . . . . . . . . . . . . . . . . . . . . . . . . . ",
". . . . . . 2 } $ $ $ $ $ $ l.g.. . . . . . . . @ $ $ $ $ $ $ $ $ $ $ $ $ @ . . . / $ $ $ $ $ $ $ $ $ $ $ $ $ $ $ $ _ . . . . . . 2 } $ $ $ $ $ $ l.g.. . . . . . . . . . . . . . . . . . . . &.$ $ &.. . . . . . 2 } $ $ $ $ $ $ l.g.. . . . . . . . . . 2 } $ $ $ $ $ $ l.g.. . . . . . . . . . &.$ $ &.. . . . . . . . . . . . . . . . 2 } $ $ $ $ $ $ l.g.. . . . . . . . . . . . . . *.l.b.A.. . . . . . . . . . . . . . . . . . . . . . . . . . . ",
". . . . . . . . . . . . . . . . . . . . . . . . . . . . . . . . . . . . . . . . . . . . . . . . . . . . . . . . . . . . . . . . . . . . . . . . . . . . . . . . . . . . . . . . . . . . . . . . . . . . . . . . . . . . . . . . . . . . . . . . . . . . . . . . . . . . . . . . . . . . . . . . . . . . . . . . . . . . . . . . . . . . . . . . . . . . . . . . . . . . . . . . . . . . . . . . . . . . . . . . . . . . . . . . . . . . . . . . . . . . ",
". . . . . . . . . . . . . . . . . . . . . . . . . . . . . . . . . . . . . . . . . . . . . . . . . . . . . . . . . . . . . . . . . . . . . . . . . . . . . . . . . . . . . . . . . . . . . . . . . . . . . . . . . . . . . . . . . . . . . . . . . . . . . . . . . . . . . . . . . . . . . . . . . . . . . . . . . . . . . . . . . . . . . . . . . . . . . . . . . . . . . . . . . . . . . . . . . . . . . . . . . . . . . . . . . . . . . . . . . . . . ",
". . . . . . . . . . . . . . . . . . . . . . . . . . . . . . . . . . . . . . . . . . . . . . . . . . . . . . . . . . . . . . . . . . . . . . . . . . . . . . . . . . . . . . . . . . . . . . . . . . . . . . . . . . . . . . . . . . . . . . . . . . . . . . . . . . . . . . . . . . . . . . . . . . . . . . . . . . . . . . . . . . . . . . . . . . . . . . . . . . . . . . . . . . . . . . . . . . . . . . . . . . . . . . . . . . . . . . . . . . . . "};
