/* XPM */
static char * chiffres_bleu_xpm[] = {
"220 32 197 2",
"  	c None",
". 	c #FFFFFF",
"+ 	c #F6F6FF",
"@ 	c #6367FF",
"# 	c #0F16FF",
"$ 	c #0008FF",
"% 	c #0108FF",
"& 	c #2228FF",
"* 	c #A4A6FF",
"= 	c #A7A9FF",
"- 	c #2127FF",
"; 	c #5A5FFF",
"> 	c #0209FF",
", 	c #2E34FF",
"' 	c #C4C5FF",
") 	c #9396FF",
"! 	c #0A11FF",
"~ 	c #464BFF",
"{ 	c #E3E3FF",
"] 	c #6165FF",
"^ 	c #5D62FF",
"/ 	c #080FFF",
"( 	c #5B60FF",
"_ 	c #DDDEFF",
": 	c #5E63FF",
"< 	c #6F73FF",
"[ 	c #FDFDFF",
"} 	c #8588FF",
"| 	c #141BFF",
"1 	c #454AFF",
"2 	c #9C9FFF",
"3 	c #888BFF",
"4 	c #B6B8FF",
"5 	c #7D81FF",
"6 	c #4247FF",
"7 	c #E2E2FF",
"8 	c #050CFF",
"9 	c #A3A5FF",
"0 	c #9DA0FF",
"a 	c #FEFEFF",
"b 	c #696DFF",
"c 	c #8A8DFF",
"d 	c #060DFF",
"e 	c #ADAFFF",
"f 	c #777BFF",
"g 	c #040BFF",
"h 	c #8083FF",
"i 	c #4A4FFF",
"j 	c #6D71FF",
"k 	c #6569FF",
"l 	c #1219FF",
"m 	c #030AFF",
"n 	c #7175FF",
"o 	c #1F26FF",
"p 	c #8285FF",
"q 	c #ABADFF",
"r 	c #6468FF",
"s 	c #0D14FF",
"t 	c #6064FF",
"u 	c #9194FF",
"v 	c #6B6FFF",
"w 	c #B8BAFF",
"x 	c #E4E4FF",
"y 	c #1920FF",
"z 	c #FBFBFF",
"A 	c #787CFF",
"B 	c #0C13FF",
"C 	c #F1F1FF",
"D 	c #DBDCFF",
"E 	c #5257FF",
"F 	c #FCFCFF",
"G 	c #5459FF",
"H 	c #4B50FF",
"I 	c #F9F9FF",
"J 	c #161DFF",
"K 	c #1017FF",
"L 	c #D1D2FF",
"M 	c #FAFAFF",
"N 	c #D4D5FF",
"O 	c #9497FF",
"P 	c #F8F8FF",
"Q 	c #A6A8FF",
"R 	c #262CFF",
"S 	c #5F64FF",
"T 	c #EAEAFF",
"U 	c #B0B2FF",
"V 	c #343AFF",
"W 	c #CCCDFF",
"X 	c #E7E7FF",
"Y 	c #0910FF",
"Z 	c #8C8FFF",
"` 	c #3E44FF",
" .	c #4F54FF",
"..	c #EBEBFF",
"+.	c #E8E8FF",
"@.	c #E0E0FF",
"#.	c #070EFF",
"$.	c #6E72FF",
"%.	c #555AFF",
"&.	c #292FFF",
"*.	c #797DFF",
"=.	c #D6D7FF",
"-.	c #A5A7FF",
";.	c #DFE0FF",
">.	c #D5D6FF",
",.	c #5055FF",
"'.	c #6C70FF",
").	c #F2F2FF",
"!.	c #3C42FF",
"~.	c #C3C4FF",
"{.	c #DCDDFF",
"].	c #2329FF",
"^.	c #F7F7FF",
"/.	c #474CFF",
"(.	c #151CFF",
"_.	c #4146FF",
":.	c #4D52FF",
"<.	c #B9BBFF",
"[.	c #2026FF",
"}.	c #C0C1FF",
"|.	c #3339FF",
"1.	c #8386FF",
"2.	c #8689FF",
"3.	c #D8D9FF",
"4.	c #F0F0FF",
"5.	c #2A30FF",
"6.	c #6A6EFF",
"7.	c #E6E6FF",
"8.	c #2C32FF",
"9.	c #C8C9FF",
"0.	c #9EA1FF",
"a.	c #AAACFF",
"b.	c #E1E1FF",
"c.	c #BEC0FF",
"d.	c #F5F5FF",
"e.	c #979AFF",
"f.	c #363CFF",
"g.	c #5C61FF",
"h.	c #BBBDFF",
"i.	c #A9ABFF",
"j.	c #585DFF",
"k.	c #3D43FF",
"l.	c #CFD0FF",
"m.	c #C5C6FF",
"n.	c #AFB1FF",
"o.	c #4348FF",
"p.	c #D0D1FF",
"q.	c #666AFF",
"r.	c #7074FF",
"s.	c #7F83FF",
"t.	c #282EFF",
"u.	c #B7B9FF",
"v.	c #B1B3FF",
"w.	c #1118FF",
"x.	c #878AFF",
"y.	c #898CFF",
"z.	c #7276FF",
"A.	c #C6C7FF",
"B.	c #171EFF",
"C.	c #4449FF",
"D.	c #CDCEFF",
"E.	c #9699FF",
"F.	c #F3F3FF",
"G.	c #BDBFFF",
"H.	c #C9CAFF",
"I.	c #989BFF",
"J.	c #D2D3FF",
"K.	c #D3D4FF",
"L.	c #ECECFF",
"M.	c #2F35FF",
"N.	c #3B41FF",
"O.	c #D7D8FF",
"P.	c #2B31FF",
"Q.	c #9FA2FF",
"R.	c #F4F4FF",
"S.	c #CACBFF",
"T.	c #CBCCFF",
"U.	c #9A9DFF",
"V.	c #0E15FF",
"W.	c #EEEEFF",
"X.	c #7377FF",
"Y.	c #181FFF",
"Z.	c #353BFF",
"`.	c #686CFF",
" +	c #E9E9FF",
".+	c #9598FF",
"++	c #A2A4FF",
"@+	c #8E91FF",
"#+	c #676BFF",
"$+	c #272DFF",
"%+	c #3137FF",
"&+	c #DEDFFF",
"*+	c #EDEDFF",
"=+	c #3036FF",
"-+	c #6266FF",
";+	c #4C51FF",
">+	c #CECFFF",
". . . . . . . . . . . . . . . . . . . . . . . . . . . . . . . . . . . . . . . . . . . . . . . . . . . . . . . . . . . . . . . . . . . . . . . . . . . . . . . . . . . . . . . . . . . . . . . . . . . . . . . . . . . . . . . . . . . . . . . . . . . . . . . . . . . . . . . . . . . . . . . . . . . . . . . . . . . . . . . . . . . . . . . . . . . . . . . . . . . . . . . . . . . . . . . . . . . . . . . . . . . . . . . . . . . . . . . . . . . . ",
". . . . . . . . . . . . . . . . . . . . . . . . . . . . . . . . . . . . . . . . . . . . . . . . . . . . . . . . . . . . . . . . . . . . . . . . . . . . . . . . . . . . . . . . . . . . . . . . . . . . . . . . . . . . . . . . . . . . . . . . . . . . . . . . . . . . . . . . . . . . . . . . . . . . . . . . . . . . . . . . . . . . . . . . . . . . . . . . . . . . . . . . . . . . . . . . . . . . . . . . . . . . . . . . . . . . . . . . . . . . ",
". . . . . + @ # $ $ $ $ $ % & * . . . . . . . . . . = - $ $ $ % ; . . . . . . . . . . . + @ # $ $ $ $ $ > , ' . . . . . . . . . + @ # $ $ $ $ $ % & * . . . . . . . . . . . . . . . . . . . ) & ! ~ { . . ; > $ $ $ $ $ $ $ $ $ $ $ $ $ $ > ] . . . . . . . . ^ / ( _ . . . . . . . . . . : % $ $ $ $ $ $ $ $ $ $ $ $ $ # < [ . . . . . . } | $ $ $ $ $ % & * . . . . . . . . . + @ # $ $ $ $ $ % & * . . . . . . . . . . . . . . . . . . . . . . . . . ",
". . . . + 1 $ $ $ $ $ $ $ $ $ % 2 . . . . . . . . 3 $ $ $ $ $ $ % . . . . . . . . . . + 1 $ $ $ $ $ $ $ $ $ / 4 . . . . . . . + 1 $ $ $ $ $ $ $ $ $ % 2 . . . . . . . . . . . . . . . . . 5 $ $ $ $ 6 . . % $ $ $ $ $ $ $ $ $ $ $ $ $ $ $ $ > . . . . . . . 7 > $ $ 8 9 . . . . . . . . . > $ $ $ $ $ $ $ $ $ $ $ $ $ $ $ $ 0 . . . . a b $ $ $ $ $ $ $ $ $ % 2 . . . . . . . + 1 $ $ $ $ $ $ $ $ $ % 2 . . . . . . . . . . . . . . . . . . . . . . . . ",
". . . + 1 $ $ $ $ $ $ $ $ $ $ $ % 0 . . . . . . c $ $ $ $ $ $ $ $ . . . . . . . . . + 1 $ $ $ $ $ $ $ $ $ $ $ d e . . . . . + 1 $ $ $ $ $ $ $ $ $ $ $ % 0 . . . . . . . . . . . . . . . f $ $ $ $ $ g . . $ $ $ $ $ $ $ $ $ $ $ $ $ $ $ $ $ $ . . . . . . . h $ $ $ $ i . . . . . . . . . $ $ $ $ $ $ $ $ $ $ $ $ $ $ $ $ $ j . . . a k $ $ $ $ $ $ $ $ $ $ $ % 0 . . . . . + 1 $ $ $ $ $ $ $ $ $ $ $ % 0 . . . . . . . . . . . . . . . . . . . . . . . ",
". . + 1 $ $ $ $ $ $ $ $ $ $ $ $ $ % 0 . . . . . l $ $ $ $ $ $ $ $ . . . . . . . . + 1 $ $ $ $ $ $ $ $ $ $ $ $ $ m 9 . . . + 1 $ $ $ $ $ $ $ $ $ $ $ $ $ % 0 . . . . . . . . . . . . . n $ $ $ $ $ $ $ . . $ $ $ $ $ $ $ $ $ $ $ $ $ $ $ $ $ > . . . . . . [ o $ $ $ $ p . . . . . . . . . > $ $ $ $ $ $ $ $ $ $ $ $ $ $ $ $ q . . [ ] $ $ $ $ $ $ $ $ $ $ $ $ $ % 0 . . . + 1 $ $ $ $ $ $ $ $ $ $ $ $ $ % 0 . . . . . . . . . . . . . . . . . . . . . . ",
". . r $ $ $ $ $ $ $ $ $ $ $ $ $ $ $ s . . . . . t g $ $ $ $ $ $ $ . . . . . . . . r $ $ $ $ $ $ $ $ $ $ $ $ $ $ $ % u . . r $ $ $ $ $ $ $ $ $ $ $ $ $ $ $ % u . . . . . . . . . . a v $ $ $ $ $ $ $ $ . . $ $ $ $ $ $ $ $ $ $ $ $ $ $ $ $ m k . . . . . . w $ $ $ $ m x . . . . . . . . . ( % $ $ $ $ $ $ $ $ $ $ $ $ $ $ y z . . A $ $ $ $ $ $ $ $ $ $ $ $ $ $ $ % u . . r $ $ $ $ $ $ $ $ $ $ $ $ $ $ $ % u . . . . . . . . . . . . . . . . . . . . . ",
". . B $ $ $ $ d 2 C . [ D E $ $ $ $ % . . . . . . . . . . $ $ $ $ . . . . . . . . B $ $ $ $ d 2 C . [ D E $ $ $ $ $ B . . B $ $ $ $ d 2 C . [ D E $ $ $ $ $ B . . . . . . . . . a k $ $ $ $ $ $ $ $ $ . . $ $ $ $ q F . . . . . . . . . . . . . . . . . . G $ $ $ $ H . . . . . . . . . . . . . . . . . . . . I J $ $ $ $ 5 . . . K $ $ $ $ H L F . M N E $ $ $ $ $ B . . B $ $ $ $ d 2 C . [ D E $ $ $ $ $ B . . . . . . . . . . . . . . . . . . . . . ",
". . $ $ $ $ $ O . . . . . P $ $ $ $ $ . . . . . . . . . . $ $ $ $ . . . . . . . . $ $ $ $ $ 0 . . . . . F Q R $ $ $ $ . . $ $ $ $ $ 0 . . . . . F Q R $ $ $ $ . . . . . . . . [ S $ $ $ $ $ $ $ $ $ $ . . $ $ $ $ . . . . . . . . . . . . . . . . . . . T d $ $ $ $ U . . . . . . . . . . . . . . . . . . . . Q $ $ $ $ m 7 . . . $ $ $ $ r a . . . . . F Q R $ $ $ $ . . $ $ $ $ V W . . . . . F 9 - $ $ $ $ . . . . . . . . . . . . . . . . . . . . . ",
". . $ $ $ $ $ C . . . . . . $ $ $ $ $ . . . . . . . . . . $ $ $ $ . . . . . . . . > $ $ $ ! F . . . . . . . X $ $ $ $ . . > $ $ $ Y F . . . . . . . X $ $ $ $ . . . . . . . F ( $ $ $ $ $ $ $ $ $ $ $ . . $ $ $ $ . . . . . . . . . . . . . . . . . . . Z $ $ $ $ y z . . . . . . . . . . . . . . . . . . . . ` $ $ $ $  .. . . . $ $ $ $ ... . . . . . . . X $ $ $ $ . . $ $ $ $ +.. . . . . . . . @.$ $ $ $ . . . . . . . . . . . . . . . . . . . . . ",
". . $ $ $ $ $ . . . . . . . $ $ $ $ $ . . . . . . . . . . $ $ $ $ . . . . . . . . S d m #.n . . . . . . . . Q $ $ $ $ . . S d m #.$.. . . . . . . . Q $ $ $ $ . . . . . . z %.$ $ $ $ $ $ K / $ $ $ $ . . $ $ $ $ e [ . . . . . . . . . . . . . . . . . &.$ $ $ $ *.. . . . . . . . . . . . . . . . . . . . =.$ $ $ $ $ w . . . . $ $ $ $ q . . . . . . . . Q $ $ $ $ . . $ $ $ $ -.. . . . . . . . ;.$ $ $ $ . . . . . . . . . . . . . . . . . . . . . ",
". . $ $ $ $ $ . . . . . . . $ $ $ $ $ . . . . . . . . . . $ $ $ $ . . . . . . . . . . . . . . . . . . . >.` $ $ $ $ $ . . . . . . . . . . . . . >.` $ $ $ $ $ . . . . . I ,.$ $ $ $ $ $ '.F ).$ $ $ $ . . $ $ $ $ $ $ $ $ $ $ $ 8 !.>.. . . . . . . . ~.$ $ $ $ % {.. . . . . . . . . . . . . . . . . . . . $.$ $ $ $ ].a . . . . $ $ $ $ % t M . . . . >.` $ $ $ $ $ . . $ $ $ $ % S M . . . . . ^./.$ $ $ $ . . . . . . . . . . . . . . . . . . . . . ",
". . $ $ $ $ $ . . . . . . . $ $ $ $ $ . . . . . . . . . . $ $ $ $ . . . . . . . . . . . . . . . . . z w (.$ $ $ $ $ &.. . . . . . . . . . . z w (.$ $ $ $ $ &.. . . . P H $ $ $ $ $ $ '.. . . $ $ $ $ . . $ $ $ $ $ $ $ $ $ $ $ $ $ J D . . . . . . . S $ $ $ $ _.. . . . . . . . . . . . . . . . . . . . + K $ $ $ $ c . . . . . o $ $ $ $ $ :.x . z <.(.$ $ $ $ $ &.. . [.$ $ $ $ $ _.N a . ^.}.|.$ $ $ $ k . . . . . . . . . . . . . . . . . . . . . ",
". . $ $ $ $ $ . . p s 1.. . $ $ $ $ $ . . . . . . . . . . $ $ $ $ . . . . . . . . . . . . 2.| $ $ $ $ $ $ $ $ $ $ - 3.. . . . . . . . 4.5.$ $ $ $ $ $ $ $ - 3.. . . + ~ $ $ $ $ $ $ 6.. . . { $ $ $ $ . . $ $ $ $ $ $ $ $ $ $ $ $ $ $ - 7.. . . . . C ! $ $ $ $ $ $ $ $ % 8.9.. . . . . . . . . . . . . . 0.$ $ $ $ #.... . . . . q % $ $ $ $ $ $ $ $ $ $ $ $ $ $ - 3.. . a.% $ $ $ $ $ $ $ $ $ $ $ $ $ $ % ;.. . . . . . . . . . . . . . . . . . . . . ",
". . $ $ $ $ $ . . Y $ Y . . $ $ $ $ $ . . . . . . . . . . $ $ $ $ . . . . . . . . . . . < $ $ $ $ $ $ $ $ $ $ $ & b.. . . . . . . . . c.$ $ $ $ $ $ $ $ & b.. . . d.6 $ $ $ $ $ $ $ $ $ $ $ $ $ $ $ $ . . % $ $ $ $ $ $ $ $ $ $ $ $ $ $ , 4.. . . . e.$ $ $ $ $ $ $ $ $ $ $ B ~.. . . . . . . . . . . . . f.$ $ $ $ g.. . . . . . . 0 % $ $ $ $ $ $ $ $ $ $ $ $ & b.. . . . O $ $ $ $ $ $ $ $ $ $ $ $ $ $ 1 . . . . . . . . . . . . . . . . . . . . . . ",
". . $ $ $ $ $ . . $ $ $ . . $ $ $ $ $ . . . . . . . . . . $ $ $ $ . . . . . . . . . . $.$ $ $ $ $ $ $ $ $ $ $ & b.. . . . . . . . . . h.$ $ $ $ $ $ $ $ i.. . . . : $ $ $ $ $ $ $ $ $ $ $ $ $ $ $ $ $ . . j.% $ $ $ $ $ $ $ $ $ $ $ $ $ $ k.C . . . |.$ $ $ $ $ $ $ $ $ $ $ $ B ~.. . . . . . . . . . . l.$ $ $ $ $ m.. . . . . . . . ~ $ $ $ $ $ $ $ $ $ $ $ $ i.. . . . . . c $ $ $ $ $ $ $ $ $ $ $ $ $ i.. . . . . . . . . . . . . . . . . . . . . . ",
". . $ $ $ $ $ . . Y $ Y . . $ $ $ $ $ . . . . . . . . . . $ $ $ $ . . . . . . . . . j $ $ $ $ $ $ $ $ $ $ $ & b.. . . . . . . . . . . c.$ $ $ $ $ $ $ $ s ' . . . s $ $ $ $ $ $ $ $ $ $ $ $ $ $ $ $ $ . . . . . . . . . . . F n./ $ $ $ $ $ o.. . p.$ $ $ $ $ $ $ $ $ $ $ $ $ $ B ~.. . . . . . . . . . q.$ $ $ $ , . . . . . . . . r.$ $ $ $ $ $ $ $ $ $ $ $ $ s ' . . . . . . s.$ $ $ $ $ $ $ $ $ $ $ | I . . . . . . . . . . . . . . . . . . . . . . ",
". . $ $ $ $ $ . . p B 1.. . $ $ $ $ $ . . . . . . . . . . $ $ $ $ . . . . . . . . } $ $ $ $ $ $ $ $ $ $ > !.{ . . . . . . . . . . . . 4.t.$ $ $ $ $ $ $ $ B u.. . k.$ $ $ $ $ $ $ $ $ $ $ $ $ $ $ $ $ . . . . . . . . . . . . . v.w.$ $ $ $ > . . v $ $ $ $ $ $ $ $ $ $ $ $ $ $ $ B u.. . . . . . . . ).B $ $ $ $ e.. . . . . . . x.$ $ $ $ $ $ $ $ $ $ $ $ $ $ $ B u.. . . . . . y.w.$ $ $ $ $ $ $ $ $ z.. . . . . . . . . . . . . . . . . . . . . . . ",
". . $ $ $ $ $ . . . . . . . $ $ $ $ $ . . . . . . . . . . $ $ $ $ . . . . . . . . | $ $ $ $ $ '.X . . . . . . . . . . . . . . . . . . . . . F A.5.$ $ $ $ $ B.. . ;.o.#.$ $ $ $ $ $ $ $ $ $ $ $ $ $ $ . . . . . . . . . . . . . . + r.$ $ $ $ . . | $ $ $ $ C.D.z . I }.&.$ $ $ $ $ B.. . . . . . . . E.$ $ $ $ s F.. . . . . . . | $ $ $ $ C.D.z . ^.G.&.$ $ $ $ $ B.. . . . . . . . . . . H.$ $ $ $ $ =.. . . . . . . . . . . . . . . . . . . . . . . ",
". . $ $ $ $ $ . . . . . . . $ $ $ $ $ . . . . . . . . . . $ $ $ $ . . . . . . . . $ $ $ $ J 2 . . . . . . . . . . . . . . ).p.p.).. . . . . . . ..$.Y $ $ $ $ . . . . . . . . . . . . . . F I.$ $ $ $ . . P J.l.K.M . . . . . . . . z $ $ $ $ . . $ $ $ $ g.[ . . . . . L.^ m $ $ $ $ . . . . . . . . M.$ $ $ $ b . . . . . . . . $ $ $ $ g.[ . . . . . ..$.Y $ $ $ $ . . . . . . . . . . . r $ $ $ $ N.. . . . . . . . . . . . . . . . . . . . . . . . ",
". . $ $ $ $ $ . . . . . . . $ $ $ $ $ . . . . . . . . . . $ $ $ $ . . . . . . . . $ $ $ $ O.. . . . . . . . . . . . . . . P.$ $ 5.. . . . . . . . . W $ $ $ $ . . . . . . . . . . . . . . . [ $ $ $ $ . . f.$ $ $ 1 . . . . . . . . . $ $ $ $ . . $ $ $ $ +.. . . . . . . . <.$ $ $ $ . . . . . . . A.$ $ $ $ $ K.. . . . . . . . $ $ $ $ +.. . . . . . . . W $ $ $ $ . . . . . . . . . . F.B $ $ $ $ Q.. . . . . . . . . . . . . . . . . . . . . . . . ",
". . $ $ $ $ $ X . . . . . a $ $ $ $ $ . . . . . . . . . . $ $ $ $ . . . . . . . . $ $ $ $ . . . . . . . . . . . . . . . . $ $ $ $ K.. . . . . . . . l.$ $ $ $ . . . . . . . . . . . . . . . . $ $ $ $ . . $ $ $ $ > R.. . . . . . . S.$ $ $ $ . . $ $ $ $ O.. . . . . . . . T.$ $ $ $ . . . . . . . : $ $ $ $ !.. . . . . . . . . $ $ $ $ L . . . . . . . . l.$ $ $ $ . . . . . . . . . . U.$ $ $ $ V.d.. . . . . . . . . . . . . . . . . . . . . . . . ",
". . $ $ $ $ $ '.. . . . . T $ $ $ $ $ . . . . . . . . . [ $ $ $ $ a . . . . . . . $ $ $ $ . . . . . . . . . . . . . . . . $ $ $ $ (.2 . . . . . W.X.B $ $ $ $ . . . . . . . . . . . . . . . . $ $ $ $ . . $ $ $ $ $ n . . . . . W.n Y $ $ $ $ . . $ $ $ $ J 0 . . . . . W.n ! $ $ $ $ . . . . . . W./ $ $ $ $ -.. . . . . . . . . $ $ $ $ Y.0.. . . . . W.X.B $ $ $ $ . . . . . . . . . . Z.$ $ $ $ `.. . . . . . . . . . . . . . . . . . . . . . . . . ",
". . | $ $ $ $ $ j  +. [ T., $ $ $ $ > . . . . . . . . M .+$ $ $ $ I.M . . . . . . $ $ $ $ ++F . . . . . . . . . . . . . . | $ $ $ $ $ j  +. [ T., $ $ $ $ $ B.. . . . . . . . . . . . . . . . $ $ $ $ . . | $ $ $ $ $ j  +. [ T., $ $ $ $ $ B.. . | $ $ $ $ $ j  +. [ T., $ $ $ $ $ B.. . . . . . @+$ $ $ $ (.I . . . . . . . . . | $ $ $ $ $ j  +. [ T., $ $ $ $ $ B.. . . . . . . . . L $ $ $ $ $ W . . . . . . . . . . . . . . . . . . . . . . . . . ",
". . } $ $ $ $ $ $ $ $ $ $ $ $ $ $ $ B.. . . . . $.d $ $ $ $ $ $ $ $ $ $ d r.. . . $ $ $ $ $ $ $ $ $ $ $ $ $ $ $ $ m #+. . } $ $ $ $ $ $ $ $ $ $ $ $ $ $ $ B 4 . . . . . . . . . . . . . . . . $ $ $ $ . . } $ $ $ $ $ $ $ $ $ $ $ $ $ $ $ B 4 . . } $ $ $ $ $ $ $ $ $ $ $ $ $ $ $ B 4 . . . . . . $+$ $ $ $ f . . . . . . . . . . } $ $ $ $ $ $ $ $ $ $ $ $ $ $ $ B 4 . . . . . . . . . '.$ $ $ $ %+. . . . . . . . . . . . . . . . . . . . . . . . . . ",
". . . j $ $ $ $ $ $ $ $ $ $ $ $ $ B ~.. . . . . > $ $ $ $ $ $ $ $ $ $ $ $ m . . . $ $ $ $ $ $ $ $ $ $ $ $ $ $ $ $ $ > . . . j $ $ $ $ $ $ $ $ $ $ $ $ $ B ~.. . . . . . . . . . . . . . . . . $ $ $ $ . . . j $ $ $ $ $ $ $ $ $ $ $ $ $ B ~.. . . . j $ $ $ $ $ $ $ $ $ $ $ $ $ B ~.. . . . . . @.$ $ $ $ > &+. . . . . . . . . . . j $ $ $ $ $ $ $ $ $ $ $ $ $ B ~.. . . . . . . . . + K $ $ $ $ .+. . . . . . . . . . . . . . . . . . . . . . . . . . ",
". . . . $.$ $ $ $ $ $ $ $ $ $ $ B ~.. . . . . . $ $ $ $ $ $ $ $ $ $ $ $ $ $ . . . $ $ $ $ $ $ $ $ $ $ $ $ $ $ $ $ $ $ . . . . $.$ $ $ $ $ $ $ $ $ $ $ B ~.. . . . . . . . . . . . . . . . . . $ $ $ $ . . . . $.$ $ $ $ $ $ $ $ $ $ $ B ~.. . . . . . $.$ $ $ $ $ $ $ $ $ $ $ B ~.. . . . . . . F $ $ $ $ j.. . . . . . . . . . . . . $.$ $ $ $ $ $ $ $ $ $ $ B ~.. . . . . . . . . .  +$ $ $ $ Y 4.. . . . . . . . . . . . . . . . . . . . . . . . . . ",
". . . . . < $ $ $ $ $ $ $ $ $ B ~.. . . . . . . > $ $ $ $ $ $ $ $ $ $ $ $ > . . . % $ $ $ $ $ $ $ $ $ $ $ $ $ $ $ $ > . . . . . < $ $ $ $ $ $ $ $ $ B ~.. . . . . . . . . . . . . . . . . . . % $ $ % . . . . . < $ $ $ $ $ $ $ $ $ B ~.. . . . . . . . < $ $ $ $ $ $ $ $ $ B ~.. . . . . . . . . % $ $ % *+. . . . . . . . . . . . . . < $ $ $ $ $ $ $ $ $ B ~.. . . . . . . . . . . . ; $ $ $ : . . . . . . . . . . . . . . . . . . . . . . . . . . . ",
". . . . . . x.(.$ $ $ $ $ > =+H.. . . . . . . . -+> $ $ $ $ $ $ $ $ $ $ > -+. . . ( > $ $ $ $ $ $ $ $ $ $ $ $ $ $ > S . . . . . . x.(.$ $ $ $ $ > =+H.. . . . . . . . . . . . . . . . . . . . :.$ $ ;+. . . . . . x.(.$ $ $ $ $ > =+H.. . . . . . . . . . x.(.$ $ $ $ $ > =+H.. . . . . . . . . . :.$ $ :.. . . . . . . . . . . . . . . . x.(.$ $ $ $ $ > =+H.. . . . . . . . . . . . . . <.M.B.>+. . . . . . . . . . . . . . . . . . . . . . . . . . . ",
". . . . . . . . . . . . . . . . . . . . . . . . . . . . . . . . . . . . . . . . . . . . . . . . . . . . . . . . . . . . . . . . . . . . . . . . . . . . . . . . . . . . . . . . . . . . . . . . . . . . . . . . . . . . . . . . . . . . . . . . . . . . . . . . . . . . . . . . . . . . . . . . . . . . . . . . . . . . . . . . . . . . . . . . . . . . . . . . . . . . . . . . . . . . . . . . . . . . . . . . . . . . . . . . . . . . . . . . . . . . ",
". . . . . . . . . . . . . . . . . . . . . . . . . . . . . . . . . . . . . . . . . . . . . . . . . . . . . . . . . . . . . . . . . . . . . . . . . . . . . . . . . . . . . . . . . . . . . . . . . . . . . . . . . . . . . . . . . . . . . . . . . . . . . . . . . . . . . . . . . . . . . . . . . . . . . . . . . . . . . . . . . . . . . . . . . . . . . . . . . . . . . . . . . . . . . . . . . . . . . . . . . . . . . . . . . . . . . . . . . . . . ",
". . . . . . . . . . . . . . . . . . . . . . . . . . . . . . . . . . . . . . . . . . . . . . . . . . . . . . . . . . . . . . . . . . . . . . . . . . . . . . . . . . . . . . . . . . . . . . . . . . . . . . . . . . . . . . . . . . . . . . . . . . . . . . . . . . . . . . . . . . . . . . . . . . . . . . . . . . . . . . . . . . . . . . . . . . . . . . . . . . . . . . . . . . . . . . . . . . . . . . . . . . . . . . . . . . . . . . . . . . . . "};
