/* XPM */
static char * fleche_b_xpm[] = {
"50 50 66 1",
" 	c None",
".	c #FFFFFF",
"+	c #D0A573",
"@	c #FEFEFE",
"#	c #EEE3C3",
"$	c #EADCB2",
"%	c #EBDFB9",
"&	c #ECE0BB",
"*	c #A3733D",
"=	c #9A662F",
"-	c #EADCB1",
";	c #EADDB4",
">	c #E9DBB1",
",	c #FDFDFA",
"'	c #EDE1BE",
")	c #E8DAAF",
"!	c #A67843",
"~	c #FDFCFA",
"{	c #BA9563",
"]	c #E3D2A7",
"^	c #EADCB3",
"/	c #EBDEB8",
"(	c #AE8451",
"_	c #D5BD8F",
":	c #EADCB4",
"<	c #976B48",
"[	c #A06F39",
"}	c #B18855",
"|	c #99693D",
"1	c #FDFBF7",
"2	c #9E744A",
"3	c #AA7E4A",
"4	c #BA9666",
"5	c #9B6B3D",
"6	c #FAF8F0",
"7	c #FCFBF6",
"8	c #9D744F",
"9	c #B08855",
"0	c #B5905F",
"a	c #9A6D45",
"b	c #FAF8EF",
"c	c #FCFBF7",
"d	c #A07956",
"e	c #9D7146",
"f	c #FBF9F2",
"g	c #FDFCF9",
"h	c #A57C53",
"i	c #A07241",
"j	c #FBF9F3",
"k	c #A88056",
"l	c #A27548",
"m	c #FCFAF5",
"n	c #AC8761",
"o	c #A47B50",
"p	c #FEFDFB",
"q	c #AD8960",
"r	c #A47849",
"s	c #AE875A",
"t	c #A57847",
"u	c #FEFEFC",
"v	c #B28E64",
"w	c #9B662F",
"x	c #AA8254",
"y	c #FEFEFD",
"z	c #F8F4E8",
"A	c #F8F4E7",
"..................................................",
"..................................................",
"........+++++++++++++++++++++++++++++++++++++++++.",
".......++.......................................+.",
"......++............@@@..@@@....................+.",
".....++.............#$$$$$$%....................+.",
"....++..............&$****$$....................+.",
"...++...............&$====$$....................+.",
"..++................&$====$$....................+.",
"..+.................&$====$$....................+.",
"..+.................&$====$$....................+.",
"..+.................&$====$$....................+.",
"..+.................&$====$$....................+.",
"..+.................&$====$$....................+.",
"..+.................&$====$$....................+.",
"..+.................&$====$$....................+.",
"..+.................&$====$$....................+.",
"..+.................&$====$$....................+.",
"..+.................&$====$$....................+.",
"..+.................&$====$$....................+.",
"..+.................&$====$$....................+.",
"..+.................&$====$$....................+.",
"..+.................&$====$$....................+.",
"..+.................&$====$$....................+.",
"..+.................&$====-$....................+.",
"..+.................&$====$$....................+.",
"..+.................&$====$$....................+.",
"..+.................&$====$$....................+.",
"..+.................&$====$$....................+.",
"..+.................&$====$$....................+.",
"..+..........@$$$@..&$====$$..@$$$..............+.",
"..+..........;$$>$,.&$====$$.@$>$$$@............+.",
"..+.........'$)=!$$~&$====$$@$${=]$^@...........+.",
"..+......../]=====!>$$====$$>(=====_:...........+.",
"..+......../$<=====[$$====$$}=====|$:...........+.",
"..+........1$$2=====3$====$4=====5$$6...........+.",
"..+.........7$$8=====9====0=====a$$b............+.",
"..+..........c$$d==============e$$f@............+.",
"..+...........g$$h============i$$j..............+.",
"..+............~$$k==========l$$m...............+.",
"..+.............,$$n========o$$7................+.",
"..+..............p$$q======r$$7................++.",
"..+...............p$$s====t$$c................++..",
"..+................u$-vwwx$$~................++...",
"..+.................@$$$$$$~................++....",
"..+..................yzzAA~................++.....",
"..+.......................................++......",
"..+......................................++.......",
"..++++++++++++++++++++++++++++++++++++++++........",
".................................................."};
