/* XPM */
static char * fleche_h_xpm[] = {
"50 50 66 1",
" 	c None",
".	c #FFFFFF",
"+	c #D0A573",
"@	c #FEFEFD",
"#	c #F8F4E8",
"$	c #F8F4E7",
"%	c #FDFCFA",
"&	c #FEFEFE",
"*	c #EADCB2",
"=	c #FEFEFC",
"-	c #EADCB1",
";	c #B28E64",
">	c #9B662F",
",	c #AA8254",
"'	c #FEFDFB",
")	c #AE875A",
"!	c #9A662F",
"~	c #A57847",
"{	c #FCFBF7",
"]	c #AD8960",
"^	c #A47849",
"/	c #FCFBF6",
"(	c #FDFDFA",
"_	c #AC8761",
":	c #A47B50",
"<	c #A88056",
"[	c #A27548",
"}	c #FCFAF5",
"|	c #FDFCF9",
"1	c #A57C53",
"2	c #A07241",
"3	c #FBF9F3",
"4	c #A07956",
"5	c #9D7146",
"6	c #FBF9F2",
"7	c #9D744F",
"8	c #B08855",
"9	c #B5905F",
"0	c #9A6D45",
"a	c #FAF8EF",
"b	c #FDFBF7",
"c	c #9E744A",
"d	c #AA7E4A",
"e	c #BA9666",
"f	c #9B6B3D",
"g	c #FAF8F0",
"h	c #EBDEB8",
"i	c #976B48",
"j	c #A06F39",
"k	c #B18855",
"l	c #99693D",
"m	c #EADCB4",
"n	c #E3D2A7",
"o	c #A67843",
"p	c #E9DBB1",
"q	c #AE8451",
"r	c #D5BD8F",
"s	c #EDE1BE",
"t	c #E8DAAF",
"u	c #ECE0BB",
"v	c #BA9563",
"w	c #EADCB3",
"x	c #EADDB4",
"y	c #A3733D",
"z	c #EEE3C3",
"A	c #EBDFB9",
"..................................................",
"..................................................",
"........+++++++++++++++++++++++++++++++++++++++++.",
".......++.......................................+.",
"......++.............@##$$%.....................+.",
".....++.............&******%....................+.",
"....++.............=*-;>>,**%...................+.",
"...++.............'**)!!!!~**{..................+.",
"..++.............'**]!!!!!!^**/.................+.",
"..+.............(**_!!!!!!!!:**/................+.",
"..+............%**<!!!!!!!!!![**}...............+.",
"..+...........|**1!!!!!!!!!!!!2**3..............+.",
"..+..........{**4!!!!!!!!!!!!!!5**6&............+.",
"..+........./**7!!!!!8!!!!9!!!!!0**a............+.",
"..+........b**c!!!!!d*!!!!*e!!!!!f**g...........+.",
"..+........h*i!!!!!j**!!!!**k!!!!!l*m...........+.",
"..+........hn!!!!!op**!!!!**pq!!!!!rm...........+.",
"..+.........s*t!o**%u*!!!!**&**v!n*w&...........+.",
"..+..........x**p*(.u*!!!!**.&*p***&............+.",
"..+..........&***&..u*!!!!**..&***..............+.",
"..+.................u*!!!!**....................+.",
"..+.................u*!!!!**....................+.",
"..+.................u*!!!!**....................+.",
"..+.................u*!!!!**....................+.",
"..+.................u*!!!!**....................+.",
"..+.................u*!!!!-*....................+.",
"..+.................u*!!!!**....................+.",
"..+.................u*!!!!**....................+.",
"..+.................u*!!!!**....................+.",
"..+.................u*!!!!**....................+.",
"..+.................u*!!!!**....................+.",
"..+.................u*!!!!**....................+.",
"..+.................u*!!!!**....................+.",
"..+.................u*!!!!**....................+.",
"..+.................u*!!!!**....................+.",
"..+.................u*!!!!**....................+.",
"..+.................u*!!!!**....................+.",
"..+.................u*!!!!**....................+.",
"..+.................u*!!!!**....................+.",
"..+.................u*!!!!**....................+.",
"..+.................u*!!!!**....................+.",
"..+.................u*!!!!**...................++.",
"..+.................u*!!!!**..................++..",
"..+.................u*yyyy**.................++...",
"..+.................z******A................++....",
"..+.................&&&..&&&...............++.....",
"..+.......................................++......",
"..+......................................++.......",
"..++++++++++++++++++++++++++++++++++++++++........",
".................................................."};
