/* XPM */
static char * fleche_d_xpm[] = {
"50 50 70 1",
" 	c None",
".	c #FFFFFF",
"+	c #D0A573",
"@	c #FEFEFE",
"#	c #EADCB4",
"$	c #FAF8F0",
"%	c #EADCB3",
"&	c #E9DBB1",
"*	c #D5BD8F",
"=	c #EADCB2",
"-	c #FAF8EF",
";	c #D8C194",
">	c #9A662F",
",	c #99693D",
"'	c #FBF9F2",
")	c #E3D2A7",
"!	c #9B6B3D",
"~	c #FBF9F3",
"{	c #9A6D45",
"]	c #FCFAF5",
"^	c #BA9563",
"/	c #9D7146",
"(	c #FCFBF6",
"_	c #BB9765",
":	c #A07241",
"<	c #AE8451",
"[	c #A27548",
"}	c #FCFBF7",
"|	c #B18855",
"1	c #A47B50",
"2	c #FDFCFA",
"3	c #EBDFB9",
"4	c #BA9666",
"5	c #A47849",
"6	c #EADCB1",
"7	c #B5905F",
"8	c #A57847",
"9	c #A3733D",
"0	c #AA8254",
"a	c #F8F4E7",
"b	c #9B662F",
"c	c #F8F4E8",
"d	c #B28E64",
"e	c #B08855",
"f	c #AE875A",
"g	c #FEFEFD",
"h	c #EEE3C3",
"i	c #ECE0BB",
"j	c #AA7E4A",
"k	c #AD8960",
"l	c #A06F39",
"m	c #AC8761",
"n	c #FEFEFC",
"o	c #FDFDFA",
"p	c #A67843",
"q	c #A88056",
"r	c #FEFDFB",
"s	c #AE8350",
"t	c #A57C53",
"u	c #A07956",
"v	c #9D744F",
"w	c #E8DAAF",
"x	c #9E744A",
"y	c #FDFCF9",
"z	c #EADDB4",
"A	c #E1CEA3",
"B	c #976B48",
"C	c #EDE1BE",
"D	c #EBDEB8",
"E	c #FDFBF7",
"..................................................",
"..................................................",
"........+++++++++++++++++++++++++++++++++++++++++.",
".......++.......................................+.",
"......++........................................+.",
".....++.........................................+.",
"....++..........................................+.",
"...++...........................................+.",
"..++............................................+.",
"..+.............................................+.",
"..+.............................................+.",
"..+.............................................+.",
"..+.............................................+.",
"..+.............................................+.",
"..+............................@###$............+.",
"..+...........................@%&*==-@..........+.",
"..+...........................==;>,=='..........+.",
"..+..........................==)>>>!==~.........+.",
"..+..........................==>>>>>{==]........+.",
"..+..........................=&^>>>>>/==(.......+.",
"..+..........................@==_>>>>>:==(......+.",
"..+...........................@==<>>>>>[==}.....+.",
"..+............................@=&|>>>>>1==2....+.",
"..+@3==============================4>>>>>5==2...+.",
"..+@===================6============7>>>>>8==2..+.",
"..+@=9>>>>>>>>>>>>>>>>>>>>>>>>>>>>>>>>>>>>>0=a..+.",
"..+.=9>>>>>>>>>>>>>>>>>>>>>>>>>>>>>>>>>>>>>b=a..+.",
"..+.=9>>>>>>>>>>>>>>>>>>>>>>>>>>>>>>>>>>>>>b=c..+.",
"..+@=9>>>>>>>>>>>>>>>>>>>>>>>>>>>>>>>>>>>>>d=c..+.",
"..+@================================e>>>>>f6=g..+.",
"..+@hiiiiiiiiiiiiiiiiiiiiiiiiiiii==j>>>>>k==@...+.",
"..+............................2=&l>>>>>m==n....+.",
"..+...........................o==p>>>>>q==r.....+.",
"..+..........................@==s>>>>>t==r......+.",
"..+..........................=&p>>>>>u==o.......+.",
"..+..........................==>>>>>v==2........+.",
"..+..........................==w>>>x==y.........+.",
"..+..........................@z=A>B==}..........+.",
"..+............................C=)==(...........+.",
"..+.............................DDDE............+.",
"..+.............................................+.",
"..+............................................++.",
"..+...........................................++..",
"..+..........................................++...",
"..+.........................................++....",
"..+........................................++.....",
"..+.......................................++......",
"..+......................................++.......",
"..++++++++++++++++++++++++++++++++++++++++........",
".................................................."};
