/* XPM */
static char * fleche_g_xpm[] = {
"50 50 70 1",
" 	c None",
".	c #FFFFFF",
"+	c #D0A573",
"@	c #FAF8F0",
"#	c #EADCB4",
"$	c #FEFEFE",
"%	c #FAF8EF",
"&	c #EADCB2",
"*	c #D5BD8F",
"=	c #E9DBB1",
"-	c #EADCB3",
";	c #FBF9F2",
">	c #99693D",
",	c #9A662F",
"'	c #D8C194",
")	c #FBF9F3",
"!	c #9B6B3D",
"~	c #E3D2A7",
"{	c #FCFAF5",
"]	c #9A6D45",
"^	c #FCFBF6",
"/	c #9D7146",
"(	c #BA9563",
"_	c #A07241",
":	c #BB9765",
"<	c #FCFBF7",
"[	c #A27548",
"}	c #AE8451",
"|	c #FDFCFA",
"1	c #A47B50",
"2	c #B18855",
"3	c #A47849",
"4	c #BA9666",
"5	c #EBDFB9",
"6	c #A57847",
"7	c #B5905F",
"8	c #EADCB1",
"9	c #F8F4E7",
"0	c #AA8254",
"a	c #A3733D",
"b	c #9B662F",
"c	c #F8F4E8",
"d	c #B28E64",
"e	c #FEFEFD",
"f	c #AE875A",
"g	c #B08855",
"h	c #AD8960",
"i	c #AA7E4A",
"j	c #ECE0BB",
"k	c #EEE3C3",
"l	c #FEFEFC",
"m	c #AC8761",
"n	c #A06F39",
"o	c #FEFDFB",
"p	c #A88056",
"q	c #A67843",
"r	c #FDFDFA",
"s	c #A57C53",
"t	c #AE8350",
"u	c #A07956",
"v	c #9D744F",
"w	c #FDFCF9",
"x	c #9E744A",
"y	c #E8DAAF",
"z	c #976B48",
"A	c #E1CEA3",
"B	c #EADDB4",
"C	c #EDE1BE",
"D	c #FDFBF7",
"E	c #EBDEB8",
"..................................................",
"..................................................",
"........+++++++++++++++++++++++++++++++++++++++++.",
".......++.......................................+.",
"......++........................................+.",
".....++.........................................+.",
"....++..........................................+.",
"...++...........................................+.",
"..++............................................+.",
"..+.............................................+.",
"..+.............................................+.",
"..+.............................................+.",
"..+.............................................+.",
"..+.............................................+.",
"..+...........@###$.............................+.",
"..+.........$%&&*=-$............................+.",
"..+.........;&&>,'&&............................+.",
"..+........)&&!,,,~&&...........................+.",
"..+.......{&&],,,,,&&...........................+.",
"..+......^&&/,,,,,(=&...........................+.",
"..+.....^&&_,,,,,:&&$...........................+.",
"..+....<&&[,,,,,}&&$............................+.",
"..+...|&&1,,,,,2=&$.............................+.",
"..+..|&&3,,,,,4&&&&&&&&&&&&&&&&&&&&&&&&&&&&&&5$.+.",
"..+.|&&6,,,,,7&&&&&&&&&&&&8&&&&&&&&&&&&&&&&&&&$.+.",
"..+.9&0,,,,,,,,,,,,,,,,,,,,,,,,,,,,,,,,,,,,,a&$.+.",
"..+.9&b,,,,,,,,,,,,,,,,,,,,,,,,,,,,,,,,,,,,,a&..+.",
"..+.c&b,,,,,,,,,,,,,,,,,,,,,,,,,,,,,,,,,,,,,a&..+.",
"..+.c&d,,,,,,,,,,,,,,,,,,,,,,,,,,,,,,,,,,,,,a&$.+.",
"..+.e&8f,,,,,g&&&&&&&&&&&&&&&&&&&&&&&&&&&&&&&&$.+.",
"..+..$&&h,,,,,i&&jjjjjjjjjjjjjjjjjjjjjjjjjjjjk$.+.",
"..+...l&&m,,,,,n=&|.............................+.",
"..+....o&&p,,,,,q&&r............................+.",
"..+.....o&&s,,,,,t&&$...........................+.",
"..+......r&&u,,,,,q=&...........................+.",
"..+.......|&&v,,,,,&&...........................+.",
"..+........w&&x,,,y&&...........................+.",
"..+.........<&&z,A&B$...........................+.",
"..+..........^&&~&C.............................+.",
"..+...........DEEE..............................+.",
"..+.............................................+.",
"..+............................................++.",
"..+...........................................++..",
"..+..........................................++...",
"..+.........................................++....",
"..+........................................++.....",
"..+.......................................++......",
"..+......................................++.......",
"..++++++++++++++++++++++++++++++++++++++++........",
".................................................."};
