/* XPM */
static char * ind_g_xpm[] = {
"30 28 155 2",
"  	c None",
". 	c #FFFFFF",
"+ 	c #FAF7F5",
"@ 	c #F5F0EB",
"# 	c #D8C4AF",
"$ 	c #AE855A",
"% 	c #FDFBFA",
"& 	c #F8F5F2",
"* 	c #CEB59A",
"= 	c #AD8356",
"- 	c #9A662F",
"; 	c #FCFBFA",
"> 	c #FDFDFC",
", 	c #CFB79D",
"' 	c #A37443",
") 	c #9B6832",
"! 	c #FEFEFE",
"~ 	c #FAF8F6",
"{ 	c #D9C6B1",
"] 	c #A37442",
"^ 	c #99652E",
"/ 	c #9D6B34",
"( 	c #A06F39",
"_ 	c #99662F",
": 	c #C1A17F",
"< 	c #C2A382",
"[ 	c #C0A07E",
"} 	c #F2ECE5",
"| 	c #D4BEA7",
"1 	c #A87C4D",
"2 	c #A2723C",
"3 	c #B6905E",
"4 	c #D8C295",
"5 	c #C9AB7C",
"6 	c #F7F3EF",
"7 	c #EDE4DA",
"8 	c #C3A584",
"9 	c #AA7E51",
"0 	c #9C6A34",
"a 	c #BF9D6C",
"b 	c #D9C498",
"c 	c #EADCB2",
"d 	c #C3A474",
"e 	c #F7F4F0",
"f 	c #BE9C79",
"g 	c #9F6E3B",
"h 	c #9A6730",
"i 	c #BE9C6B",
"j 	c #E3D2A7",
"k 	c #E9DAB0",
"l 	c #DECA9E",
"m 	c #CEB385",
"n 	c #CEB486",
"o 	c #CFB586",
"p 	c #CEB485",
"q 	c #B38B59",
"r 	c #FDFCFB",
"s 	c #F6F2ED",
"t 	c #C7AB8D",
"u 	c #E4D4AA",
"v 	c #E9DBB1",
"w 	c #C1A06F",
"x 	c #EBE1D7",
"y 	c #C8AC8E",
"z 	c #9D6B36",
"A 	c #A77945",
"B 	c #C09E6D",
"C 	c #E2D0A5",
"D 	c #E8DAAF",
"E 	c #C09F6E",
"F 	c #E9DED2",
"G 	c #BD9C79",
"H 	c #A27341",
"I 	c #A57742",
"J 	c #C8AB7C",
"K 	c #DFCDA1",
"L 	c #F3EDE7",
"M 	c #B7936C",
"N 	c #9D6C37",
"O 	c #A1713B",
"P 	c #CBAF81",
"Q 	c #E6D6AC",
"R 	c #E8DAB0",
"S 	c #CBB094",
"T 	c #9C6933",
"U 	c #9B6731",
"V 	c #A1723C",
"W 	c #C5A575",
"X 	c #B9956F",
"Y 	c #C3A372",
"Z 	c #E5D6AB",
"` 	c #BC9B77",
" .	c #C09F6F",
"..	c #E1CFA4",
"+.	c #F9F6F3",
"@.	c #D0B89F",
"#.	c #9A6731",
"$.	c #9F6F39",
"%.	c #E6D7AD",
"&.	c #BE9D7A",
"*.	c #9E6D39",
"=.	c #C5A777",
"-.	c #EFE7DF",
";.	c #A67949",
">.	c #A1713C",
",.	c #C4A575",
"'.	c #DCC89C",
").	c #EFE6DE",
"!.	c #CEB59B",
"~.	c #A27240",
"{.	c #A47540",
"].	c #BC9866",
"^.	c #F9F6F2",
"/.	c #CFB79E",
"(.	c #9E6C37",
"_.	c #9A6630",
":.	c #9E6C36",
"<.	c #B89361",
"[.	c #C1A170",
"}.	c #F9F7F4",
"|.	c #C5A889",
"1.	c #A06F3C",
"2.	c #C19F6F",
"3.	c #B79260",
"4.	c #B89261",
"5.	c #B89260",
"6.	c #A87C47",
"7.	c #A97C4D",
"8.	c #9D6B35",
"9.	c #DAC599",
"0.	c #DFCDA0",
"a.	c #A3743F",
"b.	c #F1EBE4",
"c.	c #D3BDA5",
"d.	c #A77A4A",
"e.	c #D9C396",
"f.	c #E5D5AA",
"g.	c #A77947",
"h.	c #9F6F3B",
"i.	c #9C6934",
"j.	c #F8F4F1",
"k.	c #A1713F",
"l.	c #AB804C",
"m.	c #A1713D",
"n.	c #F5F1EC",
"o.	c #CDB49A",
"p.	c #A37543",
"q.	c #9A6832",
"r.	c #F7F2EE",
"s.	c #CDB398",
"t.	c #AB8154",
"u.	c #F4EFE9",
"v.	c #D7C2AD",
"w.	c #AD8458",
"x.	c #FDFCFA",
". . . . . . . . . . . . . . . . . . . . . . . . + . . . . . ",
". . . . . . . . . . . . . . . . . . . . . . @ # $ % . . . . ",
". . . . . . . . . . . . . . . . . . . . & * = - - ; . . . . ",
". . . . . . . . . . . . . . . . . . > , ' ) - - ) . . . . . ",
". . . . . . . . . . . . . . . ! ~ { ] ^ - / ( - _ : < < [ ~ ",
". . . . . . . . . . . . . . } | 1 ^ - 2 3 4 5 - - ^ - ^ - 6 ",
". . . . . . . . . . . . 7 8 9 ^ - 0 a b c c d - - - ^ - - e ",
". . . . . . . . . . @ f g - ^ h i j k c c c l m n o p q - e ",
". . . . . . . r s t h ^ h ( a u v c c c c c c c c c v w ^ e ",
". . . . . . x y z - ^ A B C v c c c c c c c c c c c D E - e ",
". . . . F G H - - I J K c c c c c c c c c c c c c c D E - e ",
". . L M N - - O P Q R c c c c c c c c c c c c c c c D E - e ",
"6 S T ^ U V W R v c c c c c c c c c c c c c c c c c D E - e ",
"X - ^ ( Y Z c c c c c c c c c c c c c c c c c c c c D E - e ",
"` - - (  ...v c c c c c c c c c c c c c c c c c c c D E - e ",
"+.@.#.^ - $.i %.v c c c c c c c c c c c c c c c c c D E - e ",
". . @ &.*.- ^ / =.u D c c c c c c c c c c c c c c c D E - e ",
". . . . -.8 ;.^ ^ >.,.'.v c c c c c c c c c c c c c D E - e ",
". . . . . . ).!.~.- - {.].'.v c c c c c c c c c c c D E - e ",
". . . . . . . > ^./.(.- _.:.<.j v c c c c c c c c c v [.^ e ",
". . . . . . . . . . }.|.1.U ^ U 2.j k v c c j a 3.4.5.6.^ e ",
". . . . . . . . . . . . L y 7.^ - 8.E 9.v c 0.a.^ ^ ^ ^ ^ e ",
". . . . . . . . . . . . . . b.c.d.^ - 2 <.e.f.g.^ g 1.h.i.j.",
". . . . . . . . . . . . . . . ! }.# k.- ^ / l.m.U n.j.j.j.! ",
". . . . . . . . . . . . . . . . . . ; o.p.) ^ - q.; . . . . ",
". . . . . . . . . . . . . . . . . . . . r.s.t.- - ; . . . . ",
". . . . . . . . . . . . . . . . . . . . . . u.v.w.x.. . . . ",
". . . . . . . . . . . . . . . . . . . . . . . . + . . . . . "};
