/* XPM */
static char * ind_d_xpm[] = {
"30 28 155 2",
"  	c None",
". 	c #FFFFFF",
"+ 	c #FAF7F5",
"@ 	c #FDFBFA",
"# 	c #AE855A",
"$ 	c #D8C4AF",
"% 	c #F5F0EB",
"& 	c #FCFBFA",
"* 	c #9A662F",
"= 	c #AD8356",
"- 	c #CEB59A",
"; 	c #F8F5F2",
"> 	c #9B6832",
", 	c #A37443",
"' 	c #CFB79D",
") 	c #FDFDFC",
"! 	c #FAF8F6",
"~ 	c #C0A07E",
"{ 	c #C2A382",
"] 	c #C1A17F",
"^ 	c #99662F",
"/ 	c #A06F39",
"( 	c #9D6B34",
"_ 	c #99652E",
": 	c #A37442",
"< 	c #D9C6B1",
"[ 	c #FEFEFE",
"} 	c #F7F3EF",
"| 	c #C9AB7C",
"1 	c #D8C295",
"2 	c #B6905E",
"3 	c #A2723C",
"4 	c #A87C4D",
"5 	c #D4BEA7",
"6 	c #F2ECE5",
"7 	c #F7F4F0",
"8 	c #C3A474",
"9 	c #EADCB2",
"0 	c #D9C498",
"a 	c #BF9D6C",
"b 	c #9C6A34",
"c 	c #AA7E51",
"d 	c #C3A584",
"e 	c #EDE4DA",
"f 	c #B38B59",
"g 	c #CEB485",
"h 	c #CFB586",
"i 	c #CEB486",
"j 	c #CEB385",
"k 	c #DECA9E",
"l 	c #E9DAB0",
"m 	c #E3D2A7",
"n 	c #BE9C6B",
"o 	c #9A6730",
"p 	c #9F6E3B",
"q 	c #BE9C79",
"r 	c #C1A06F",
"s 	c #E9DBB1",
"t 	c #E4D4AA",
"u 	c #C7AB8D",
"v 	c #F6F2ED",
"w 	c #FDFCFB",
"x 	c #C09F6E",
"y 	c #E8DAAF",
"z 	c #E2D0A5",
"A 	c #C09E6D",
"B 	c #A77945",
"C 	c #9D6B36",
"D 	c #C8AC8E",
"E 	c #EBE1D7",
"F 	c #DFCDA1",
"G 	c #C8AB7C",
"H 	c #A57742",
"I 	c #A27341",
"J 	c #BD9C79",
"K 	c #E9DED2",
"L 	c #E8DAB0",
"M 	c #E6D6AC",
"N 	c #CBAF81",
"O 	c #A1713B",
"P 	c #9D6C37",
"Q 	c #B7936C",
"R 	c #F3EDE7",
"S 	c #C5A575",
"T 	c #A1723C",
"U 	c #9B6731",
"V 	c #9C6933",
"W 	c #CBB094",
"X 	c #E5D6AB",
"Y 	c #C3A372",
"Z 	c #B9956F",
"` 	c #E1CFA4",
" .	c #C09F6F",
"..	c #BC9B77",
"+.	c #E6D7AD",
"@.	c #9F6F39",
"#.	c #9A6731",
"$.	c #D0B89F",
"%.	c #F9F6F3",
"&.	c #C5A777",
"*.	c #9E6D39",
"=.	c #BE9D7A",
"-.	c #DCC89C",
";.	c #C4A575",
">.	c #A1713C",
",.	c #A67949",
"'.	c #EFE7DF",
").	c #BC9866",
"!.	c #A47540",
"~.	c #A27240",
"{.	c #CEB59B",
"].	c #EFE6DE",
"^.	c #C1A170",
"/.	c #B89361",
"(.	c #9E6C36",
"_.	c #9A6630",
":.	c #9E6C37",
"<.	c #CFB79E",
"[.	c #F9F6F2",
"}.	c #A87C47",
"|.	c #B89260",
"1.	c #B89261",
"2.	c #B79260",
"3.	c #C19F6F",
"4.	c #A06F3C",
"5.	c #C5A889",
"6.	c #F9F7F4",
"7.	c #A3743F",
"8.	c #DFCDA0",
"9.	c #DAC599",
"0.	c #9D6B35",
"a.	c #A97C4D",
"b.	c #F8F4F1",
"c.	c #9C6934",
"d.	c #9F6F3B",
"e.	c #A77947",
"f.	c #E5D5AA",
"g.	c #D9C396",
"h.	c #A77A4A",
"i.	c #D3BDA5",
"j.	c #F1EBE4",
"k.	c #F5F1EC",
"l.	c #A1713D",
"m.	c #AB804C",
"n.	c #A1713F",
"o.	c #9A6832",
"p.	c #A37543",
"q.	c #CDB49A",
"r.	c #AB8154",
"s.	c #CDB398",
"t.	c #F7F2EE",
"u.	c #FDFCFA",
"v.	c #AD8458",
"w.	c #D7C2AD",
"x.	c #F4EFE9",
". . . . . + . . . . . . . . . . . . . . . . . . . . . . . . ",
". . . . @ # $ % . . . . . . . . . . . . . . . . . . . . . . ",
". . . . & * * = - ; . . . . . . . . . . . . . . . . . . . . ",
". . . . . > * * > , ' ) . . . . . . . . . . . . . . . . . . ",
"! ~ { { ] ^ * / ( * _ : < ! [ . . . . . . . . . . . . . . . ",
"} * _ * _ * * | 1 2 3 * _ 4 5 6 . . . . . . . . . . . . . . ",
"7 * * _ * * * 8 9 9 0 a b * _ c d e . . . . . . . . . . . . ",
"7 * f g h i j k 9 9 9 l m n o _ * p q % . . . . . . . . . . ",
"7 _ r s 9 9 9 9 9 9 9 9 9 s t a / o _ o u v w . . . . . . . ",
"7 * x y 9 9 9 9 9 9 9 9 9 9 9 s z A B _ * C D E . . . . . . ",
"7 * x y 9 9 9 9 9 9 9 9 9 9 9 9 9 9 F G H * * I J K . . . . ",
"7 * x y 9 9 9 9 9 9 9 9 9 9 9 9 9 9 9 L M N O * * P Q R . . ",
"7 * x y 9 9 9 9 9 9 9 9 9 9 9 9 9 9 9 9 9 s L S T U _ V W } ",
"7 * x y 9 9 9 9 9 9 9 9 9 9 9 9 9 9 9 9 9 9 9 9 X Y / _ * Z ",
"7 * x y 9 9 9 9 9 9 9 9 9 9 9 9 9 9 9 9 9 9 9 s `  ./ * * ..",
"7 * x y 9 9 9 9 9 9 9 9 9 9 9 9 9 9 9 9 9 s +.n @.* _ #.$.%.",
"7 * x y 9 9 9 9 9 9 9 9 9 9 9 9 9 9 9 y t &.( _ * *.=.% . . ",
"7 * x y 9 9 9 9 9 9 9 9 9 9 9 9 9 s -.;.>._ _ ,.d '.. . . . ",
"7 * x y 9 9 9 9 9 9 9 9 9 9 9 s -.).!.* * ~.{.].. . . . . . ",
"7 _ ^.s 9 9 9 9 9 9 9 9 9 s m /.(._.* :.<.[.) . . . . . . . ",
"7 _ }.|.1.2.a m 9 9 s l m 3.U _ U 4.5.6.. . . . . . . . . . ",
"7 _ _ _ _ _ 7.8.9 s 9.x 0.* _ a.D R . . . . . . . . . . . . ",
"b.c.d.4.p _ e.f.g./.3 * _ h.i.j.. . . . . . . . . . . . . . ",
"[ b.b.b.k.U l.m.( _ * n.$ 6.[ . . . . . . . . . . . . . . . ",
". . . . & o.* _ > p.q.& . . . . . . . . . . . . . . . . . . ",
". . . . & * * r.s.t.. . . . . . . . . . . . . . . . . . . . ",
". . . . u.v.w.x.. . . . . . . . . . . . . . . . . . . . . . ",
". . . . . + . . . . . . . . . . . . . . . . . . . . . . . . "};
