/* XPM */
static char * kill_bleu_xpm[] = {
"12 8 24 1",
" 	c None",
".	c #9090FF",
"+	c #9595FF",
"@	c #9797FF",
"#	c #C8C8FF",
"$	c #DDDDFF",
"%	c #9292FF",
"&	c #9B9BFF",
"*	c #F8F8FF",
"=	c #FFFFFF",
"-	c #ADADFF",
";	c #D7D7FF",
">	c #EFEFFF",
",	c #A8A8FF",
"'	c #FEFEFF",
")	c #C1C1FF",
"!	c #ECECFF",
"~	c #B6B6FF",
"{	c #F1F1FF",
"]	c #F2F2FF",
"^	c #C6C6FF",
"/	c #9393FF",
"(	c #9696FF",
"_	c #9494FF",
".....+@.....",
".....#$%....",
"....&*=-....",
"....;==>....",
"...,=''=)...",
"..%!====*&..",
"..~{]]]]]^..",
"../((((((_.."};
