/* XPM */
static char * mine_bleu_xpm[] = {
"12 8 49 1",
" 	c None",
".	c #9090FF",
"+	c #8686F4",
"@	c #7071DD",
"#	c #8E8EFD",
"$	c #7A7BE8",
"%	c #7C7DE9",
"&	c #6062CB",
"*	c #5355BE",
"=	c #6E6FDB",
"-	c #6C6ED8",
";	c #8E8EFE",
">	c #6E70DB",
",	c #5F62C0",
"'	c #6265C1",
")	c #5A5DBE",
"!	c #4D50B9",
"~	c #4D50BA",
"{	c #8F8FFE",
"]	c #7F80ED",
"^	c #5C5EC6",
"/	c #6164C1",
"(	c #7072C7",
"_	c #5B5EBE",
":	c #4C4FB8",
"<	c #6F71DC",
"[	c #8A8BF9",
"}	c #8081EF",
"|	c #5458C2",
"1	c #5255BA",
"2	c #5053BA",
"3	c #494CB7",
"4	c #4A4DB7",
"5	c #6D6FDB",
"6	c #8B8BFA",
"7	c #6E6FDC",
"8	c #4A4DB6",
"9	c #4B4EB8",
"0	c #4E50BB",
"a	c #7677E3",
"b	c #6C6EDB",
"c	c #5A5CC6",
"d	c #4E51BB",
"e	c #6466D2",
"f	c #6465D1",
"g	c #8282F0",
"h	c #6F70DC",
"i	c #8C8DFB",
"j	c #8C8CFB",
".....+@#....",
"...$%&*=-;..",
"...>,')!~...",
".{]^/(_::<[.",
".{}|1)23456.",
"...789340...",
"...abcdef{..",
"...#.ghij..."};
