/* XPM */
static char * mine_rouge_xpm[] = {
"12 8 51 1",
" 	c None",
".	c #FF9090",
"+	c #F48282",
"@	c #DA6262",
"#	c #FD8E8E",
"$	c #E67070",
"%	c #E97171",
"&	c #CA4747",
"*	c #B93737",
"=	c #D96060",
"-	c #D55B5B",
";	c #DA5E5E",
">	c #C73939",
",	c #C53F3F",
"'	c #C23535",
")	c #B42F2F",
"!	c #B23232",
"~	c #FE8F8F",
"{	c #EC7878",
"]	c #C54141",
"^	c #C83A3A",
"/	c #CF4A4A",
"(	c #C33636",
"_	c #B12E2E",
":	c #B22E2E",
"<	c #DA6161",
"[	c #F98888",
"}	c #ED7A7A",
"|	c #BC3D3D",
"1	c #B83131",
"2	c #C43434",
"3	c #B73131",
"4	c #AF2D2D",
"5	c #AF2E2E",
"6	c #D75F5F",
"7	c #F98989",
"8	c #D86060",
"9	c #AE2D2D",
"0	c #B02E2E",
"a	c #B33333",
"b	c #E16A6A",
"c	c #D75E5E",
"d	c #C24242",
"e	c #B43434",
"f	c #CE5353",
"g	c #CC5252",
"h	c #FD8D8D",
"i	c #EF7C7C",
"j	c #D96161",
"k	c #FB8B8B",
"l	c #FA8A8A",
".....+@#....",
"...$%&*=-#..",
"...;>,')!...",
".~{]^/(_:<[.",
".~}|1234567.",
"...84_90a...",
"...bcdefg~..",
"...h.ijkl..."};
