/* XPM */
static char * mode2_xpm[] = {
"50 50 190 2",
"  	c None",
". 	c #FFFFFF",
"+ 	c #9A662F",
"@ 	c #EADCB2",
"# 	c #E2D0A5",
"$ 	c #D9C396",
"% 	c #D4BC8F",
"& 	c #D9C397",
"* 	c #E3D2A7",
"= 	c #DDC99C",
"- 	c #CAAC7D",
"; 	c #C8AA7A",
"> 	c #DFCCA1",
", 	c #D8B894",
"' 	c #C28D70",
") 	c #D2AC8A",
"! 	c #E8D8AE",
"~ 	c #E0CDA1",
"{ 	c #C9AC7D",
"] 	c #CEB486",
"^ 	c #EEE4C0",
"/ 	c #ECE0BC",
"( 	c #E6D6B0",
"_ 	c #CEB385",
": 	c #E1CDA3",
"< 	c #C49173",
"[ 	c #DFC8A1",
"} 	c #D6B491",
"| 	c #C6A777",
"1 	c #ECDFBB",
"2 	c #ECE1BC",
"3 	c #ECE0BD",
"4 	c #EBDEBA",
"5 	c #C5A475",
"6 	c #B27556",
"7 	c #B37758",
"8 	c #E2CCA5",
"9 	c #D1AB89",
"0 	c #B27557",
"a 	c #B37857",
"b 	c #DBC39E",
"c 	c #EADBB8",
"d 	c #C5937A",
"e 	c #BE886D",
"f 	c #B37658",
"g 	c #B07354",
"h 	c #C59278",
"i 	c #C28F75",
"j 	c #D4B092",
"k 	c #EBDFBA",
"l 	c #C49379",
"m 	c #C38F76",
"n 	c #B17555",
"o 	c #B37759",
"p 	c #B4795B",
"q 	c #B17455",
"r 	c #C49177",
"s 	c #E2CDAB",
"t 	c #EADDB9",
"u 	c #C8987D",
"v 	c #C59279",
"w 	c #B98162",
"x 	c #E5D3AB",
"y 	c #C08B6E",
"z 	c #BE876C",
"A 	c #CDA286",
"B 	c #C6947A",
"C 	c #B77D60",
"D 	c #C8A97B",
"E 	c #C6A578",
"F 	c #B37958",
"G 	c #C38F75",
"H 	c #C49278",
"I 	c #E6D4B2",
"J 	c #C8997E",
"K 	c #EADCB9",
"L 	c #CDB182",
"M 	c #E6D6AB",
"N 	c #EDE2BE",
"O 	c #D4B294",
"P 	c #CEA488",
"Q 	c #E7D7B4",
"R 	c #C49077",
"S 	c #E6D5B2",
"T 	c #E1CFA8",
"U 	c #E9DBB1",
"V 	c #D6BE91",
"W 	c #C9AC7C",
"X 	c #B4785A",
"Y 	c #B67C5E",
"Z 	c #E3CFAD",
"` 	c #EEE3BF",
" .	c #EBDEBB",
"..	c #D1AC8F",
"+.	c #BB8468",
"@.	c #E5D2B1",
"#.	c #E8DBB5",
"$.	c #C28D74",
"%.	c #E3D2AB",
"&.	c #EDE1BD",
"*.	c #D3AF91",
"=.	c #CCA185",
"-.	c #EADCB8",
";.	c #E9DCB6",
">.	c #CFB487",
",.	c #C4A174",
"'.	c #B17556",
").	c #B07353",
"!.	c #DFC5A5",
"~.	c #E0C8A7",
"{.	c #E5D3B1",
"].	c #F0E6C4",
"^.	c #CEA689",
"/.	c #C39177",
"(.	c #DEC4A3",
"_.	c #EADCB7",
":.	c #283EAD",
"<.	c #D3BA8D",
"[.	c #C9AB7C",
"}.	c #E0C9A7",
"|.	c #C39077",
"1.	c #E4D1AF",
"2.	c #334DD0",
"3.	c #354FD0",
"4.	c #7183DE",
"5.	c #CA9F83",
"6.	c #C99A7F",
"7.	c #B1BAEC",
"8.	c #D9BB9C",
"9.	c #BFC7F0",
"0.	c #C38F72",
"a.	c #BE886B",
"b.	c #C18D72",
"c.	c #5268D7",
"d.	c #8191E2",
"e.	c #C2CAF1",
"f.	c #A2AEE9",
"g.	c #DABD9D",
"h.	c #6C7FDD",
"i.	c #E4D0A8",
"j.	c #C7A679",
"k.	c #8696E3",
"l.	c #8090E1",
"m.	c #E1CAA3",
"n.	c #CA9C7D",
"o.	c #D5B491",
"p.	c #D4BC91",
"q.	c #EEE2BF",
"r.	c #7D8DE0",
"s.	c #8A98E3",
"t.	c #95A2E6",
"u.	c #5E72D9",
"v.	c #B5BFEE",
"w.	c #D3B98B",
"x.	c #C8AA7B",
"y.	c #E2D1A9",
"z.	c #324CCF",
"A.	c #C1C9F0",
"B.	c #455DD4",
"C.	c #3C54D1",
"D.	c #7E8FE1",
"E.	c #6376DA",
"F.	c #3A53D1",
"G.	c #4F65D6",
"H.	c #BEC6EF",
"I.	c #AFB9EC",
"J.	c #A8B3EB",
"K.	c #9DA9E8",
"L.	c #D0B587",
"M.	c #5167D6",
"N.	c #93A1E6",
"O.	c #B9C2EE",
"P.	c #7082DD",
"Q.	c #7687DF",
"R.	c #4960D4",
"S.	c #596ED8",
"T.	c #E8D9AE",
"U.	c #DBC599",
"V.	c #CFB486",
"W.	c #A5B1EA",
"X.	c #A4AFE9",
"Y.	c #A0ACE9",
"Z.	c #566BD7",
"`.	c #BAC3EF",
" +	c #6175DA",
".+	c #9AA7E7",
"++	c #AAB5EB",
"@+	c #3852D1",
"#+	c #7B8CE0",
"$+	c #576CD8",
". . . . . . . . . . . . . . . . . . . . . . . . . . . . . . . . . . . . . . . . . . . . . . . . . . ",
". . . . . . . . . . . . . . . . . . . . . . . . . . . . . . . . . . . . . . . . . . . . . . . . . . ",
". . . . . . . . + + + + + + + + + + + + + + + + + + + + + + + + + + + + + + + + + + + + + + + + + . ",
". . . . . . . + + @ @ @ @ @ @ @ @ @ @ @ @ @ @ @ @ @ @ @ @ @ @ @ @ @ @ @ @ @ @ @ @ @ @ @ @ @ @ @ + . ",
". . . . . . + + @ @ @ @ @ @ @ @ # $ % % & * @ @ @ @ @ @ @ @ @ @ @ @ @ @ @ @ @ @ @ @ @ @ @ @ @ @ + . ",
". . . . . + + @ @ @ @ @ @ = - - - ; ; ; ; - - - > @ @ @ , ' ) ! @ @ @ @ @ @ @ @ @ @ @ @ @ @ @ @ + . ",
". . . . + + @ @ @ @ @ ~ - { ] ^ ^ / / / / ^ ( _ - - : < ' ' ' ' ! @ @ @ @ @ @ @ @ @ @ @ @ @ @ @ + . ",
". . . + + @ @ [ } [ - - | 1 2 3 2 2 / / / / / 2 4 5 6 7 ' ' ' ' 8 @ @ @ @ @ @ @ @ @ @ @ @ @ @ @ + . ",
". . + + @ @ 9 ' ' 0 a b / / / / 2 2 / 2 / / / / c d e 6 f ' ' ' 8 @ @ @ @ @ @ @ @ @ @ @ @ @ @ @ + . ",
". . + @ @ @ ' ' 0 g h i j 2 / / / / / / / / / k l i i m n o ' ' ! @ @ @ @ @ @ @ @ @ @ @ @ @ @ @ + . ",
". . + @ @ @ ' p q h i i i r s 2 / / / / / / t u i i i i v n w x @ @ @ @ @ @ @ @ @ @ @ @ @ @ @ @ + . ",
". . + @ @ @ y 6 z i i i i i i A t / / 2 / t B i i i i i i C D @ @ @ @ @ @ @ @ @ @ @ @ @ @ @ @ @ + . ",
". . + @ @ @ E F G i i i i i i i H I / / 2 J i i i i i i i K ; L @ @ @ @ @ @ @ @ @ @ @ @ @ @ @ @ + . ",
". . + @ @ M - N O i i i i i i i i i P Q J i R i i i i m S / T - U @ @ @ @ @ @ @ @ @ @ @ @ @ @ @ + . ",
". . + @ @ V W 3 / I l i i i i i i i i i i X Y i i i i Z / 2 ` - = @ @ @ @ @ @ @ @ @ @ @ @ @ @ @ + . ",
". . + @ @ - _ / / /  ...i i i i i i i i +.q G i i i @./ / / / ; - @ @ @ @ @ @ @ @ @ @ @ @ @ @ @ + . ",
". . + @ @ - #.2 / / / 2 @.r i i i i i G n $.i i i s / / / / / %.- @ @ @ @ @ @ @ @ @ @ @ @ @ @ @ + . ",
". . + @ @ - ^ / &.&.&.&.&.1 *.G G G m q +.i i i =.-./ 2 / / 2 ;.- @ @ @ @ @ @ @ @ @ @ @ @ @ @ @ + . ",
". . + @ @ - ^ / >.; ; ; ; ,.'.g g g ).q G i i i i i !./ / / 2 ;.- @ @ @ @ @ @ @ @ @ @ @ @ @ @ @ + . ",
". . + @ @ - ^ / / / / / ~.m i i i i i i i i i i i i i i {./ / ;.- @ @ @ @ @ @ @ @ @ @ @ @ @ @ @ + . ",
". . + @ @ - ]./ / 2 4 ^.i i i i i i i i i i i i i i i i i /.(._.- @ @ @ @ @ @ @ @ @ @ @ @ @ @ @ + . ",
". . + @ @ - _ 2 / I d i i i i i i i i :.:.:.:.:.:.:.:.:.:.:.:.:.:.:.:.:.:.:.:.:.:.:.:.:.:.@ @ @ + . ",
". . + @ @ <.[./ }.i i i i i i i i |.1.:.2.2.3.3.2.3.2.3.2.2.4.3.3.2.3.3.3.2.2.3.2.3.3.3.2.@ @ @ + . ",
". . + @ @ * [.5.i i i i i i i i 6.c / :.3.3.3.2.3.3.2.2.2.3.7.3.2.2.3.3.2.3.3.2.2.2.3.2.3.@ @ @ + . ",
". . + @ @ x 6 g i i i i i i i 8./ / / :.2.2.3.2.2.3.3.3.3.2.9.3.3.2.3.3.2.3.3.2.3.2.3.3.2.@ @ @ + . ",
". . + @ x 0.a.6 b.i i i i B @.2 / / / :.2.2.2.c.2.3.2.3.2.d.e.3.3.3.2.3.2.2.3.2.2.3.2.2.2.@ @ @ + . ",
". . + @ , ' ' f g R i i =./ / / / / / :.3.3.3.f.2.3.2.3.2.e.e.2.3.3.2.2.3.2.2.3.2.2.2.3.2.@ @ @ + . ",
". . + @ } ' ' ' 6 ).G g./ / / / / / / :.2.3.2.e.2.2.3.3.3.e.e.2.2.2.2.h.9.3.3.2.3.2.3.2.2.@ @ @ + . ",
". . + @ i.' ' ' ' 6 j.^ 2 2 / / / / / :.3.3.3.e.2.3.2.3.k.l.e.2.3.2.2.e.e.3.2.2.3.2.2.3.3.@ @ @ + . ",
". . + @ @ m.n.' o.! - - p.q.2 / 2 / / :.3.2.r.e.3.2.3.3.e.2.e.2.2.3.s.t.u.v.2.3.3.3.3.2.3.@ @ @ + . ",
". . + @ @ @ @ @ @ @ @ w.- x.y.` ` 2 / :.z.2.A.e.2.B.C.3.e.2.e.D.h.E.e.2.3.e.F.G.H.I.J.I.K.@ @ @ + . ",
". . + @ @ @ @ @ @ @ @ @ @ L.- - - ; ; :.E.M.e.v.N.e.O.A.d.2.e.e.s.t.P.3.3.s.P.Q.s.R.S.B.3.@ @ @ + . ",
". . + @ @ @ @ @ @ @ @ @ @ @ @ T.U.V.- :.N.W.X.Y.e.2.2.2.3.2.O.e.3.3.3.2.3.E.t.Y.Z.2.2.2.3.@ @ @ + . ",
". . + @ @ @ @ @ @ @ @ @ @ @ @ @ @ @ @ :.3.3.2.k.Z.3.2.3.2.2.e.e.2.2.2.3.3.C.`.e.3.2.2.2.3.@ @ @ + . ",
". . + @ @ @ @ @ @ @ @ @ @ @ @ @ @ @ @ :.2.2.2. +3.3.2.2.3.3.e..+3.2.3.2.3.3.e.e.2.2.2.2.2.@ @ @ + . ",
". . + @ @ @ @ @ @ @ @ @ @ @ @ @ @ @ @ :.2.2.2.3.3.3.2.3.3.2.l.F.2.3.3.2.3.2.e.e.2.2.3.2.2.@ @ @ + . ",
". . + @ @ @ @ @ @ @ @ @ @ @ @ @ @ @ @ :.2.2.3.3.2.2.3.2.3.2.4.2.3.3.2.2.2.2.e.e.2.3.2.3.3.@ @ @ + . ",
". . + @ @ @ @ @ @ @ @ @ @ @ @ @ @ @ @ :.2.2.3.3.2.2.3.2.2.2.E.2.2.3.3.2.2.2.e.++2.2.3.2.3.@ @ @ + . ",
". . + @ @ @ @ @ @ @ @ @ @ @ @ @ @ @ @ :.3.2.3.2.2.2.2.3.2.2.@+3.2.3.2.2.2.2.e.X.2.2.2.2.2.@ @ @ + . ",
". . + @ @ @ @ @ @ @ @ @ @ @ @ @ @ @ @ :.2.2.2.2.2.3.3.3.2.2.3.2.2.3.2.3.2.2.#+$+2.2.2.2.3.@ @ @ + . ",
". . + @ @ @ @ @ @ @ @ @ @ @ @ @ @ @ @ :.2.3.3.2.3.3.3.2.2.3.2.2.2.3.2.2.2.2.S.3.2.3.2.2.2.@ @ @ + . ",
". . + @ @ @ @ @ @ @ @ @ @ @ @ @ @ @ @ :.2.3.2.3.2.2.3.2.2.2.2.2.2.2.2.3.2.2.3.2.2.2.3.2.2.@ @ + + . ",
". . + @ @ @ @ @ @ @ @ @ @ @ @ @ @ @ @ @ @ @ @ @ @ @ @ @ @ @ @ @ @ @ @ @ @ @ @ @ @ @ @ @ @ @ + + . . ",
". . + @ @ @ @ @ @ @ @ @ @ @ @ @ @ @ @ @ @ @ @ @ @ @ @ @ @ @ @ @ @ @ @ @ @ @ @ @ @ @ @ @ @ + + . . . ",
". . + @ @ @ @ @ @ @ @ @ @ @ @ @ @ @ @ @ @ @ @ @ @ @ @ @ @ @ @ @ @ @ @ @ @ @ @ @ @ @ @ @ + + . . . . ",
". . + @ @ @ @ @ @ @ @ @ @ @ @ @ @ @ @ @ @ @ @ @ @ @ @ @ @ @ @ @ @ @ @ @ @ @ @ @ @ @ @ + + . . . . . ",
". . + @ @ @ @ @ @ @ @ @ @ @ @ @ @ @ @ @ @ @ @ @ @ @ @ @ @ @ @ @ @ @ @ @ @ @ @ @ @ @ + + . . . . . . ",
". . + @ @ @ @ @ @ @ @ @ @ @ @ @ @ @ @ @ @ @ @ @ @ @ @ @ @ @ @ @ @ @ @ @ @ @ @ @ @ + + . . . . . . . ",
". . + + + + + + + + + + + + + + + + + + + + + + + + + + + + + + + + + + + + + + + + . . . . . . . . ",
". . . . . . . . . . . . . . . . . . . . . . . . . . . . . . . . . . . . . . . . . . . . . . . . . . "};
