/* XPM */
static char * mode1_xpm[] = {
"50 50 156 2",
"  	c None",
". 	c #FFFFFF",
"+ 	c #9A662F",
"@ 	c #EADCB2",
"# 	c #DECB9F",
"$ 	c #AA7E49",
"% 	c #9F6D37",
"& 	c #9A6730",
"* 	c #9C6932",
"= 	c #A1703A",
"- 	c #BC9765",
"; 	c #BF9C6B",
"> 	c #945D24",
", 	c #A1703B",
"' 	c #C7A981",
") 	c #976129",
"! 	c #9D6B35",
"~ 	c #D6BE91",
"{ 	c #DFCCA0",
"] 	c #99652E",
"^ 	c #A97C4A",
"/ 	c #F8F2D9",
"( 	c #F1E8CC",
"_ 	c #F1E8CD",
": 	c #F4ECD2",
"< 	c #EEE3C7",
"[ 	c #E8D9AF",
"} 	c #B7905E",
"| 	c #925920",
"1 	c #EFE4C9",
"2 	c #F1E9CD",
"3 	c #F1E8CE",
"4 	c #F2EBD0",
"5 	c #E2D0A5",
"6 	c #B18855",
"7 	c #D4BC98",
"8 	c #F2E9CF",
"9 	c #F6F0D6",
"0 	c #945E25",
"a 	c #DCC79B",
"b 	c #BF9D6C",
"c 	c #C9AC84",
"d 	c #9C6933",
"e 	c #E8DAAF",
"f 	c #E3D2A7",
"g 	c #D3BC97",
"h 	c #945C23",
"i 	c #9B6831",
"j 	c #98632B",
"k 	c #F3EBD0",
"l 	c #EFE5C9",
"m 	c #CCB081",
"n 	c #D7C093",
"o 	c #F2EAD0",
"p 	c #925A21",
"q 	c #A57641",
"r 	c #E4D5B6",
"s 	c #F0E7CC",
"t 	c #EDE2C6",
"u 	c #D2B98A",
"v 	c #A47541",
"w 	c #D6C09D",
"x 	c #97622A",
"y 	c #F7F1D8",
"z 	c #F2E9CE",
"A 	c #A67946",
"B 	c #AC8150",
"C 	c #A87C49",
"D 	c #C09E6D",
"E 	c #F1E7CC",
"F 	c #D9C5A2",
"G 	c #F2EACF",
"H 	c #FCF9E1",
"I 	c #AC804C",
"J 	c #F1E9CE",
"K 	c #F6F0D8",
"L 	c #ECE2C5",
"M 	c #F7F2D7",
"N 	c #A57742",
"O 	c #966028",
"P 	c #AB804F",
"Q 	c #F7F1D7",
"R 	c #AD824E",
"S 	c #F5EED5",
"T 	c #C3A372",
"U 	c #955E25",
"V 	c #F4EED3",
"W 	c #E7D7AD",
"X 	c #283EAD",
"Y 	c #A37440",
"Z 	c #334DD0",
"` 	c #354FD0",
" .	c #7183DE",
"..	c #AA7D49",
"+.	c #B1BAEC",
"@.	c #DCC89B",
"#.	c #BFC7F0",
"$.	c #9E6C35",
"%.	c #99642D",
"&.	c #F6EFD5",
"*.	c #5268D7",
"=.	c #8191E2",
"-.	c #C2CAF1",
";.	c #C4A57C",
">.	c #A2AEE9",
",.	c #CEB384",
"'.	c #B48D5F",
").	c #6C7FDD",
"!.	c #8696E3",
"~.	c #8090E1",
"{.	c #E9DBB1",
"].	c #C6A776",
"^.	c #91581E",
"/.	c #E1D0B0",
"(.	c #7D8DE0",
"_.	c #8A98E3",
":.	c #95A2E6",
"<.	c #5E72D9",
"[.	c #B5BFEE",
"}.	c #9A6630",
"|.	c #324CCF",
"1.	c #C1C9F0",
"2.	c #455DD4",
"3.	c #3C54D1",
"4.	c #7E8FE1",
"5.	c #6376DA",
"6.	c #3A53D1",
"7.	c #4F65D6",
"8.	c #BEC6EF",
"9.	c #AFB9EC",
"0.	c #A8B3EB",
"a.	c #9DA9E8",
"b.	c #D5BD8F",
"c.	c #98632C",
"d.	c #9C6A33",
"e.	c #5167D6",
"f.	c #93A1E6",
"g.	c #B9C2EE",
"h.	c #7082DD",
"i.	c #7687DF",
"j.	c #4960D4",
"k.	c #596ED8",
"l.	c #E4D4A9",
"m.	c #C3A272",
"n.	c #AB7F4B",
"o.	c #A5B1EA",
"p.	c #A4AFE9",
"q.	c #A0ACE9",
"r.	c #566BD7",
"s.	c #BAC3EF",
"t.	c #6175DA",
"u.	c #9AA7E7",
"v.	c #AAB5EB",
"w.	c #3852D1",
"x.	c #7B8CE0",
"y.	c #576CD8",
". . . . . . . . . . . . . . . . . . . . . . . . . . . . . . . . . . . . . . . . . . . . . . . . . . ",
". . . . . . . . . . . . . . . . . . . . . . . . . . . . . . . . . . . . . . . . . . . . . . . . . . ",
". . . . . . . . + + + + + + + + + + + + + + + + + + + + + + + + + + + + + + + + + + + + + + + + + . ",
". . . . . . . + + @ @ @ @ @ @ @ @ @ @ @ @ @ @ @ @ @ @ @ @ @ @ @ @ @ @ @ @ @ @ @ @ @ @ @ @ @ @ @ + . ",
". . . . . . + + @ @ @ @ @ @ # $ % & + + * = - @ @ @ @ @ @ @ @ @ @ @ @ @ @ @ @ @ @ @ @ @ @ @ @ @ + . ",
". . . . . + + @ @ @ @ @ ; + + > , ' ' ' ' > ) + ! ~ @ @ @ @ @ @ @ @ @ @ @ @ @ @ @ @ @ @ @ @ @ @ + . ",
". . . . + + @ @ @ @ { + ] ^ / ( _ _ _ _ _ _ : < + + * [ @ @ @ @ @ @ @ @ @ @ @ @ @ @ @ @ @ @ @ @ + . ",
". . . + + @ @ @ @ } + | 1 2 _ _ _ _ _ _ _ _ 2 3 _ 4 + + 5 @ @ @ @ @ @ @ @ @ @ @ @ @ @ @ @ @ @ @ + . ",
". . + + @ @ @ @ 6 + 7 8 _ _ _ _ _ _ _ _ _ _ _ _ 2 _ 9 0 + a @ @ @ @ @ @ @ @ @ @ @ @ @ @ @ @ @ @ + . ",
". . + @ @ @ @ b + c _ _ _ _ _ _ _ _ _ _ _ _ _ 2 _ 2 _ _ d + e @ @ @ @ @ @ @ @ @ @ @ @ @ @ @ @ @ + . ",
". . + @ @ @ f + g _ _ 2 2 _ _ 2 _ 2 _ _ _ _ _ 2 2 2 _ _ _ h i @ @ @ @ @ @ @ @ @ @ @ @ @ @ @ @ @ + . ",
". . + @ @ @ + j k _ _ 2 _ _ 3 _ _ _ _ _ _ _ _ _ _ _ _ _ _ l + m @ @ @ @ @ @ @ @ @ @ @ @ @ @ @ @ + . ",
". . + @ @ n + o _ _ 2 _ _ _ 2 _ 2 _ _ 2 2 2 _ _ _ _ 2 _ _ _ p + @ @ @ @ @ @ @ @ @ @ @ @ @ @ @ @ + . ",
". . + @ @ q + 2 _ _ 2 _ _ _ _ _ _ _ 3 _ _ r s _ _ 2 _ _ 2 _ t + u @ @ @ @ @ @ @ @ @ @ @ @ @ @ @ + . ",
". . + @ @ + v _ _ _ _ _ 2 _ 2 _ _ 2 _ _ 2 ] w _ 2 _ _ _ 2 _ 3 x $ @ @ @ @ @ @ @ @ @ @ @ @ @ @ @ + . ",
". . + @ 5 + y _ _ _ _ _ _ _ _ _ _ _ _ z A B 3 _ _ _ _ _ _ _ _ C + @ @ @ @ @ @ @ @ @ @ @ @ @ @ @ + . ",
". . + @ D > E _ _ _ _ _ _ _ _ _ _ _ _ F + G _ _ _ _ _ _ _ 2 _ H + @ @ @ @ @ @ @ @ @ @ @ @ @ @ @ + . ",
". . + @ I 0 _ 2 3 3 J 3 3 3 3 J J J K j L _ _ 2 _ _ _ 2 _ _ 2 M + @ @ @ @ @ @ @ @ @ @ @ @ @ @ @ + . ",
". . + @ N 0 _ z O ] ] ] ] ] ] ] ] ] ) P _ _ _ 2 _ _ _ _ 2 _ _ Q + @ @ @ @ @ @ @ @ @ @ @ @ @ @ @ + . ",
". . + @ R 0 J _ _ _ _ _ _ 3 2 _ 2 _ S ( _ _ _ _ _ _ _ _ _ _ _ Q + @ @ @ @ @ @ @ @ @ @ @ @ @ @ @ + . ",
". . + @ T U _ _ _ _ _ 2 _ _ _ _ _ _ _ _ _ _ _ _ _ _ _ _ _ _ 2 V + @ @ @ @ @ @ @ @ @ @ @ @ @ @ @ + . ",
". . + @ W + y _ _ 2 2 _ 2 _ _ _ 2 _ _ X X X X X X X X X X X X X X X X X X X X X X X X X X @ @ @ + . ",
". . + @ @ + Y _ 2 2 _ _ _ _ _ 2 2 _ _ X Z Z ` ` Z ` Z ` Z Z  .` ` Z ` ` ` Z Z ` Z ` ` ` Z @ @ @ + . ",
". . + @ @ ..x 3 _ _ _ _ _ _ 2 _ _ _ _ X ` ` ` Z ` ` Z Z Z ` +.` Z Z ` ` Z ` ` Z Z Z ` Z ` @ @ @ + . ",
". . + @ @ @.+ _ _ _ _ 2 2 _ _ _ _ _ _ X Z Z ` Z Z ` ` ` ` Z #.` ` Z ` ` Z ` ` Z ` Z ` ` Z @ @ @ + . ",
". . + @ @ @ $.%.&._ 2 _ 2 _ _ 2 _ _ 2 X Z Z Z *.Z ` Z ` Z =.-.` ` ` Z ` Z Z ` Z Z ` Z Z Z @ @ @ + . ",
". . + @ @ @ W + ;._ _ _ _ _ _ _ _ _ _ X ` ` ` >.Z ` Z ` Z -.-.Z ` ` Z Z ` Z Z ` Z Z Z ` Z @ @ @ + . ",
". . + @ @ @ @ ,.+ '._ _ _ 2 _ _ _ _ 2 X Z ` Z -.Z Z ` ` ` -.-.Z Z Z Z ).#.` ` Z ` Z ` Z Z @ @ @ + . ",
". . + @ @ @ @ @ ; + '.o _ _ _ _ _ _ _ X ` ` ` -.Z ` Z ` !.~.-.Z ` Z Z -.-.` Z Z ` Z Z ` ` @ @ @ + . ",
". . + @ @ @ @ @ {.].+ ^./.2 _ _ _ _ _ X ` Z (.-.` Z ` ` -.Z -.Z Z ` _.:.<.[.Z ` ` ` ` Z ` @ @ @ + . ",
". . + @ @ @ @ @ @ @ @ }.+ O < z 2 2 _ X |.Z 1.-.Z 2.3.` -.Z -.4.).5.-.Z ` -.6.7.8.9.0.9.a.@ @ @ + . ",
". . + @ @ @ @ @ @ @ @ @ b.+ + c.d.^ ^ X 5.e.-.[.f.-.g.1.=.Z -.-._.:.h.` ` _.h.i._.j.k.2.` @ @ @ + . ",
". . + @ @ @ @ @ @ @ @ @ @ @ l.m.n.d + X f.o.p.q.-.Z Z Z ` Z g.-.` ` ` Z ` 5.:.q.r.Z Z Z ` @ @ @ + . ",
". . + @ @ @ @ @ @ @ @ @ @ @ @ @ @ @ @ X ` ` Z !.r.` Z ` Z Z -.-.Z Z Z ` ` 3.s.-.` Z Z Z ` @ @ @ + . ",
". . + @ @ @ @ @ @ @ @ @ @ @ @ @ @ @ @ X Z Z Z t.` ` Z Z ` ` -.u.` Z ` Z ` ` -.-.Z Z Z Z Z @ @ @ + . ",
". . + @ @ @ @ @ @ @ @ @ @ @ @ @ @ @ @ X Z Z Z ` ` ` Z ` ` Z ~.6.Z ` ` Z ` Z -.-.Z Z ` Z Z @ @ @ + . ",
". . + @ @ @ @ @ @ @ @ @ @ @ @ @ @ @ @ X Z Z ` ` Z Z ` Z ` Z  .Z ` ` Z Z Z Z -.-.Z ` Z ` ` @ @ @ + . ",
". . + @ @ @ @ @ @ @ @ @ @ @ @ @ @ @ @ X Z Z ` ` Z Z ` Z Z Z 5.Z Z ` ` Z Z Z -.v.Z Z ` Z ` @ @ @ + . ",
". . + @ @ @ @ @ @ @ @ @ @ @ @ @ @ @ @ X ` Z ` Z Z Z Z ` Z Z w.` Z ` Z Z Z Z -.p.Z Z Z Z Z @ @ @ + . ",
". . + @ @ @ @ @ @ @ @ @ @ @ @ @ @ @ @ X Z Z Z Z Z ` ` ` Z Z ` Z Z ` Z ` Z Z x.y.Z Z Z Z ` @ @ @ + . ",
". . + @ @ @ @ @ @ @ @ @ @ @ @ @ @ @ @ X Z ` ` Z ` ` ` Z Z ` Z Z Z ` Z Z Z Z k.` Z ` Z Z Z @ @ @ + . ",
". . + @ @ @ @ @ @ @ @ @ @ @ @ @ @ @ @ X Z ` Z ` Z Z ` Z Z Z Z Z Z Z Z ` Z Z ` Z Z Z ` Z Z @ @ + + . ",
". . + @ @ @ @ @ @ @ @ @ @ @ @ @ @ @ @ @ @ @ @ @ @ @ @ @ @ @ @ @ @ @ @ @ @ @ @ @ @ @ @ @ @ @ + + . . ",
". . + @ @ @ @ @ @ @ @ @ @ @ @ @ @ @ @ @ @ @ @ @ @ @ @ @ @ @ @ @ @ @ @ @ @ @ @ @ @ @ @ @ @ + + . . . ",
". . + @ @ @ @ @ @ @ @ @ @ @ @ @ @ @ @ @ @ @ @ @ @ @ @ @ @ @ @ @ @ @ @ @ @ @ @ @ @ @ @ @ + + . . . . ",
". . + @ @ @ @ @ @ @ @ @ @ @ @ @ @ @ @ @ @ @ @ @ @ @ @ @ @ @ @ @ @ @ @ @ @ @ @ @ @ @ @ + + . . . . . ",
". . + @ @ @ @ @ @ @ @ @ @ @ @ @ @ @ @ @ @ @ @ @ @ @ @ @ @ @ @ @ @ @ @ @ @ @ @ @ @ @ + + . . . . . . ",
". . + @ @ @ @ @ @ @ @ @ @ @ @ @ @ @ @ @ @ @ @ @ @ @ @ @ @ @ @ @ @ @ @ @ @ @ @ @ @ + + . . . . . . . ",
". . + + + + + + + + + + + + + + + + + + + + + + + + + + + + + + + + + + + + + + + + . . . . . . . . ",
". . . . . . . . . . . . . . . . . . . . . . . . . . . . . . . . . . . . . . . . . . . . . . . . . . "};
