/* XPM */
static char * mode3_xpm[] = {
"50 50 293 2",
"  	c None",
". 	c #FFFFFF",
"+ 	c #9A662F",
"@ 	c #EADCB2",
"# 	c #E2D0A5",
"$ 	c #D9C396",
"% 	c #D4BC8F",
"& 	c #D9C397",
"* 	c #E3D2A7",
"= 	c #DDC99C",
"- 	c #CAAC7D",
"; 	c #C8AA7A",
"> 	c #DFCCA1",
", 	c #D8B894",
"' 	c #C28D70",
") 	c #D2AC8A",
"! 	c #E8D8AE",
"~ 	c #E0CDA1",
"{ 	c #C9AC7D",
"] 	c #CEB486",
"^ 	c #EEE4C0",
"/ 	c #ECE0BC",
"( 	c #E6D6B0",
"_ 	c #CEB385",
": 	c #E1CDA3",
"< 	c #C49173",
"[ 	c #DFC8A1",
"} 	c #D6B491",
"| 	c #C6A777",
"1 	c #ECDFBB",
"2 	c #ECE1BC",
"3 	c #ECE0BD",
"4 	c #EBDEBA",
"5 	c #C5A475",
"6 	c #B27556",
"7 	c #B37758",
"8 	c #E2CCA5",
"9 	c #D1AB89",
"0 	c #B27557",
"a 	c #B37857",
"b 	c #DBC39E",
"c 	c #EADBB8",
"d 	c #C5937A",
"e 	c #BE886D",
"f 	c #B37658",
"g 	c #B07354",
"h 	c #C59278",
"i 	c #C28F75",
"j 	c #D4B092",
"k 	c #EBDFBA",
"l 	c #C49379",
"m 	c #C38F76",
"n 	c #B17555",
"o 	c #B37759",
"p 	c #B4795B",
"q 	c #B17455",
"r 	c #C49177",
"s 	c #E2CDAB",
"t 	c #EADDB9",
"u 	c #C8987D",
"v 	c #C59279",
"w 	c #B98162",
"x 	c #E5D3AB",
"y 	c #C08B6E",
"z 	c #BE876C",
"A 	c #CDA286",
"B 	c #C6947A",
"C 	c #B77D60",
"D 	c #C8A97B",
"E 	c #C6A578",
"F 	c #B37958",
"G 	c #C38F75",
"H 	c #C49278",
"I 	c #E6D4B2",
"J 	c #C8997E",
"K 	c #EADCB9",
"L 	c #CDB182",
"M 	c #E6D6AB",
"N 	c #EDE2BE",
"O 	c #D4B294",
"P 	c #CEA488",
"Q 	c #E7D7B4",
"R 	c #C49077",
"S 	c #E6D5B2",
"T 	c #E1CFA8",
"U 	c #E9DBB1",
"V 	c #E3CFA7",
"W 	c #DDC39D",
"X 	c #D6BE91",
"Y 	c #C9AC7C",
"Z 	c #B4785A",
"` 	c #B67C5E",
" .	c #E3CFAD",
"..	c #EEE3BF",
"+.	c #CA9E7F",
"@.	c #AA5D49",
"#.	c #D0A988",
"$.	c #EBDEBB",
"%.	c #D1AC8F",
"&.	c #BB8468",
"*.	c #E5D2B1",
"=.	c #DBBF9A",
"-.	c #E8DBB5",
";.	c #BE886F",
">.	c #B3715B",
",.	c #B26E59",
"'.	c #AE6E50",
").	c #C28D74",
"!.	c #E3D2AB",
"~.	c #AE654F",
"{.	c #EDE1BD",
"].	c #D3AF91",
"^.	c #BF886F",
"/.	c #A45241",
"(.	c #A24E3D",
"_.	c #9E4836",
":.	c #A04C3A",
"<.	c #B16C57",
"[.	c #CCA185",
"}.	c #EADCB8",
"|.	c #E9DCB6",
"1.	c #DABD98",
"2.	c #CFB487",
"3.	c #C4A174",
"4.	c #B17556",
"5.	c #A55942",
"6.	c #A65644",
"7.	c #BF8A71",
"8.	c #DFC5A5",
"9.	c #E8D8AF",
"0.	c #AC624D",
"a.	c #CDA483",
"b.	c #E0C8A7",
"c.	c #A85A47",
"d.	c #AD6551",
"e.	c #E5D3B1",
"f.	c #C18B6F",
"g.	c #F0E6C4",
"h.	c #CEA689",
"i.	c #B87B63",
"j.	c #A2503E",
"k.	c #B97D65",
"l.	c #C39177",
"m.	c #DEC4A3",
"n.	c #EADCB7",
"o.	c #E3CEA7",
"p.	c #AA5E49",
"q.	c #AE6652",
"r.	c #A34B38",
"s.	c #B36248",
"t.	c #C9805E",
"u.	c #C87E5D",
"v.	c #A44C39",
"w.	c #D3BA8D",
"x.	c #C9AB7C",
"y.	c #E0C9A7",
"z.	c #C39077",
"A.	c #A44D3A",
"B.	c #A44D3B",
"C.	c #A54F3C",
"D.	c #C2785D",
"E.	c #DCAD97",
"F.	c #CE8C6D",
"G.	c #CD896A",
"H.	c #AE5C47",
"I.	c #C47D61",
"J.	c #CA9F83",
"K.	c #C99A7F",
"L.	c #C47A59",
"M.	c #AA5743",
"N.	c #C68E81",
"O.	c #BA6D54",
"P.	c #AD5944",
"Q.	c #D9BB9C",
"R.	c #C37A5E",
"S.	c #A7523F",
"T.	c #AA5C4E",
"U.	c #A6503D",
"V.	c #BC7258",
"W.	c #CB8769",
"X.	c #C38F72",
"Y.	c #BE886B",
"Z.	c #C18D72",
"`.	c #BF7962",
" +	c #A75545",
".+	c #AB5D4F",
"++	c #A44E3B",
"@+	c #C78063",
"#+	c #E7C8B9",
"$+	c #C78163",
"%+	c #C0765B",
"&+	c #B07353",
"*+	c #DABD9D",
"=+	c #EFDAD0",
"-+	c #CC8768",
";+	c #B2634C",
">+	c #A75343",
",+	c #BA6F56",
"'+	c #E4D0A8",
")+	c #C7A679",
"!+	c #A85747",
"~+	c #AF6558",
"{+	c #E1CAA3",
"]+	c #CA9C7D",
"^+	c #D5B491",
"/+	c #D4BC91",
"(+	c #EEE2BF",
"_+	c #DFB39F",
":+	c #CD8B6C",
"<+	c #B96C54",
"[+	c #A85647",
"}+	c #A85848",
"|+	c #A65140",
"1+	c #C79083",
"2+	c #D3B98B",
"3+	c #C8AA7B",
"4+	c #E2D1A9",
"5+	c #D09377",
"6+	c #AC5A45",
"7+	c #A65241",
"8+	c #B56650",
"9+	c #D49A7F",
"0+	c #EED6CC",
"a+	c #EBCFC2",
"b+	c #E8CABC",
"c+	c #E7C6B7",
"d+	c #D0B587",
"e+	c #D8A48C",
"f+	c #D49B80",
"g+	c #EDD4C8",
"h+	c #D19F8E",
"i+	c #AA5C4D",
"j+	c #A75443",
"k+	c #BF7D6B",
"l+	c #E1BAA8",
"m+	c #D3977C",
"n+	c #D7A087",
"o+	c #D19478",
"p+	c #E8D9AE",
"q+	c #DBC599",
"r+	c #CFB486",
"s+	c #E4C0AF",
"t+	c #DFBAAC",
"u+	c #B36A5B",
"v+	c #A7513E",
"w+	c #A9594A",
"x+	c #C7856F",
"y+	c #CB886A",
"z+	c #A85646",
"A+	c #C08477",
"B+	c #B86B52",
"C+	c #A44E3C",
"D+	c #C47C5F",
"E+	c #E0C8A2",
"F+	c #AC5841",
"G+	c #D9B2A7",
"H+	c #E6C3B4",
"I+	c #BA6E55",
"J+	c #A54E3B",
"K+	c #B97C62",
"L+	c #AC5944",
"M+	c #CC8869",
"N+	c #DFB5A1",
"O+	c #CF8D6F",
"P+	c #B6674F",
"Q+	c #AF5E48",
"R+	c #BE856A",
"S+	c #A54E3C",
"T+	c #B96C53",
"U+	c #AC5844",
"V+	c #B4654E",
"W+	c #AE5B46",
"X+	c #CB8869",
"Y+	c #A64F3D",
"Z+	c #AA5A4B",
"`+	c #BB7057",
" @	c #B26D56",
".@	c #C67F62",
"+@	c #A9594B",
"@@	c #D1AC8A",
"#@	c #A95440",
"$@	c #CD9482",
"%@	c #BA7E64",
"&@	c #DEC49E",
"*@	c #BA6C4F",
"=@	c #CA8566",
"-@	c #BD7359",
";@	c #AB604B",
">@	c #A8533F",
",@	c #DFC6A0",
"'@	c #C0896D",
")@	c #B6775E",
"!@	c #9A652F",
". . . . . . . . . . . . . . . . . . . . . . . . . . . . . . . . . . . . . . . . . . . . . . . . . . ",
". . . . . . . . . . . . . . . . . . . . . . . . . . . . . . . . . . . . . . . . . . . . . . . . . . ",
". . . . . . . . + + + + + + + + + + + + + + + + + + + + + + + + + + + + + + + + + + + + + + + + + . ",
". . . . . . . + + @ @ @ @ @ @ @ @ @ @ @ @ @ @ @ @ @ @ @ @ @ @ @ @ @ @ @ @ @ @ @ @ @ @ @ @ @ @ @ + . ",
". . . . . . + + @ @ @ @ @ @ @ @ # $ % % & * @ @ @ @ @ @ @ @ @ @ @ @ @ @ @ @ @ @ @ @ @ @ @ @ @ @ + . ",
". . . . . + + @ @ @ @ @ @ = - - - ; ; ; ; - - - > @ @ @ , ' ) ! @ @ @ @ @ @ @ @ @ @ @ @ @ @ @ @ + . ",
". . . . + + @ @ @ @ @ ~ - { ] ^ ^ / / / / ^ ( _ - - : < ' ' ' ' ! @ @ @ @ @ @ @ @ @ @ @ @ @ @ @ + . ",
". . . + + @ @ [ } [ - - | 1 2 3 2 2 / / / / / 2 4 5 6 7 ' ' ' ' 8 @ @ @ @ @ @ @ @ @ @ @ @ @ @ @ + . ",
". . + + @ @ 9 ' ' 0 a b / / / / 2 2 / 2 / / / / c d e 6 f ' ' ' 8 @ @ @ @ @ @ @ @ @ @ @ @ @ @ @ + . ",
". . + @ @ @ ' ' 0 g h i j 2 / / / / / / / / / k l i i m n o ' ' ! @ @ @ @ @ @ @ @ @ @ @ @ @ @ @ + . ",
". . + @ @ @ ' p q h i i i r s 2 / / / / / / t u i i i i v n w x @ @ @ @ @ @ @ @ @ @ @ @ @ @ @ @ + . ",
". . + @ @ @ y 6 z i i i i i i A t / / 2 / t B i i i i i i C D @ @ @ @ @ @ @ @ @ @ @ @ @ @ @ @ @ + . ",
". . + @ @ @ E F G i i i i i i i H I / / 2 J i i i i i i i K ; L @ @ @ @ @ @ @ @ @ @ @ @ @ @ @ @ + . ",
". . + @ @ M - N O i i i i i i i i i P Q J i R i i i i m S / T - U @ @ @ @ @ @ @ V W V @ @ @ @ @ + . ",
". . + @ @ X Y 3 / I l i i i i i i i i i i Z ` i i i i  ./ 2 ..- = @ @ @ @ @ @ +.@.@.@.#.@ @ @ @ + . ",
". . + @ @ - _ / / / $.%.i i i i i i i i &.q G i i i *./ / / / ; - @ @ @ @ @ =.@.@.@.@.@.@ @ @ @ + . ",
". . + @ @ - -.2 / / / 2 *.r i i i ;.>.,.'.).i i i s / / / / / !.- @ @ @ @ @ ~.@.@.@.@.@.@ @ @ @ + . ",
". . + @ @ - ^ / {.{.{.{.{.1 ].G ^./.(._.:.<.i i [.}./ 2 / / 2 |.- @ @ @ @ 1.@.@.@.@.@.@.@ @ @ @ + . ",
". . + @ @ - ^ / 2.; ; ; ; 3.4.g 5._._._.(.(.6.7.i i 8./ / / 2 |.- @ @ @ 9.0.@.@.@.@.@.a.@ @ @ @ + . ",
". . + @ @ - ^ / / / / / b.m i i c.(.(.(.(.(.(.(.d.7.i i e./ / |.- @ @ @ f.@.@.@.@.@.@.@ @ @ @ @ + . ",
". . + @ @ - g./ / 2 4 h.i i i i i.(.(.(.(.(.(.(.(.j.k.i i l.m.n.- @ @ o.p.@.@.@.@.@.9 @ @ @ @ @ + . ",
". . + @ @ - _ 2 / I d i i i i i i q.(.r.r.r.r.r.r.r.r.s.t.t.t.t.t.t.u.v.r.r.r.r.r.v.t.t.t.@ @ @ + . ",
". . + @ @ w.x./ y.i i i i i i i i z.].r.A.A.B.B.A.B.A.B.C.D.E.F.F.G.H.B.B.A.A.B.A.I.F.F.G.@ @ @ + . ",
". . + @ @ * x.J.i i i i i i i i K.c / L.M.B.B.A.B.B.A.A.A.B.N.F.G.O.B.B.A.B.B.A.P.G.F.G.F.@ @ @ + . ",
". . + @ @ x 6 g i i i i i i i Q./ / / t.G.R.S.A.A.B.B.B.B.A.T.U.V.A.B.B.A.B.B.A.W.G.F.F.G.@ @ @ + . ",
". . + @ x X.Y.6 Z.i i i i B *.2 / / / t.G.G.G.`.A.B.A.B.A. +.+B.B.B.A.B.A.A.++@+G.F.G.G.G.@ @ @ + . ",
". . + @ , ' ' f g R i i [./ / / / / / t.F.F.F.#+$+S.A.B.A..+.+A.B.B.A.A.B.A.%+F.G.G.G.F.G.@ @ @ + . ",
". . + @ } ' ' ' 6 &+G *+/ / / / / / / t.G.F.G.=+G.-+;+B.B..+.+A.A.A.A.>+T.,+F.G.F.G.F.G.G.@ @ @ + . ",
". . + @ '+' ' ' ' 6 )+^ 2 2 / / / / / t.F.F.F.=+G.F.G.I.!+ +.+A.B.A.A..+~+F.G.G.F.G.G.F.F.@ @ @ + . ",
". . + @ @ {+]+' ^+! - - /+(+2 / 2 / / t.F.G._+=+F.G.:+<+.+A..+A.A.B.[+}+|+1+G.F.F.F.F.G.F.@ @ @ + . ",
". . + @ @ @ @ @ @ @ @ 2+- 3+4+....2 / t.G.G.=+=+G.5+6+B..+A..+ +>+7+.+A.B..+8+9+0+a+b+a+c+@ @ @ + . ",
". . + @ @ @ @ @ @ @ @ @ @ d+- - - ; ; t.e+f+=+g+h+.+i+.+ +A..+.+[+}+j+B.B.[+j+k+l+m+n+o+F.@ @ @ + . ",
". . + @ @ @ @ @ @ @ @ @ @ @ @ p+q+r+- t.s+b+t+u+.+A.A.A.B.A.i+.+v+B.B.A.B.7+}+w+x+G.G.G.F.@ @ @ + . ",
". . + @ @ @ @ @ @ @ @ @ @ @ @ @ @ @ @ t.y+;+A.z+|+B.A.B.A.A..+A+-+B+A.B.B.C+T..+B.D+G.G.F.@ @ @ + . ",
". . + @ @ @ @ @ @ @ @ @ @ @ @ @ @ @ E+F+A.A.A.7+B.B.A.A.B.B.G+H+F.G.I+A.B.B..+.+A.J+G.G.G.@ @ @ + . ",
". . + @ @ @ @ @ @ @ @ @ @ @ @ @ x K+@.r.A.A.A.B.B.B.A.B.L+M+N+O+G.F.F.P+B.A..+.+A.A.Q+G.G.@ @ @ + . ",
". . + @ @ @ @ @ @ @ @ @ @ @ @ @ R+@.@.r.A.A.B.B.A.A.S+T+:+G.E.G.F.F.G.G.U+A..+.+A.B.A.V+F.@ @ @ + . ",
". . + @ @ @ @ @ @ @ @ @ @ @ @ @ @.@.@.r.A.A.B.B.A.W+X+G.G.G.e+G.G.F.F.G.-+Y+.+Z+A.A.B.A.`+@ @ @ + . ",
". . + @ @ @ @ @ @ @ @ @ @ @ @ @  @@.@.r.B.A.B.v+.@G.G.F.G.G.O+F.G.F.G.G.G.@+.++@A.A.A.A.B.o.@ @ + . ",
". . + @ @ @ @ @ @ @ @ @ @ @ @ @ @@@.@.r.A.#@.@G.G.F.F.F.G.G.F.G.G.F.G.F.G.G.$@|+A.A.A.A.B.%@@ @ + . ",
". . + @ @ @ @ @ @ @ @ @ @ @ @ @ @ &@]+*@=@F.F.G.F.F.F.G.G.F.G.G.G.F.G.G.G.G.n+-@A.B.A.A.A.;@@ @ + . ",
". . + @ @ @ @ @ @ @ @ @ @ @ @ @ @ @ @ t.G.F.G.F.G.G.F.G.G.G.G.G.G.G.G.F.G.G.F.G.>@A.B.A.A.@.@ + + . ",
". . + @ @ @ @ @ @ @ @ @ @ @ @ @ @ @ @ @ @ @ @ @ @ @ @ @ @ @ @ @ @ @ @ @ @ @ @ @ ,@@.@.@.@.'@+ + . . ",
". . + @ @ @ @ @ @ @ @ @ @ @ @ @ @ @ @ @ @ @ @ @ @ @ @ @ @ @ @ @ @ @ @ @ @ @ @ @ @ =.)@@.]+!@+ . . . ",
". . + @ @ @ @ @ @ @ @ @ @ @ @ @ @ @ @ @ @ @ @ @ @ @ @ @ @ @ @ @ @ @ @ @ @ @ @ @ @ @ @ @ + + . . . . ",
". . + @ @ @ @ @ @ @ @ @ @ @ @ @ @ @ @ @ @ @ @ @ @ @ @ @ @ @ @ @ @ @ @ @ @ @ @ @ @ @ @ + + . . . . . ",
". . + @ @ @ @ @ @ @ @ @ @ @ @ @ @ @ @ @ @ @ @ @ @ @ @ @ @ @ @ @ @ @ @ @ @ @ @ @ @ @ + + . . . . . . ",
". . + @ @ @ @ @ @ @ @ @ @ @ @ @ @ @ @ @ @ @ @ @ @ @ @ @ @ @ @ @ @ @ @ @ @ @ @ @ @ + + . . . . . . . ",
". . + + + + + + + + + + + + + + + + + + + + + + + + + + + + + + + + + + + + + + + + . . . . . . . . ",
". . . . . . . . . . . . . . . . . . . . . . . . . . . . . . . . . . . . . . . . . . . . . . . . . . "};
