/* XPM */
static char * r1_xpm[] = {
"30 30 421 2",
"  	c None",
". 	c #EAE1D0",
"+ 	c #E9E0CF",
"@ 	c #E7DDCB",
"# 	c #E5DAC8",
"$ 	c #E3D9C6",
"% 	c #E3D8C5",
"& 	c #E4D9C7",
"* 	c #E6DCCA",
"= 	c #E8DFCE",
"- 	c #ECE4D4",
"; 	c #E7DDCA",
"> 	c #D2C2AA",
", 	c #BBA789",
"' 	c #A98A61",
") 	c #A17A40",
"! 	c #9D712E",
"~ 	c #9D6F2A",
"{ 	c #9F7637",
"] 	c #A48352",
"^ 	c #B29978",
"/ 	c #C9B79E",
"( 	c #DED1BC",
"_ 	c #EDE5D5",
": 	c #EAE2D1",
"< 	c #EBE2D2",
"[ 	c #EEE6D7",
"} 	c #C3AF91",
"| 	c #97774B",
"1 	c #9A681F",
"2 	c #B37002",
"3 	c #CC8200",
"4 	c #DC8E00",
"5 	c #E59700",
"6 	c #E79900",
"7 	c #E09600",
"8 	c #D38D00",
"9 	c #BE7E00",
"0 	c #A46F10",
"a 	c #916C39",
"b 	c #AD9270",
"c 	c #E1D6C1",
"d 	c #EBE3D2",
"e 	c #E2D7C3",
"f 	c #99794E",
"g 	c #8F5E18",
"h 	c #D78803",
"i 	c #F59E00",
"j 	c #FCA400",
"k 	c #FFA900",
"l 	c #FFAA00",
"m 	c #FFAC00",
"n 	c #FFAE00",
"o 	c #FFB000",
"p 	c #FFB100",
"q 	c #FFB300",
"r 	c #F8AF00",
"s 	c #EBA600",
"t 	c #AE770C",
"u 	c #845E2F",
"v 	c #CAB89C",
"w 	c #DBCDB7",
"x 	c #8C6633",
"y 	c #AC6C07",
"z 	c #FEA300",
"A 	c #FFA500",
"B 	c #FEA600",
"C 	c #FFA800",
"D 	c #FEAA00",
"E 	c #FFAF00",
"F 	c #FEB500",
"G 	c #FEB700",
"H 	c #FFB800",
"I 	c #FFBB00",
"J 	c #D89B04",
"K 	c #845511",
"L 	c #C1AB8B",
"M 	c #E9DFCE",
"N 	c #8E652C",
"O 	c #BE7601",
"P 	c #FFA400",
"Q 	c #FEA700",
"R 	c #FDAD00",
"S 	c #FAAB00",
"T 	c #FAAC00",
"U 	c #FAAE00",
"V 	c #FEB400",
"W 	c #FFB700",
"X 	c #FEB800",
"Y 	c #FFBA00",
"Z 	c #FFBC00",
"` 	c #FFC100",
" .	c #E3A702",
"..	c #895805",
"+.	c #BDA785",
"@.	c #FFA600",
"#.	c #FFAD00",
"$.	c #F6A700",
"%.	c #E79D04",
"&.	c #E8A006",
"*.	c #E59A02",
"=.	c #EA9C00",
"-.	c #FCB500",
";.	c #FEBC00",
">.	c #FEBE00",
",.	c #FEC000",
"'.	c #FFC600",
").	c #E6AD02",
"!.	c #87570D",
"~.	c #C0AA8B",
"{.	c #EFE7D8",
"].	c #FFAB00",
"^.	c #E19400",
"/.	c #F0B414",
"(.	c #FBC720",
"_.	c #FBC822",
":.	c #FAC923",
"<.	c #E9A20D",
"[.	c #E99B00",
"}.	c #FFBD00",
"|.	c #FFBF00",
"1.	c #FFC000",
"2.	c #FEC200",
"3.	c #FEC400",
"4.	c #FFC900",
"5.	c #E3AE03",
"6.	c #835A25",
"7.	c #D5C6AE",
"8.	c #EBE3D3",
"9.	c #FEA400",
"0.	c #FEA800",
"a.	c #FEB000",
"b.	c #DE8F00",
"c.	c #FDCB23",
"d.	c #FFD028",
"e.	c #FFD229",
"f.	c #FFD32B",
"g.	c #FDCF2A",
"h.	c #E28E00",
"i.	c #FCBB00",
"j.	c #FFC200",
"k.	c #FFC400",
"l.	c #FEC500",
"m.	c #FFC700",
"n.	c #FFCA00",
"o.	c #C49206",
"p.	c #9C7C56",
"q.	c #E9E0CE",
"r.	c #D78903",
"s.	c #FFB400",
"t.	c #E49600",
"u.	c #E9A40E",
"v.	c #FED22A",
"w.	c #FFD52D",
"x.	c #FED62F",
"y.	c #FDD32F",
"z.	c #E28D00",
"A.	c #FCBC00",
"B.	c #FFC300",
"C.	c #FFC800",
"D.	c #FECC00",
"E.	c #F5C400",
"F.	c #986D1F",
"G.	c #D0C0A8",
"H.	c #9A691F",
"I.	c #F5A000",
"J.	c #FEB200",
"K.	c #FFB500",
"L.	c #FCB300",
"M.	c #E59500",
"N.	c #EBAA14",
"O.	c #FED52F",
"P.	c #FFD833",
"Q.	c #FDD532",
"R.	c #E28B00",
"S.	c #FCBF00",
"T.	c #FFCC00",
"U.	c #FFCD00",
"V.	c #FDCE00",
"W.	c #BA8A00",
"X.	c #B49A7A",
"Y.	c #BBA689",
"Z.	c #B37102",
"`.	c #FCA600",
" +	c #FFB200",
".+	c #FEB600",
"++	c #FFB900",
"@+	c #FAB300",
"#+	c #E69806",
"$+	c #F8CA2B",
"%+	c #FFDB37",
"&+	c #FDD735",
"*+	c #E28A00",
"=+	c #FCC000",
"-+	c #FFCE00",
";+	c #FFD000",
">+	c #FFD200",
",+	c #D8AB00",
"'+	c #9F7B41",
")+	c #CC8400",
"!+	c #FBB600",
"~+	c #E39306",
"{+	c #F8CB2C",
"]+	c #FFDD39",
"^+	c #FDD938",
"/+	c #E28900",
"(+	c #FCC200",
"_+	c #FFD100",
":+	c #FFD400",
"<+	c #EDC300",
"[+	c #956A15",
"}+	c #DC9000",
"|+	c #FEB900",
"1+	c #FCB700",
"2+	c #ECAB1A",
"3+	c #FFDD3B",
"4+	c #FFE03D",
"5+	c #FDDB3C",
"6+	c #E28700",
"7+	c #FCC400",
"8+	c #FFCB00",
"9+	c #FFD500",
"0+	c #FCD400",
"a+	c #936500",
"b+	c #DACDB7",
"c+	c #E59900",
"d+	c #FFB600",
"e+	c #FEBB00",
"f+	c #E38D00",
"g+	c #EBA819",
"h+	c #FFE03F",
"i+	c #FEE140",
"j+	c #FDDE3E",
"k+	c #E28600",
"l+	c #FCC500",
"m+	c #FFD700",
"n+	c #FFDF00",
"o+	c #9C6F00",
"p+	c #CDBBA0",
"q+	c #9D702A",
"r+	c #E79C00",
"s+	c #FFBE00",
"t+	c #F5AC00",
"u+	c #E28E07",
"v+	c #FFE03E",
"w+	c #FFE240",
"x+	c #FEE241",
"y+	c #FFE444",
"z+	c #FDDF42",
"A+	c #E28400",
"B+	c #FCC800",
"C+	c #FFCF00",
"D+	c #FFD600",
"E+	c #FFD800",
"F+	c #FED900",
"G+	c #FFE300",
"H+	c #9D7200",
"I+	c #CAB79C",
"J+	c #E09900",
"K+	c #F3AA00",
"L+	c #E6960D",
"M+	c #FFE644",
"N+	c #FEE443",
"O+	c #FFE545",
"P+	c #FFE648",
"Q+	c #FDE145",
"R+	c #E28300",
"S+	c #FCC900",
"T+	c #FFD900",
"U+	c #FFDC00",
"V+	c #986C00",
"W+	c #D4C4AC",
"X+	c #D38F00",
"Y+	c #F4AA00",
"Z+	c #E6960E",
"`+	c #FFE948",
" @	c #FFE647",
".@	c #FFE749",
"+@	c #FFE94B",
"@@	c #FDE449",
"#@	c #E28100",
"$@	c #FCCB00",
"%@	c #FFD300",
"&@	c #FFDA00",
"*@	c #FFDE00",
"=@	c #F3D300",
"-@	c #926707",
";@	c #E1D5C1",
">@	c #BE8000",
",@	c #F4AC00",
"'@	c #E6950F",
")@	c #FFEC4C",
"!@	c #FFEA4D",
"~@	c #FFEB4E",
"{@	c #FDE64C",
"]@	c #E28000",
"^@	c #FCCC00",
"/@	c #FFE100",
"(@	c #E1BF00",
"_@	c #9A752E",
":@	c #A47010",
"<@	c #F8B300",
"[@	c #FEBA00",
"}@	c #E69410",
"|@	c #FFEE4F",
"1@	c #FFEC50",
"2@	c #FFED52",
"3@	c #FDE850",
"4@	c #E27E00",
"5@	c #FCCE00",
"6@	c #FFE000",
"7@	c #FFE200",
"8@	c #C8A400",
"9@	c #A88B63",
"0@	c #EBA900",
"a@	c #FFC500",
"b@	c #F4AD00",
"c@	c #E69310",
"d@	c #FFF052",
"e@	c #FFEE52",
"f@	c #FFEF54",
"g@	c #FFF056",
"h@	c #FDEA53",
"i@	c #E27D00",
"j@	c #FCD000",
"k@	c #FEE100",
"l@	c #F8DC00",
"m@	c #A57E0C",
"n@	c #C6B198",
"o@	c #AE790C",
"p@	c #F4AE00",
"q@	c #E69211",
"r@	c #FFF256",
"s@	c #FEEF55",
"t@	c #FFF157",
"u@	c #FEF259",
"v@	c #FDED56",
"w@	c #E27C00",
"x@	c #FCD200",
"y@	c #FFDB00",
"z@	c #FFDD00",
"A@	c #FEE200",
"B@	c #FFE400",
"C@	c #E3C402",
"D@	c #906C3E",
"E@	c #DFD3BF",
"F@	c #845D2F",
"G@	c #D89E04",
"H@	c #FEC300",
"I@	c #F4AF00",
"J@	c #E58E0F",
"K@	c #FFF75B",
"L@	c #FFF359",
"M@	c #FFF45B",
"N@	c #FFF55C",
"O@	c #FCE954",
"P@	c #E27B00",
"Q@	c #FDD400",
"R@	c #FFE500",
"S@	c #F9DF00",
"T@	c #936A14",
"U@	c #BDA689",
"V@	c #EDE6D6",
"W@	c #E3AB02",
"X@	c #FEC700",
"Y@	c #FEC900",
"Z@	c #FAC300",
"`@	c #DF7901",
" #	c #F2C138",
".#	c #FBE651",
"+#	c #FDEC55",
"@#	c #F9DC4B",
"##	c #EAA024",
"$#	c #E78D00",
"%#	c #FFE600",
"&#	c #FEE500",
"*#	c #A47D05",
"=#	c #9E7D58",
"-#	c #895905",
";#	c #E6B002",
">#	c #F6B800",
",#	c #E58802",
"'#	c #E17D0E",
")#	c #E17D10",
"!#	c #E27D0B",
"~#	c #EA9600",
"{#	c #FBD200",
"]#	c #A88101",
"^#	c #957142",
"/#	c #E6DBC9",
"(#	c #EBE2D1",
"_#	c #87590D",
":#	c #E3B103",
"<#	c #FED000",
"[#	c #FED100",
"}#	c #FED400",
"|#	c #FED500",
"1#	c #FED600",
"2#	c #FEDC00",
"3#	c #FEE300",
"4#	c #F9E000",
"5#	c #E6DBC8",
"6#	c #C49506",
"7#	c #F5C800",
"8#	c #FDD200",
"9#	c #F8DD00",
"0#	c #E3C602",
"a#	c #EAE0CF",
"b#	c #986E1F",
"c#	c #BA8C00",
"d#	c #D8AE00",
"e#	c #EDC500",
"f#	c #FCD700",
"g#	c #F3D500",
"h#	c #E1C200",
"i#	c #C8A500",
"j#	c #936600",
"k#	c #9C7000",
"l#	c #9D7300",
"m#	c #986D00",
"n#	c #926807",
". . . . . . . . + . . + @ # $ % & * = . . . + . . . . . . . ",
". . . . . . + . - ; > , ' ) ! ~ { ] ^ / ( _ : + . . . . . . ",
". . . . . + < [ } | 1 2 3 4 5 6 7 8 9 0 a b c [ + + . . . . ",
". . . . + d e f g h i j k l m n o p q r s t u v - . . . . . ",
". . . + . w x y z A B C D m n E p q F G H I J K L M . + . . ",
". . + d w N O P A Q C D m R S T U V W X Y Z `  ...+.d . + . ",
". + < e x O P @.B k D #.$.6 %.&.*.=.-.I ;.>.,.'.).!.~.{.+ . ",
". . [ f y A @.Q k ].#.E ^./.(._.:.<.[.}.|.1.2.3.4.5.6.7.8.+ ",
"+ - } g 9.@.0.k ].#.E a.b.c.d.e.f.g.h.i.1.j.k.l.m.n.o.p.q.. ",
". ; | r.@.Q k ].#.E p s.t.u.v.w.x.y.z.A.B.k.'.C.n.D.E.F.G.. ",
". > H.I.0.l ].#.E p J.K.L.M.N.O.P.Q.R.S.k.'.C.n.T.U.V.W.X.M ",
"+ Y.Z.`.l m #.E p  +s..+++@+#+$+%+&+*+=+m.C.n.T.-+;+>+,+'+# ",
"@ ' )+].m n E p q K.W X Y !+~+{+]+^+/+(+4.n.T.-+;+_+:+<+[+e ",
"# ) }+#.n E  +s.K.W |+I 1+z.2+3+4+5+6+7+8+U.-+;+_+:+9+0+a+b+",
"$ ! c+E o  +s.d+W ++I e+f+g+4+h+i+j+k+l+U.-+;+>+:+9+m+n+o+p+",
"% q+r+p  +s.K.W ++I s+t+u+v+w+x+y+z+A+B+C+;+>+:+D+E+F+G+H+I+",
"& { J+q s.d+H ++I }.1.K+L+M+N+O+P+Q+R+S+_+>+9+D+E+T+U+n+V+W+",
"* ] X+K.d+H Y I s+|.B.Y+Z+`+ @.@+@@@#@$@%@9+D+E+&@U+*@=@-@;@",
"= ^ >@d+H Y Z }.|.` k.,@'@)@+@!@~@{@]@^@9+D+E+&@U+*@/@(@_@$ ",
". / :@<@[@Z s+|.` B.m.,@}@|@~@1@2@3@4@5@m+T+&@U+*@6@7@8@9@@ ",
". ( a 0@Z s+1.j.B.a@4.b@c@d@e@f@g@h@i@j@T+&@U+*@6@k@l@m@n@. ",
". _ b o@1.1.2.B.'.m.8+p@q@r@s@t@u@v@w@x@y@z@*@6@A@B@C@D@E@. ",
"+ : c F@G@'.H@l.C.4.U.I@J@K@L@M@N@O@P@Q@z@n+6@A@R@S@T@U@V@+ ",
". + [ v K W@n.X@Y@8+-+Z@`@ #.#+#@###$#z@n+6@A@%#&#*#=#d . + ",
". . + - L -#;#U.8+U.C+%@>#,#'#)#!#~#{#6@k@A@%#&#]#^#/#(#+ . ",
". . + . M +._#:#-+<#[#%@}#}#|#1#F+2#n+/@3#R@4#*#^#5#. + . . ",
". . . . . d ~.6.6#7#8#D+m+E+&@2#*@6@G+B@9#0#T@=#/#. a#. . . ",
". . . . + . {.7.p.b#c#d#e#f#7@%#7@g#h#i#m@D@U@d (#+ . . . . ",
". . . . . + + 8.q.G.X.'+[+j#k#l#m#n#_@9@n@E@V@. + . . . . . ",
". . . . . . . + . . M # e b+p+I+W+;@$ @ . . + + . . . . . . "};
