/* XPM */
static char * r2_xpm[] = {
"30 30 473 2",
"  	c None",
". 	c #EAE1D0",
"+ 	c #E9E0CF",
"@ 	c #E6DDCD",
"# 	c #E3DBCA",
"$ 	c #E1D9C9",
"% 	c #E2DACA",
"& 	c #E4DCCC",
"* 	c #E8DFCE",
"= 	c #EDE4D2",
"- 	c #E5DDCC",
"; 	c #C8C3B7",
"> 	c #AAA89F",
", 	c #8C8E8A",
"' 	c #7A7F7E",
") 	c #707778",
"! 	c #6E7577",
"~ 	c #767C7C",
"{ 	c #848785",
"] 	c #9C9B95",
"^ 	c #BDB9AE",
"/ 	c #D9D2C3",
"( 	c #EEE5D3",
"_ 	c #EBE2D1",
": 	c #ECE2D1",
"< 	c #F0E6D4",
"[ 	c #B3B1A7",
"} 	c #767A78",
"| 	c #677073",
"1 	c #707C81",
"2 	c #839095",
"3 	c #8F9BA0",
"4 	c #97A4A8",
"5 	c #99A6AA",
"6 	c #94A1A6",
"7 	c #8A979C",
"8 	c #79868C",
"9 	c #6B757A",
"0 	c #6B7171",
"a 	c #959590",
"b 	c #DED6C7",
"c 	c #ECE3D1",
"d 	c #DFD7C8",
"e 	c #787D7A",
"f 	c #5C6569",
"g 	c #8B989C",
"h 	c #A2AFB3",
"i 	c #A8B5B9",
"j 	c #ACB9BD",
"k 	c #ADBABE",
"l 	c #AEBBBF",
"m 	c #AFBCC0",
"n 	c #AFBCC1",
"o 	c #AAB7BB",
"p 	c #A0ADB2",
"q 	c #727D81",
"r 	c #5C6365",
"s 	c #D4CEC0",
"t 	c #646B6C",
"u 	c #6C787C",
"v 	c #A9B6BA",
"w 	c #ABB8BC",
"x 	c #ADB9BC",
"y 	c #ADBABF",
"z 	c #AEBBC0",
"A 	c #B0BDC1",
"B 	c #B1BEC2",
"C 	c #B1BEC3",
"D 	c #B3C0C5",
"E 	c #949FA4",
"F 	c #515B60",
"G 	c #AFADA4",
"H 	c #636A6C",
"I 	c #788489",
"J 	c #ACB8BC",
"K 	c #ADB9BE",
"L 	c #AFBBBF",
"M 	c #B1BDC2",
"N 	c #B1BFC3",
"O 	c #B3C0C4",
"P 	c #B4C1C5",
"Q 	c #B5C2C7",
"R 	c #B8C5C9",
"S 	c #9DAAAF",
"T 	c #525D64",
"U 	c #ABA9A0",
"V 	c #646A6C",
"W 	c #ABB8BD",
"X 	c #9FACB0",
"Y 	c #99A6AB",
"Z 	c #98A4A9",
"` 	c #95A3A8",
" .	c #95A2A6",
"..	c #93A1A5",
"+.	c #93A0A4",
"@.	c #91A0A4",
"#.	c #919EA2",
"$.	c #8F9DA2",
"%.	c #8F9DA1",
"&.	c #9FADB1",
"*.	c #B9C7CB",
"=.	c #A1AEB3",
"-.	c #535D62",
";.	c #AEACA3",
">.	c #F1E7D5",
",.	c #6D787D",
"'.	c #9BA8AC",
").	c #95A1A6",
"!.	c #AAB6BA",
"~.	c #ADB9BD",
"{.	c #ADB8BB",
"].	c #ADB8BC",
"^.	c #ACB7BB",
"/.	c #ADB7BB",
"(.	c #ABB5B9",
"_.	c #838F93",
":.	c #96A3A8",
"<.	c #BAC8CC",
"[.	c #A1ADB2",
"}.	c #586062",
"|.	c #CDC7BA",
"1.	c #ECE3D2",
"2.	c #5C6669",
"3.	c #ACB9BE",
"4.	c #8D999E",
"5.	c #BBC7CB",
"6.	c #C8D4D8",
"7.	c #CAD5D9",
"8.	c #CBD6DA",
"9.	c #CCD7DA",
"0.	c #CDD8DC",
"a.	c #CFD9DC",
"b.	c #D0DADD",
"c.	c #D2DBDE",
"d.	c #D3DCDF",
"e.	c #D5DDE0",
"f.	c #D6DEE1",
"g.	c #D7DFE1",
"h.	c #D8E0E2",
"i.	c #C6CED2",
"j.	c #829093",
"k.	c #AFBDC1",
"l.	c #879499",
"m.	c #7D807D",
"n.	c #909EA2",
"o.	c #A7B4B7",
"p.	c #C4CFD3",
"q.	c #C5D1D4",
"r.	c #C6D1D5",
"s.	c #C8D2D5",
"t.	c #C9D2D6",
"u.	c #CAD4D7",
"v.	c #CBD3D7",
"w.	c #CCD4D7",
"x.	c #D1D9DC",
"y.	c #D8E0E3",
"z.	c #DAE2E4",
"A.	c #CED5D9",
"B.	c #8B979B",
"C.	c #ADBBC0",
"D.	c #BAC7CC",
"E.	c #B1BFC4",
"F.	c #687174",
"G.	c #C6C1B5",
"H.	c #677174",
"I.	c #A5B2B6",
"J.	c #8F9CA1",
"K.	c #94A1A5",
"L.	c #939FA4",
"M.	c #929EA3",
"N.	c #919DA1",
"O.	c #909CA1",
"P.	c #8F9C9F",
"Q.	c #8E9B9F",
"R.	c #8C989C",
"S.	c #909CA0",
"T.	c #CBD4D6",
"U.	c #DCE2E5",
"V.	c #CFD6D9",
"W.	c #899599",
"X.	c #AEBCC0",
"Y.	c #BBC8CD",
"Z.	c #7D8A90",
"`.	c #9E9E97",
" +	c #A9A89F",
".+	c #717D82",
"++	c #AFBBC0",
"@+	c #A9B7BB",
"#+	c #AAB7BC",
"$+	c #ABB9BD",
"%+	c #B3BCBE",
"&+	c #DDE3E6",
"*+	c #D0D7D9",
"=+	c #879498",
"-+	c #BBCACE",
";+	c #BECCD0",
">+	c #9AA8AC",
",+	c #797E7E",
"'+	c #869297",
")+	c #B0BDC2",
"!+	c #B2BFC3",
"~+	c #ADBBBF",
"{+	c #B0BEC2",
"]+	c #B0BDC3",
"^+	c #7E8C91",
"/+	c #B1BABD",
"(+	c #DFE5E7",
"_+	c #D1D7DA",
":+	c #AEBDC1",
"<+	c #BCCACF",
"[+	c #AEBBC1",
"}+	c #636D72",
"|+	c #DFD7C7",
"1+	c #E3DACA",
"2+	c #7A807F",
"3+	c #B1BEC1",
"4+	c #A6B4B8",
"5+	c #828F94",
"6+	c #828F93",
"7+	c #818E92",
"8+	c #7F8C91",
"9+	c #7E8B8F",
"0+	c #7C898D",
"a+	c #7B878B",
"b+	c #79868A",
"c+	c #778387",
"d+	c #748185",
"e+	c #8A9599",
"f+	c #D5DCDE",
"g+	c #E0E6E8",
"h+	c #D4DBDC",
"i+	c #889498",
"j+	c #BECCD1",
"k+	c #BECDD1",
"l+	c #5B686E",
"m+	c #D4CEBF",
"n+	c #717879",
"o+	c #9BA7AD",
"p+	c #859297",
"q+	c #AEBABD",
"r+	c #D1DBDE",
"s+	c #D1DADD",
"t+	c #D4DCDF",
"u+	c #D4DDDF",
"v+	c #D8DFE1",
"w+	c #D9E0E2",
"x+	c #DAE1E3",
"y+	c #DCE3E5",
"z+	c #E3E9EB",
"A+	c #E1E7E9",
"B+	c #D7DDDE",
"C+	c #859195",
"D+	c #AEBCC1",
"E+	c #BFCDD2",
"F+	c #C5D3D8",
"G+	c #647077",
"H+	c #C1BDB1",
"I+	c #6F7678",
"J+	c #B2C0C4",
"K+	c #B2BFC4",
"L+	c #B3C1C5",
"M+	c #A7B4B8",
"N+	c #8A979A",
"O+	c #D4DDE0",
"P+	c #D5DEE1",
"Q+	c #D6E0E1",
"R+	c #DEE4E8",
"S+	c #E1E8EA",
"T+	c #E2E9EB",
"U+	c #E4EAEC",
"V+	c #E5EBEE",
"W+	c #E7ECEE",
"X+	c #E8EDEF",
"Y+	c #EAEEF0",
"Z+	c #EBEFF1",
"`+	c #B4BCBE",
" @	c #78868B",
".@	c #B7C5CA",
"+@	c #BFCED2",
"@@	c #C0CFD3",
"#@	c #C7D6DB",
"$@	c #667278",
"%@	c #B4C2C6",
"&@	c #A6B3B8",
"*@	c #8C989E",
"=@	c #D5DEE0",
"-@	c #D6DFE1",
";@	c #DAE2E5",
">@	c #9DA8AB",
",@	c #828E91",
"'@	c #838F92",
")@	c #818D91",
"!@	c #808C90",
"~@	c #808B8F",
"{@	c #7E8A8E",
"]@	c #7D8A8D",
"^@	c #788488",
"/@	c #6B787C",
"(@	c #A4B2B6",
"_@	c #C1CFD4",
":@	c #C2D0D5",
"<@	c #C3D2D7",
"[@	c #616D73",
"}@	c #CBC5B8",
"|@	c #8E9BA0",
"1@	c #B5C3C7",
"2@	c #B6C4C8",
"3@	c #A7B3B9",
"4@	c #B3BCBF",
"5@	c #728085",
"6@	c #A2B0B4",
"7@	c #A1AFB3",
"8@	c #A0AEB3",
"9@	c #A0AEB2",
"0@	c #BAC8CD",
"a@	c #C2D1D5",
"b@	c #C3D1D6",
"c@	c #B8C7CB",
"d@	c #5D696E",
"e@	c #DDD5C7",
"f@	c #9B9B95",
"g@	c #B6C3C7",
"h@	c #B7C5C9",
"i@	c #A6B4B9",
"j@	c #DDE4E7",
"k@	c #ABB5B8",
"l@	c #7D8B90",
"m@	c #B9C7CC",
"n@	c #B7C6CB",
"o@	c #B9C6CB",
"p@	c #BAC9CD",
"q@	c #C3D2D6",
"r@	c #A8B6BB",
"s@	c #707779",
"t@	c #BDB8AE",
"u@	c #6D777C",
"v@	c #B8C5CA",
"w@	c #A7B5B9",
"x@	c #89959A",
"y@	c #DAE1E4",
"z@	c #D0D8DA",
"A@	c #7D8A8F",
"B@	c #7B888C",
"C@	c #7A878C",
"D@	c #78868A",
"E@	c #78858A",
"F@	c #7C8A90",
"G@	c #B4C3C8",
"H@	c #C4D3D8",
"I@	c #C4D2D7",
"J@	c #C6D4D9",
"K@	c #8D8E8A",
"L@	c #6B7071",
"M@	c #A6B3B7",
"N@	c #889599",
"O@	c #D9E1E3",
"P@	c #DBE2E4",
"Q@	c #DEE5E7",
"R@	c #D5DBDD",
"S@	c #CED5D7",
"T@	c #CFD5D8",
"U@	c #D0D6D8",
"V@	c #D1D7D8",
"W@	c #D1D7D9",
"X@	c #D2D8D9",
"Y@	c #D4D8DA",
"Z@	c #D4D9DA",
"`@	c #9BA3A6",
" #	c #819095",
".#	c #C0CED3",
"+#	c #717C81",
"@#	c #B7B4A9",
"##	c #95958F",
"$#	c #748085",
"%#	c #ACBABE",
"&#	c #79878B",
"*#	c #D4DBDE",
"=#	c #DBE2E5",
"-#	c #DEE4E6",
";#	c #DFE5E6",
">#	c #E1E6E8",
",#	c #E2E7E9",
"'#	c #E3E8E9",
")#	c #E4E8EA",
"!#	c #E5E9EB",
"~#	c #E7EBEC",
"{#	c #E9ECED",
"]#	c #EAEDEE",
"^#	c #C9CECF",
"/#	c #738286",
"(#	c #C1D0D4",
"_#	c #C6D5DA",
":#	c #ABBABE",
"<#	c #6C7170",
"[#	c #DBD4C5",
"}#	c #98A5AA",
"|#	c #BDCBD0",
"1#	c #8C999D",
"2#	c #828F92",
"3#	c #B5BFC1",
"4#	c #B8C1C3",
"5#	c #B8C0C3",
"6#	c #B9C1C3",
"7#	c #B9C0C3",
"8#	c #BAC1C2",
"9#	c #BAC0C3",
"0#	c #BAC1C3",
"a#	c #BBC1C3",
"b#	c #B7BEC0",
"c#	c #748084",
"d#	c #909FA3",
"e#	c #C9D8DC",
"f#	c #C1D0D5",
"g#	c #636D71",
"h#	c #EFE5D4",
"i#	c #525C60",
"j#	c #A3B0B5",
"k#	c #BBC9CE",
"l#	c #859398",
"m#	c #849297",
"n#	c #839196",
"o#	c #829195",
"p#	c #819094",
"q#	c #818F93",
"r#	c #7F8E93",
"s#	c #7F8D92",
"t#	c #7E8D92",
"u#	c #7D8C90",
"v#	c #7C8B90",
"w#	c #7B8A8F",
"x#	c #96A5AA",
"y#	c #C4D3D9",
"z#	c #6F7B81",
"A#	c #7F827F",
"B#	c #535E65",
"C#	c #A7B4B9",
"D#	c #C2D1D6",
"E#	c #C4D3D7",
"F#	c #CAD9DE",
"G#	c #C8D6DC",
"H#	c #727F85",
"I#	c #717676",
"J#	c #E4DCCB",
"K#	c #535E63",
"L#	c #C3D1D7",
"M#	c #C8D7DC",
"N#	c #6F7C81",
"O#	c #E3DBCC",
"P#	c #576063",
"Q#	c #8B989D",
"R#	c #B8C6CB",
"S#	c #C8D6DB",
"T#	c #7F817F",
"U#	c #E9E0D0",
"V#	c #697275",
"W#	c #808D93",
"X#	c #9EACB2",
"Y#	c #B3C1C6",
"Z#	c #CCDCE0",
"`#	c #BCCBCF",
" $	c #AAB9BE",
".$	c #919FA5",
"+$	c #727E82",
"@$	c #6B7170",
"#$	c #9E9E96",
"$$	c #797F7E",
"%$	c #646F73",
"&$	c #5D696F",
"*$	c #657278",
"=$	c #67747A",
"-$	c #626E75",
";$	c #5E6A6F",
">$	c #707879",
". . . . . . . . + . . + @ # $ $ % & * . . . + . . . . . . . ",
". . . . . . + . = - ; > , ' ) ! ~ { ] ^ / ( _ + . . . . . . ",
". . . . . + : < [ } | 1 2 3 4 5 6 7 8 9 0 a b < + + . . . . ",
". . . . + c d e f g h i j j k l l m n o p q r ^ = . . . . . ",
". . . + . s t u v o w w x k y l z A A B C D E F G * . + . . ",
". . + c s H I w J j K l L m n M B N O D P Q R S T U c . + . ",
". + : d V I W w X Y Z 4 `  .6 ..+.@.#.#.$.%.&.*.=.-.;.>.+ . ",
". . < e ,.j k '.).!.~.~.x ~.x x {.].^./.{.(._.:.<.[.}.|.1.+ ",
"+ = [ 2.w j 3.4.5.6.7.8.9.0.a.b.c.d.e.f.g.h.i.j.k.*.l.m.+ . ",
". - } 4.j k m n.o.p.p.p.q.r.s.t.u.v.w.x.y.z.A.B.C.D.E.F.G.. ",
". ; H.I.k l n i J.+.K.+.L.M.N.O.P.Q.R.S.T.U.V.W.X.Y.<.Z.`.* ",
"+  +.+w l ++n B X.v @+#+#+w w $+j $+X.2 %+&+*+=+k.-+;+>+,+# ",
"@ , '+A m )+A !+C ~+m n k.)+)+{+C N ]+^+/+(+_+'+:+<+;+[+}+|+",
"1+2+L.3+B B O 4+5+6+7+8+9+0+a+b+I c+d+e+f+g+h+i+C.j+k+<+l+m+",
"$ n+o+C C !+{+p+q+r+s+c.t+u+f.v+w+x+y+z+A+A+B+C+D+E+E+F+G+H+",
"$ I+S J+K+L+M+N+c.d.O+P+Q+R+S+T+U+V+W+X+Y+Z+`+ @.@+@@@#@$@^ ",
"% ~ 5 L+D %@&@*@c.O+=@-@;@>@,@'@)@!@~@{@]@^@/@(@_@@@:@<@[@}@",
"& { |@1@Q 2@3@g d.P+-@U.4@5@6@7@7@8@8@9@9@9@0@:@_@a@b@c@d@e@",
"* f@Z.Q g@h@i@N+O+g.h.j@k@l@m@.@.@n@o@m@D.p@j+b@:@q@F+r@s@$ ",
". t@u@)+2@v@w@x@f.h.y@y+z@)@9+9+A@0+B@C@D@E@F@G@H@I@J@$.K@@ ",
". / L@M@h@*.w@N@h.O@P@y+Q@R@S@T@U@V@W@X@Y@Z@`@ #q@F+.#+#@#. ",
". ( ##$#<.<.%#&#*#=#y+-#;#>#,#'#)#!#~#{#]#]#^#/#(#_#:#<#[#. ",
"+ _ b r }#|#|#1#2#3#4#5#5#6#7#7#8#9#0#a#a#b#c#d#e#f#g#U h#+ ",
". + < ^ i#j#@@k#>+l#l#m#n#o#p#q#r#s#t#u#v#w#x#y##@z#A#: . + ",
". . + = G B#C#_@.#j+E+.#@@_@f#a@D#I@E#F+J@_#F#G#H#I#J#_ + . ",
". . + . * U K#4+.#.#@@_@(#b@L#<@E#F+J@_#_#M#D#N#I#O#. + . . ",
". . . . . c ;.P#Q#R#@@<@q@<@E#F+J@_#S#M#a@C.}+T#J#. U#. . . ",
". . . . + . >.|.m.V#W#X#Y#f#F#Z#S#`# $.$+$@$U c _ + . . . . ",
". . . . . + + 1.+ G.#$$$%$&$*$=$-$;$>$K@@#[#h#. + . . . . . ",
". . . . . . . + . . * 1+|+m+H+^ }@e@$ @ . . + + . . . . . . "};
