/* XPM */
static char * r3_xpm[] = {
"30 30 552 2",
"  	c None",
". 	c #EAE1D0",
"+ 	c #E9E0CF",
"@ 	c #E7DDCC",
"# 	c #E5DAC8",
"$ 	c #E3D8C7",
"% 	c #E3D8C6",
"& 	c #E4D9C8",
"* 	c #E6DBCA",
"= 	c #E8DFCE",
"- 	c #ECE4D4",
"; 	c #E7DCCB",
"> 	c #D1BFAD",
", 	c #BBA08D",
"' 	c #A7836D",
") 	c #9D735A",
"! 	c #986950",
"~ 	c #97674E",
"{ 	c #9A6E55",
"] 	c #A27B64",
"^ 	c #B1927E",
"/ 	c #C9B3A1",
"( 	c #DED0BE",
"_ 	c #EDE5D5",
": 	c #EAE2D1",
"< 	c #EBE3D2",
"[ 	c #EEE7D6",
"} 	c #C2AA96",
"| 	c #966C56",
"1 	c #946247",
"2 	c #A56F50",
"3 	c #BA8664",
"4 	c #C69470",
"5 	c #CE9C77",
"6 	c #D09E78",
"7 	c #C99872",
"8 	c #BE8B67",
"9 	c #AE7955",
"0 	c #9A6648",
"a 	c #8F624B",
"b 	c #AC8C77",
"c 	c #E1D5C3",
"d 	c #E2D6C5",
"e 	c #976F59",
"f 	c #8A563B",
"g 	c #C3916F",
"h 	c #DCAC87",
"i 	c #E2B28B",
"j 	c #E5B68E",
"k 	c #E5B48D",
"l 	c #E4B48C",
"m 	c #E3B48B",
"n 	c #E3B48A",
"o 	c #E4B48A",
"p 	c #E3B388",
"q 	c #DDAC82",
"r 	c #D2A077",
"s 	c #A06C4C",
"t 	c #83533C",
"u 	c #CAB4A1",
"v 	c #ECE4D3",
"w 	c #DACBB9",
"x 	c #8A5A43",
"y 	c #A06B4E",
"z 	c #E4B48F",
"A 	c #E4B58F",
"B 	c #E3B58D",
"C 	c #E4B48D",
"D 	c #E4B38C",
"E 	c #E3B38A",
"F 	c #E2B289",
"G 	c #E3B389",
"H 	c #E3B287",
"I 	c #E3B286",
"J 	c #E2B186",
"K 	c #E2B286",
"L 	c #E3B285",
"M 	c #C39068",
"N 	c #7F492E",
"O 	c #C0A692",
"P 	c #E9DFCE",
"Q 	c #8B5B42",
"R 	c #AE7A59",
"S 	c #E6B791",
"T 	c #E5B58F",
"U 	c #E2B288",
"V 	c #E2B287",
"W 	c #E2B187",
"X 	c #E2B185",
"Y 	c #E1B084",
"Z 	c #E1B083",
"` 	c #E1AF82",
" .	c #E0AF81",
"..	c #E1B082",
"+.	c #E2B183",
"@.	c #E4B485",
"#.	c #CB986E",
"$.	c #824A2D",
"%.	c #BDA28D",
"&.	c #AE7959",
"*.	c #E6B691",
"=.	c #CF9849",
"-.	c #C78C32",
";.	c #C68B33",
">.	c #C68933",
",.	c #C58833",
"'.	c #C48632",
").	c #C38432",
"!.	c #C28332",
"~.	c #C18132",
"{.	c #C08031",
"].	c #BF7E31",
"^.	c #C07F34",
"/.	c #CF9457",
"(.	c #E3B284",
"_.	c #E1B081",
":.	c #E5B484",
"<.	c #CD9A6F",
"[.	c #814A2E",
"}.	c #BFA591",
"|.	c #EFE8D8",
"1.	c #A06B4D",
"2.	c #E6B690",
"3.	c #E6B893",
"4.	c #CA923B",
"5.	c #C88B27",
"6.	c #DCA14A",
"7.	c #DB9E49",
"8.	c #DA9C49",
"9.	c #D99B49",
"0.	c #D79949",
"a.	c #D79849",
"b.	c #D59549",
"c.	c #D5944A",
"d.	c #D4934A",
"e.	c #D3924B",
"f.	c #CE8A43",
"g.	c #B66C1B",
"h.	c #C78747",
"i.	c #E0AF7F",
"j.	c #E3B281",
"k.	c #CB986C",
"l.	c #814F37",
"m.	c #D5C4B2",
"n.	c #ECE3D3",
"o.	c #89563B",
"p.	c #E4B48E",
"q.	c #E4B58E",
"r.	c #C0831F",
"s.	c #DEA24F",
"t.	c #E4A95B",
"u.	c #E3A75B",
"v.	c #E2A65C",
"w.	c #E1A55C",
"x.	c #E0A25C",
"y.	c #DFA15B",
"z.	c #DFA05C",
"A.	c #DE9F5D",
"B.	c #DC9D5D",
"C.	c #DC9B5D",
"D.	c #DC9B5E",
"E.	c #D28E4E",
"F.	c #AD5F0E",
"G.	c #E4B587",
"H.	c #E0AE7E",
"I.	c #E1AF7E",
"J.	c #E1AF7D",
"K.	c #B17D56",
"L.	c #9B7460",
"M.	c #E9E0CE",
"N.	c #956C56",
"O.	c #C3916D",
"P.	c #E3B48C",
"Q.	c #CB913F",
"R.	c #C48422",
"S.	c #DA9D4D",
"T.	c #DA9C4D",
"U.	c #D99B4D",
"V.	c #D8994D",
"W.	c #D7974D",
"X.	c #D6964D",
"Y.	c #D6944D",
"Z.	c #D4924D",
"`.	c #D69452",
" +	c #DB9A5D",
".+	c #DB9A5E",
"++	c #D38E51",
"@+	c #AA5B0D",
"#+	c #E4B586",
"$+	c #E0AE7D",
"%+	c #DFAE7C",
"&+	c #D8A675",
"*+	c #915F42",
"=+	c #D0BDAB",
"-+	c #936247",
";+	c #DCAC86",
">+	c #E3B38B",
",+	c #E1B185",
"'+	c #CD9449",
")+	c #C2842E",
"!+	c #C1822D",
"~+	c #C1802D",
"{+	c #C07F2D",
"]+	c #BF7D2D",
"^+	c #BE7B2D",
"/+	c #BD7A2C",
"(+	c #BD792D",
"_+	c #B46B19",
":+	c #D18E4E",
"<+	c #DB9960",
"[+	c #D18C51",
"}+	c #A9590E",
"|+	c #E4B585",
"1+	c #DFAE7D",
"2+	c #DFAD7A",
"3+	c #DFAD79",
"4+	c #A8714A",
"5+	c #B39581",
"6+	c #A57050",
"7+	c #E2B18A",
"8+	c #E4B38B",
"9+	c #E2B389",
"0+	c #E0AF80",
"a+	c #E1AF80",
"b+	c #BF7B35",
"c+	c #C47B37",
"d+	c #DB9862",
"e+	c #D08A51",
"f+	c #A8560E",
"g+	c #E4B685",
"h+	c #DFAD7B",
"i+	c #E0AE7A",
"j+	c #C08C5F",
"k+	c #9B7057",
"l+	c #E5DAC9",
"m+	c #BA8663",
"n+	c #E5B58C",
"o+	c #E4B48B",
"p+	c #E2B388",
"q+	c #E1B286",
"r+	c #E2B285",
"s+	c #DFAC7C",
"t+	c #D1965A",
"u+	c #D0965B",
"v+	c #D0955A",
"w+	c #D0955C",
"x+	c #B2661A",
"y+	c #CA8344",
"z+	c #D99660",
"A+	c #D8945F",
"B+	c #A85710",
"C+	c #C7884D",
"D+	c #E2B280",
"E+	c #DFAD78",
"F+	c #D19E6C",
"G+	c #8D583B",
"H+	c #E2D6C4",
"I+	c #9D725A",
"J+	c #C6936E",
"K+	c #E3B288",
"L+	c #DAA470",
"M+	c #B26912",
"N+	c #B76C1A",
"O+	c #B66B1B",
"P+	c #B5691C",
"Q+	c #B4671B",
"R+	c #C07733",
"S+	c #D9965F",
"T+	c #D7935E",
"U+	c #D6925F",
"V+	c #CD854F",
"W+	c #A95615",
"X+	c #CC8E57",
"Y+	c #DFAE7A",
"Z+	c #DEAD77",
"`+	c #DFAD77",
" @	c #DCAA75",
".@	c #894F2E",
"+@	c #DACBBA",
"@@	c #97694F",
"#@	c #CD9B75",
"$@	c #E1B285",
"%@	c #E1B184",
"&@	c #E4B488",
"*@	c #C18038",
"=@	c #C47E33",
"-@	c #E0A065",
";@	c #DD9D62",
">@	c #DD9C63",
",@	c #DC9963",
"'@	c #DA9761",
")@	c #D7935D",
"!@	c #D5925D",
"~@	c #D5905E",
"{@	c #D59060",
"]@	c #C67A46",
"^@	c #B3652A",
"/@	c #DAA670",
"(@	c #DFAC76",
"_@	c #E3B078",
":@	c #905735",
"<@	c #CCB8A5",
"[@	c #97674D",
"}@	c #CF9D75",
"|@	c #E2B083",
"1@	c #E3B487",
"2@	c #C58542",
"3@	c #BA7125",
"4@	c #D89558",
"5@	c #D9975C",
"6@	c #D8955C",
"7@	c #D7935C",
"8@	c #D99661",
"9@	c #D6925E",
"0@	c #D48E5E",
"a@	c #D48D5F",
"b@	c #CD8354",
"c@	c #B3642C",
"d@	c #D69F69",
"e@	c #DEAB75",
"f@	c #E3B278",
"g@	c #915935",
"h@	c #C9B4A1",
"i@	c #C99770",
"j@	c #E3B186",
"k@	c #E2B084",
"l@	c #DEAD7C",
"m@	c #BD7933",
"n@	c #AC5B0C",
"o@	c #AB5A0F",
"p@	c #AA580F",
"q@	c #A8560F",
"r@	c #AF5F1C",
"s@	c #D38F5C",
"t@	c #D48E5F",
"u@	c #D38C5F",
"v@	c #CB8254",
"w@	c #B2622C",
"x@	c #D69E68",
"y@	c #DEAC75",
"z@	c #DEAC74",
"A@	c #DFAC74",
"B@	c #8C5331",
"C@	c #D3C2AF",
"D@	c #BE8A64",
"E@	c #E4B387",
"F@	c #E2B184",
"G@	c #E2B182",
"H@	c #E1B080",
"I@	c #E1B07F",
"J@	c #E2B281",
"K@	c #DEAB7A",
"L@	c #DBA773",
"M@	c #DBA673",
"N@	c #DDA976",
"O@	c #B46829",
"P@	c #BF7239",
"Q@	c #D58F61",
"R@	c #D18A5F",
"S@	c #CA7F54",
"T@	c #B05E2B",
"U@	c #D59D66",
"V@	c #DEAB74",
"W@	c #D5A16B",
"X@	c #885130",
"Y@	c #E1D4C3",
"Z@	c #AD7854",
"`@	c #E2B082",
" #	c #E2B284",
".#	c #DBA875",
"+#	c #D7A16C",
"@#	c #D7A06B",
"##	c #D7A06A",
"$#	c #D6A06A",
"%#	c #B3662A",
"&#	c #C1743E",
"*#	c #D48E61",
"=#	c #D1885F",
"-#	c #CA7E54",
";#	c #AE5B2A",
">#	c #D49C65",
",#	c #DEAB73",
"'#	c #C7925F",
")#	c #94654A",
"!#	c #996546",
"~#	c #DCAB7F",
"{#	c #B87127",
"]#	c #BA7129",
"^#	c #BA7029",
"/#	c #B86E29",
"(#	c #B76C29",
"_#	c #B66A29",
":#	c #B56829",
"<#	c #B46629",
"[#	c #B36529",
"}#	c #B46329",
"|#	c #D08859",
"1#	c #D28B5F",
"2#	c #D1885E",
"3#	c #D0875E",
"4#	c #C97E56",
"5#	c #D39A63",
"6#	c #DEAB72",
"7#	c #DEAB71",
"8#	c #B17B4E",
"9#	c #A7846E",
"0#	c #8F614A",
"a#	c #D19F74",
"b#	c #B87128",
"c#	c #C7803C",
"d#	c #D59156",
"e#	c #D38F55",
"f#	c #D38D55",
"g#	c #D28C55",
"h#	c #D08B55",
"i#	c #D08955",
"j#	c #CF8756",
"k#	c #CE8656",
"l#	c #D0895A",
"m#	c #D0875F",
"n#	c #CF865F",
"o#	c #C97D57",
"p#	c #AF5A2B",
"q#	c #D39961",
"r#	c #DDAA71",
"s#	c #D8A56C",
"t#	c #98623E",
"u#	c #C5AF9C",
"v#	c #A06B4B",
"w#	c #E2B181",
"x#	c #B2681E",
"y#	c #CF8B4C",
"z#	c #D9965E",
"A#	c #D7945D",
"B#	c #D5915D",
"C#	c #D58F5D",
"D#	c #D38D5E",
"E#	c #D28B5E",
"F#	c #D18A5E",
"G#	c #CE855F",
"H#	c #CE845F",
"I#	c #C2724C",
"J#	c #A95525",
"K#	c #D79E67",
"L#	c #DDAA70",
"M#	c #C7935F",
"N#	c #90634D",
"O#	c #DFD2C1",
"P#	c #C28F65",
"Q#	c #E3B282",
"R#	c #E3B283",
"S#	c #CA8C50",
"T#	c #B0631B",
"U#	c #BE7434",
"V#	c #BE7134",
"W#	c #BC6F34",
"X#	c #BB6D34",
"Y#	c #BA6C34",
"Z#	c #BA6A35",
"`#	c #B86835",
" $	c #B76635",
".$	c #B76535",
"+$	c #B56335",
"@$	c #B46134",
"#$	c #B45F35",
"$$	c #B15C33",
"%$	c #A34A1C",
"&$	c #C3804C",
"*$	c #DEAC72",
"=$	c #D8A56B",
"-$	c #8B5638",
";$	c #BDA38F",
">$	c #EDE6D5",
",$	c #7E482D",
"'$	c #CA976B",
")$	c #E4B281",
"!$	c #E1B180",
"~$	c #D19760",
"{$	c #C48346",
"]$	c #C38245",
"^$	c #C38045",
"/$	c #C27F45",
"($	c #C17E44",
"_$	c #C17D44",
":$	c #C17C43",
"<$	c #BF7B43",
"[$	c #BF7943",
"}$	c #BE7842",
"|$	c #BE7741",
"1$	c #BD7642",
"2$	c #BE7642",
"3$	c #CE915A",
"4$	c #DFAD72",
"5$	c #DCA96F",
"6$	c #965F3A",
"7$	c #9D7762",
"8$	c #EBE2D2",
"9$	c #81492C",
"0$	c #CC996C",
"a$	c #E2B17D",
"b$	c #E0AF7C",
"c$	c #E1B07C",
"d$	c #E0AF7B",
"e$	c #E0AF79",
"f$	c #E0AE79",
"g$	c #E0AE78",
"h$	c #DFAE77",
"i$	c #DFAD75",
"j$	c #DFAD74",
"k$	c #DFAC73",
"l$	c #DEAC71",
"m$	c #DCA96E",
"n$	c #99613A",
"o$	c #946851",
"p$	c #EBE2D1",
"q$	c #804A2E",
"r$	c #CA9769",
"s$	c #DEAC78",
"t$	c #DEAC77",
"u$	c #DFAB75",
"v$	c #DDAB74",
"w$	c #DDAB73",
"x$	c #DDAB72",
"y$	c #DCA970",
"z$	c #DDAA6F",
"A$	c #D8A46A",
"B$	c #E6DAC9",
"C$	c #814E37",
"D$	c #B17C53",
"E$	c #D7A571",
"F$	c #DEAC76",
"G$	c #E0AD76",
"H$	c #DDAA73",
"I$	c #DEAA71",
"J$	c #C7925E",
"K$	c #EAE0CF",
"L$	c #915E42",
"M$	c #A77048",
"N$	c #C08B5C",
"O$	c #D09D69",
"P$	c #DBA871",
"Q$	c #E2AF76",
"R$	c #E3B075",
"S$	c #D4A069",
"T$	c #C6915D",
"U$	c #B17B4C",
"V$	c #8D583A",
"W$	c #894F2D",
"X$	c #8F5734",
"Y$	c #915834",
"Z$	c #8C5330",
"`$	c #885030",
". . . . . . . . + . . + @ # $ % & * = . . . + . . . . . . . ",
". . . . . . + . - ; > , ' ) ! ~ { ] ^ / ( _ : + . . . . . . ",
". . . . . + < [ } | 1 2 3 4 5 6 7 8 9 0 a b c [ + + . . . . ",
". . . . + < d e f g h i j k l m n o p q r s t u v . . . . . ",
". . . + . w x y z A B C D o E F G H I J K L M N O P . + . . ",
". . + < w Q R S T U V W J X Y Y Z `  ...K +.@.#.$.%.< . + . ",
". + < d x &.*.X =.-.;.>.,.'.).!.~.{.].^./.(._.:.<.[.}.|.+ . ",
". . [ e 1.2.3.4.5.6.7.8.9.0.a.b.c.d.e.f.g.h.L i.j.k.l.m.n.+ ",
"+ - } o.p.q.q.r.s.t.u.v.w.x.y.z.A.B.C.D.E.F.G.H.I.J.K.L.M.. ",
". ; N.O.q.P.*.Q.R.S.T.U.V.W.X.Y.Z.`. +.+++@+#+$+$+%+&+*+=+. ",
". > -+;+P.>+m ,+'+)+!+~+{+]+^+/+(+_+:+<+[+}+|+1+%+2+3+4+5+P ",
"+ , 6+7+8+>+9+E m `  .0+i..._.a++.b+c+d+e+f+g+h+h+i+i+j+k+l+",
"@ ' m+n+o+F F p+H q+r+K s+t+u+v+w+x+y+z+A+B+C+D+i+3+E+F+G+H+",
"# I+J+o F K+H I X r+K L+M+N+O+P+Q+R+S+T+U+V+W+X+Y+Z+`+ @.@+@",
"$ @@#@G p+H W r+$@%@&@*@=@-@;@>@,@'@)@!@~@{@]@^@/@`+(@_@:@<@",
"% [@}@G H J r+,+%@|@1@2@3@4@5@6@7@8@9@~@0@a@b@c@d@(@e@f@g@h@",
"& { i@p j@r+%@k@Z ....l@m@n@o@p@q@r@s@t@a@u@v@w@x@y@z@A@B@C@",
"* ] D@E@%@F@Z G@G@..H@I@J@K@L@M@N@O@P@Q@u@R@S@T@U@z@V@W@X@Y@",
"= ^ Z@X k@|@`@ #.#+#+#@#####$#d@+#%#&#*#R@=#-#;#>#,#,#'#)#$ ",
". / !#~#Z .. #d@{#]#^#/#(#_#:#<#[#}#|#1#2#3#4#;#5#6#7#8#9#@ ",
". ( 0#a#G@_.L b#c#d#e#f#g#h#i#j#k#l#1#2#m#n#o#p#q#r#s#t#u#. ",
". _ b v#w#_.G@x#y#z#A#)@B#C#0@D#E#F#2#m#G#H#I#J#K#L#M#N#O#. ",
"+ : c t P#Q#R#S#T#U#V#W#X#Y#Z#`# $.$+$@$#$$$%$&$*$=$-$;$>$+ ",
". + [ u ,$'$)$!$~${$]$^$/$($_$:$<$[$}$|$1$2$3$4$5$6$7$8$. + ",
". . + v O 9$0$a$b$c$c$d$e$f$g$h$h$i$i$j$k$*$l$m$n$o$* p$+ . ",
". . + . P %.q$r$i+s$E+Z+t$u$y@v$w$x$7#r#y$z$A$6$o$B$. + . . ",
". . . . . < }.C$D$E$F$G$(@z@w$H$6#6#I$L#=$J$-$7$* . K$. . . ",
". . . . + . |.m.L.L$M$N$O$P$Q$R$*$S$T$U$t#N#;$8$p$+ . . . . ",
". . . . . + + n.M.=+5+k+V$W$X$Y$Z$`$)#9#u#O#>$. + . . . . . ",
". . . . . . . + . . P l+H++@<@h@C@Y@$ @ . . + + . . . . . . "};
