/* XPM */
static char * var_bleu_xpm[] = {
"12 8 48 1",
" 	c None",
".	c #9090FF",
"+	c #8E8EFD",
"@	c #7A7CDF",
"#	c #797BDD",
"$	c #8D8DFB",
"%	c #7276C6",
"&	c #8B94C1",
"*	c #5B68A7",
"=	c #5261A9",
"-	c #7984B6",
";	c #6E73C8",
">	c #757DB5",
",	c #97A0CD",
"'	c #737DB3",
")	c #6B76B0",
"!	c #8691C6",
"~	c #616AAE",
"{	c #828AC5",
"]	c #98A2D5",
"^	c #8F9BD4",
"/	c #8390D0",
"(	c #7482CA",
"_	c #5F69B8",
":	c #7981C2",
"<	c #919EDB",
"[	c #8391D6",
"}	c #7685D0",
"|	c #697ACF",
"1	c #535EAD",
"2	c #5964AB",
"3	c #5B69AB",
"4	c #6170BA",
"5	c #5465B5",
"6	c #3D4EA1",
"7	c #434FA3",
"8	c #5D68B5",
"9	c #6274CE",
"0	c #4D60C0",
"a	c #3F54BB",
"b	c #3B50B6",
"c	c #4450A3",
"d	c #7F81E7",
"e	c #6069C3",
"f	c #525EBC",
"g	c #4F5AB8",
"h	c #565FB9",
"i	c #7F81E9",
"....+@#$....",
"...%&*=-;...",
"...>,')!~...",
"...{]^/(_...",
"...:<[}|1...",
"...234567...",
"...890abc...",
"...defghi..."};
