/* XPM */
static char * var_rouge_xpm[] = {
"12 8 46 1",
" 	c None",
".	c #FF9090",
"+	c #FC8E8E",
"@	c #D97878",
"#	c #D77777",
"$	c #FB8D8D",
"%	c #BB6A6A",
"&	c #B27474",
"*	c #894747",
"=	c #853C3C",
"-	c #A66262",
";	c #BE6868",
">	c #A66666",
",	c #C17F7F",
"'	c #9D5D5D",
")	c #985555",
"!	c #B96969",
"~	c #9D4F4F",
"{	c #B87070",
"]	c #C97B7B",
"^	c #C86D6D",
"/	c #C35E5E",
"(	c #BB4A4A",
"_	c #A84646",
":	c #B46565",
"<	c #CE6D6D",
"[	c #C85A5A",
"}	c #C24949",
"|	c #B83E3E",
"1	c #974040",
"2	c #994444",
"3	c #963B3B",
"4	c #A43D3D",
"5	c #973232",
"6	c #762727",
"7	c #823939",
"8	c #A34343",
"9	c #AF3939",
"0	c #933030",
"a	c #802B2B",
"b	c #7A2828",
"c	c #E27B7B",
"d	c #AE5353",
"e	c #944343",
"f	c #9F4E4E",
"g	c #E27D7D",
"....+@#$....",
"...%&*=-;...",
"...>,')!~...",
"...{]^/(_...",
"...:<[}|1...",
"...234567...",
"...890ab7...",
"...cd2efg..."};
